<?xml version="1.0" encoding="UTF-8"?>
<svg width="1080px" height="840px" viewBox="0 0 1080 840" version="1.1" xmlns="http://www.w3.org/2000/svg" xmlns:xlink="http://www.w3.org/1999/xlink">
    <title>Accessories/ 1</title>
    <g id="Accessories/-1" stroke="none" stroke-width="1" fill="none" fill-rule="evenodd" stroke-linecap="round" stroke-linejoin="round">
        <path d="M554,671 C563.306001,704.706165 567.306001,737.706165 566,770 C564.693999,802.293835 562.360666,825.627168 559,840 L670,840 L607,671 L554,671 Z" id="Path" stroke="#000000" stroke-width="12" fill="#F04949"></path>
        <path d="M593.509728,661 C590.163424,710.333333 590.163424,745.666667 593.509728,767 C596.856031,788.333333 602.879377,812.666667 611.579767,840 L720,840 C699.378693,799.521276 687.666631,775.187943 684.863813,767 C671.660512,728.428861 665.302535,689.095528 665.789883,649 L593.509728,661 Z" id="Path" stroke="#000000" stroke-width="12" fill="#F04949"></path>
        <g id="Group" transform="translate(356.000000, 514.000000)" stroke="#000000" stroke-width="12">
            <path d="M99.6428571,0 C54.7155984,11.2944385 29.0489317,20.6277718 22.6428571,28 C-18.4642657,75.3068313 6.75505688,124.789363 18.6428571,141 C40.6428571,171 110.172495,182.51428 163.642857,180 C199.289765,178.323813 256.623099,165.323813 335.642857,141 C352.309524,123 357.642857,96.3333333 351.642857,61 C345.642857,25.6666667 317.97619,5.33333333 268.642857,0 C234.369595,24.4221518 199.369595,35.4221518 163.642857,33 C127.916119,30.5778482 106.582785,19.5778482 99.6428571,0 Z" id="Path" fill="#F04949"></path>
            <path d="M56.6428571,57 C109.432583,75.2817486 150.432583,85.2817486 179.642857,87 C208.853132,88.7182514 247.186465,83.3849181 294.642857,71" id="Path"></path>
            <path d="M20.6428571,33 C22.519052,52.7037864 25.1857187,66.3704531 28.6428571,74 C32.0999956,81.6295469 39.0999956,89.2962136 49.6428571,97" id="Path"></path>
            <path d="M343.642857,46 C336.069401,61.7197287 330.736068,72.3863954 327.642857,78 C324.549646,83.6136046 319.88298,89.946938 313.642857,97" id="Path"></path>
            <path d="M171.642857,141 C195.809279,139.206236 216.475946,136.539569 233.642857,133 C250.809768,129.460431 262.476435,125.460431 268.642857,121" id="Path"></path>
        </g>
    </g>
</svg>