<?xml version="1.0" encoding="UTF-8"?>
<svg width="1080px" height="840px" viewBox="0 0 1080 840" version="1.1" xmlns="http://www.w3.org/2000/svg" xmlns:xlink="http://www.w3.org/1999/xlink">
    <title>Accessories/ 2</title>
    <g id="Accessories/-2" stroke="none" stroke-width="1" fill="none" fill-rule="evenodd" stroke-linecap="round" stroke-linejoin="round">
        <g id="Group" transform="translate(303.000000, 520.000000)" stroke="#000000">
            <path d="M437,92 L486,287 C447.278981,253.329808 420.945647,225.663141 407,204 C393.054353,182.336859 380.721019,159.336859 370,135 L437,92 Z" id="Path" stroke-width="12" fill="#A7C3CA"></path>
            <path d="M70.8932039,73 C80.8997558,96.4871418 87.7600879,116.588625 91.4742002,133.304448 C95.1883125,150.020272 98.6969124,176.585456 102,213 L13,102.655172 L70.8932039,73 Z" id="Path" stroke-width="12" fill="#A7C3CA" transform="translate(57.500000, 143.000000) scale(-1, 1) rotate(-11.000000) translate(-57.500000, -143.000000) "></path>
            <path d="M152,0 C176.666667,29.3333333 205.333333,44 238,44 C270.666667,44 298.333333,29.3333333 321,0 C337.393397,14.9594217 349.393397,23.9594217 357,27 C373.798305,33.7147664 389.163122,27.3086633 399,33 C409.443331,39.0422129 408.506928,42.8759963 422,57 C425.536537,60.7019039 434.672306,62.6440012 445,72 C448.302286,74.9915858 453.302286,81.6582524 460,92 C414.462385,136.289006 373.129052,170.62234 336,195 C298.870948,219.37766 241.204282,250.044327 163,287 C121.950065,236.833465 92.9500648,194.500132 76,160 C59.0499352,125.499868 50.3832686,91.1665348 50,57 C62.1920568,51.6798234 70.8587234,47.3464901 76,44 C83.5998508,39.0532081 89.8521003,29.6933656 96,27 C101.604423,24.5447291 116.68768,25.417146 125,23 C131.705943,21.0499735 140.705943,13.3833068 152,0 Z" id="Path" stroke-width="12" fill="#A7C3CA"></path>
            <path d="M88,61 C110.333764,106.926749 129.000431,138.926749 144,157 C158.999569,175.073251 177.999569,190.406584 201,203" id="Path" stroke-width="12"></path>
            <path d="M131,72 C140.431401,91.7892516 148.431401,105.789252 155,114 C161.568599,122.210748 169.568599,128.210748 179,132" id="Path" stroke-width="8"></path>
            <path d="M384,50 C370.596284,70.1851966 359.596284,84.1851966 351,92 C342.403716,99.8148034 327.73705,109.148137 307,120" id="Path" stroke-width="12"></path>
            <path d="M339,50 C333.249495,62.5315012 327.916162,71.1981678 323,76 C318.083838,80.8018322 309.083838,86.1351655 296,92" id="Path" stroke-width="8"></path>
        </g>
    </g>
</svg>