<?xml version="1.0" encoding="UTF-8"?>
<svg width="1080px" height="840px" viewBox="0 0 1080 840" version="1.1" xmlns="http://www.w3.org/2000/svg" xmlns:xlink="http://www.w3.org/1999/xlink">
    <title>Accessories/ 3</title>
    <g id="Accessories/-3" stroke="none" stroke-width="1" fill="none" fill-rule="evenodd" stroke-linecap="round" stroke-linejoin="round">
        <g id="Group" transform="translate(394.000000, 526.000000)" stroke="#000000">
            <path d="M126.937463,39.386283 C150.54271,21.6376253 169.204679,10.284601 182.923367,5.32721001 C196.642056,0.369819033 213.324724,-1.04930901 232.971373,1.06982588 C236.910251,3.67456697 239.737822,11.3378584 241.454085,24.0597001 C243.170349,36.7815419 244.018842,56.3655089 243.999564,82.811601 C242.647351,94.8412705 239.819558,105.058992 235.516187,113.464767 C231.212815,121.870541 223.578373,132.088263 212.612862,144.117932 C194.063661,140.279733 178.512021,133.751744 165.957942,124.533965 C153.403863,115.316187 138.417737,99.421953 120.999564,76.8512633 L126.937463,39.386283 Z" id="Path" stroke-width="12" fill="#505050"></path>
            <path d="M-0.000436110218,33.5064216 C8.96032205,18.2642075 19.7879807,8.57999767 32.4825397,4.45379195 C45.1770987,0.327586238 60.6143701,-0.853602469 78.7943537,0.910225834 C82.439186,3.07824075 85.0556727,9.45665976 86.6438137,20.0454829 C88.2319547,30.634306 89.0169007,46.9347102 88.9986517,68.9466953 C87.7477943,78.9593999 85.1313076,87.4639586 81.1491917,94.4603714 C77.1670758,101.456784 74.0788388,109.675971 71.8844807,119.117932 C50.4114882,112.521619 33.8665471,105.387326 22.2496572,97.7150547 C10.6327673,90.0427832 5.4981304,80.0547736 6.84574644,67.7510259 L-0.000436110218,33.5064216 Z" id="Path" stroke-width="12" fill="#505050" transform="translate(44.499564, 59.617932) scale(-1, 1) translate(-44.499564, -59.617932) "></path>
            <path d="M141.8286,63.3479737 C133.868398,92.7884505 119.938044,102.979385 100.037539,93.9207765 C78.4312762,96.1854286 68.4810236,84.0129237 70.1867812,57.403262 C71.8925388,30.7936003 81.8427913,18.0549324 100.037539,19.1872585 C135.858448,19.1872585 149.788802,33.9074969 141.8286,63.3479737 Z" id="Path" stroke-width="12" fill="#505050"></path>
            <path d="M98.5888489,93.1179324 C96.6730255,83.4094881 95.8203467,75.3635111 96.0308126,68.9800013 C96.2412785,62.5964916 98.2308623,53.975802 101.999564,43.1179324" id="Path" stroke-width="8"></path>
        </g>
    </g>
</svg>