<?xml version="1.0" encoding="UTF-8"?>
<svg width="1080px" height="840px" viewBox="0 0 1080 840" version="1.1" xmlns="http://www.w3.org/2000/svg" xmlns:xlink="http://www.w3.org/1999/xlink">
    <title>Accessories/ 4</title>
    <g id="Accessories/-4" stroke="none" stroke-width="1" fill="none" fill-rule="evenodd" stroke-linecap="round" stroke-linejoin="round">
        <g id="Group" transform="translate(289.500000, 300.000000)" stroke="#000000">
            <path d="M11.4447514,12.4583333 C33.6817066,4.15277778 62.1728054,0 96.9180479,0 C131.66329,0 186.560773,5.11111111 261.610497,15.3333333 C252.871086,54.2302454 249.744014,80.4246898 252.229282,93.9166667 C254.71455,107.408644 265.138122,120.82531 283.5,134.166667 C241.805709,182.722222 195.247084,207 143.824125,207 C66.6896869,207 33.3342541,168.666667 11.4447514,119.791667 C-3.14825046,87.2083333 -3.14825046,51.4305556 11.4447514,12.4583333 Z" id="Path" stroke-width="12" fill="#9AEEEA"></path>
            <path d="M3.5,85 C18.4191365,74.6313012 43.7879309,68.7447222 79.606383,67.3402632 C115.424835,65.9358042 171.722707,68.8790937 248.5,76.1701316" id="Path" stroke-width="8"></path>
            <path d="M11.5,116 C14.2806268,107.254314 19.1467236,102.545099 26.0982906,101.872354 C36.525641,100.863236 49.0384615,111.96353 82.4059829,111.96353 C115.773504,111.96353 154.806595,102.535004 192.935897,98.8450013 C218.355433,96.3849996 239.210134,96.3849996 255.5,98.8450013" id="Path" stroke-width="8"></path>
            <path d="M38.5,163 C51.2867785,168.788043 61.741324,172.445233 69.8636364,173.971568 C77.9859488,175.497903 90.5314033,176.162847 107.5,175.966399" id="Path" stroke-width="8"></path>
            <path d="M261.5,112 C254.743657,118.613279 243.219847,126.279946 226.928571,135 C210.637296,143.720054 185.494439,155.386721 151.5,170" id="Path" stroke-width="8"></path>
        </g>
        <path d="M549,339 C573.058679,307.392663 594.058679,285.059329 612,272 C629.941321,258.940671 661.607988,243.940671 707,227" id="Path" stroke="#000000" stroke-width="12"></path>
        <path d="M560,422 C595.463363,407.345311 621.463363,395.011978 638,385 C654.536637,374.988022 673.869971,357.654689 696,333" id="Path" stroke="#000000" stroke-width="12"></path>
    </g>
</svg>