<?xml version="1.0" encoding="UTF-8"?>
<svg width="1080px" height="840px" viewBox="0 0 1080 840" version="1.1" xmlns="http://www.w3.org/2000/svg" xmlns:xlink="http://www.w3.org/1999/xlink">
    <title>Accessories/ 5</title>
    <g id="Accessories/-5" stroke="none" stroke-width="1" fill="none" fill-rule="evenodd" stroke-linecap="round" stroke-linejoin="round">
        <g id="Group" transform="translate(220.000000, 520.000000)" stroke="#000000" stroke-width="12">
            <path d="M0,211 C77.3333333,261 165.666667,289.666667 265,297 C364.333333,304.333333 492.333333,289.333333 649,252 C621.940481,173.278755 593.273815,118.278755 563,87 C532.726185,55.7212455 481.726185,26.7212455 410,8.52651283e-14 C390.666667,37.3333333 360.666667,56 320,56 C279.333333,56 250,37.3333333 232,8.52651283e-14 C164.213426,22.804396 117.880093,46.1377293 93,70 C68.1199073,93.8622707 37.1199073,140.862271 0,211 Z" id="Path" fill="#F03A3A"></path>
            <path d="M642,232 C488,262.666667 359.333333,273.666667 256,265 C152.666667,256.333333 72.6666667,229 16,183 L27,164 C98.2819292,206.636673 174.281929,230.636673 255,236 C335.718071,241.363327 460.718071,230.363327 630,203 L642,232 Z" id="Path" fill="#32AB50"></path>
            <path d="M605,157 C454.319431,187.346919 345.652764,200.346919 279,196 C212.347236,191.653081 137.013902,166.653081 53,121 L68,101 C155.980913,140.819574 229.980913,161.819574 290,164 C350.019087,166.180426 449.685753,153.180426 589,125 L605,157 Z" id="Path" fill="#FFDA19"></path>
            <path d="M267,46 C261.534561,60.7625281 258.201228,73.4291948 257,84 C255.798772,94.5708052 255.798772,111.237472 257,134 C274.862079,119.250125 287.528745,107.250125 295,98 C302.471255,88.7498752 310.804588,74.7498752 320,56 C307.937849,57.1203488 298.937849,57.1203488 293,56 C287.062151,54.8796512 278.395485,51.5463179 267,46 Z" id="Path" fill="#FFDA19"></path>
            <path d="M334.313021,49.1079236 C329.437818,62.0251357 326.464465,73.108469 325.392962,82.3579236 C324.32146,91.6073781 324.32146,106.190711 325.392962,126.107924 C341.326042,113.201783 352.624784,102.701783 359.289187,94.6079236 C365.953591,86.5140643 373.386973,74.2640643 381.589335,57.8579236 C370.829825,58.8382288 362.801772,58.8382288 357.505175,57.8579236 C352.208579,56.8776184 344.477861,53.9609517 334.313021,49.1079236 Z" id="Path" fill="#FFDA19" transform="translate(353.089335, 87.607924) rotate(-22.000000) translate(-353.089335, -87.607924) "></path>
            <path d="M391.723686,18 C386.848482,30.9172121 383.875129,42.0005455 382.803627,51.25 C381.732124,60.4994545 381.732124,75.0827879 382.803627,95 C398.736707,82.0938592 410.035448,71.5938592 416.699852,63.5 C423.364255,55.4061408 430.797638,43.1561408 439,26.75 C428.24049,27.7303052 420.212436,27.7303052 414.91584,26.75 C409.619244,25.7696948 401.888526,22.8530281 391.723686,18 Z" id="Path" fill="#FFDA19" transform="translate(410.500000, 56.500000) rotate(-49.000000) translate(-410.500000, -56.500000) "></path>
            <path d="M223.782703,21.0005008 C217.613872,36.5178928 214.040701,48.4808864 213.06319,56.8894814 C212.085679,65.2980764 212.085679,78.5556522 213.06319,96.6622087 C227.598632,84.9293534 237.906256,75.3838989 243.986062,68.025845 C250.065869,60.6677912 255.895955,49.0641367 261.476322,33.2148814 C254.105312,33.1761494 248.003815,32.7111901 243.171833,31.8200035 C238.33985,30.928817 231.876807,27.3223161 223.782703,21.0005008 Z" id="Path" fill="#FFDA19" transform="translate(236.903189, 58.831355) rotate(25.000000) translate(-236.903189, -58.831355) "></path>
            <path d="M447,37 C457.514707,40.0566007 473.514707,40.3899341 495,38 L412,2 L402,21 C421.485293,28.6100659 436.485293,33.9433993 447,37 Z" id="Path" fill="#F03A3A"></path>
            <path d="M447,37 C457.514707,40.0566007 473.514707,40.3899341 495,38 L412,2 L402,21 C421.485293,28.6100659 436.485293,33.9433993 447,37 Z" id="Path" fill="#FFDA19"></path>
            <path d="M189,38 C199.514707,41.0566007 215.514707,41.3899341 237,39 L154,3 L144,22 C163.485293,29.6100659 178.485293,34.9433993 189,38 Z" id="Path" fill="#FFDA19" transform="translate(190.500000, 21.786526) scale(-1, 1) translate(-190.500000, -21.786526) "></path>
        </g>
    </g>
</svg>