<?xml version="1.0" encoding="UTF-8"?>
<svg width="200px" height="100px" viewBox="0 0 200 100" version="1.1" xmlns="http://www.w3.org/2000/svg" xmlns:xlink="http://www.w3.org/1999/xlink">
    <title>Eyes/ 1</title>
    <g id="Eyes/-1" stroke="none" stroke-width="1" fill="none" fill-rule="evenodd" stroke-linecap="round" stroke-linejoin="round">
        <g id="Left" transform="translate(98.500000, 15.855250)" stroke="#000000" stroke-width="8">
            <path d="M4.5,25.2740872 C9.83333333,54.1279253 23.5,66.4938559 45.5,62.371879 C67.5,58.2499021 76.8333333,42.1741924 73.5,14.1447497 L4.5,25.2740872 Z" id="Path" fill="#FFFFFF"></path>
            <circle id="Oval" fill="#000000" cx="48" cy="22.6447497" r="13.5"></circle>
            <path d="M1.5,17.1447497 C4.5,15.1447497 22.83084,12.3604254 31.5,10.1447497 C53.1045836,4.6230207 66.6455548,0.730194188 72.5,0.144749671 C80.7036282,-0.675613152 87.0369616,1.99105351 91.5,8.14474967 C88.0435282,10.4986061 79.3768616,12.8319394 65.5,15.1447497 C51.6231384,17.4575599 30.2898051,20.1242266 1.5,23.1447497 C-0.5,20.478083 -0.5,18.478083 1.5,17.1447497 Z" id="Path" fill="#000000"></path>
        </g>
        <g id="Right" transform="translate(6.000000, 23.873284)" stroke="#000000" stroke-width="8">
            <path d="M13,14.1267156 L72,18.1267156 C73.3333333,43.4444021 66,57.3438154 50,59.8249554 C34,62.3060953 21.6666667,47.0733488 13,14.1267156 Z" id="Path" fill="#FFFFFF"></path>
            <circle id="Oval" fill="#000000" cx="56.5" cy="22.6267156" r="9.5"></circle>
            <path d="M71,10.1267156 C65,8.12671563 51.9461848,7.93511288 42,6.12671563 C32.0538152,4.31831839 26,-0.873284369 14,0.126715631 C6,0.793382298 1.33333333,6.46004896 0,17.1267156 C16.2222222,17.7933823 28.5555556,18.1267156 37,18.1267156 C45.4444444,18.1267156 57.7777778,17.7933823 74,17.1267156 C76,13.7933823 75,11.460049 71,10.1267156 Z" id="Path" fill="#000000"></path>
        </g>
    </g>
</svg>