<?xml version="1.0" encoding="UTF-8"?>
<svg width="200px" height="100px" viewBox="0 0 200 100" version="1.1" xmlns="http://www.w3.org/2000/svg" xmlns:xlink="http://www.w3.org/1999/xlink">
    <title>Eyes/ 7</title>
    <g id="Eyes/-7" stroke="none" stroke-width="1" fill="none" fill-rule="evenodd" stroke-linecap="round" stroke-linejoin="round">
        <g id="Left" transform="translate(118.000000, 25.000000)" stroke="#000000" stroke-width="12">
            <path d="M0,12.96 C10.56,4.32 23.04,0 37.44,0 C51.84,0 63.84,4.32 73.44,12.96" id="Path"></path>
            <path d="M14.4,48.96 C18.6352941,45.12 23.7741176,43.2 29.8164706,43.2 C35.8588235,43.2 40.8,45.12 44.64,48.96" id="Path"></path>
        </g>
        <g id="Right" transform="translate(45.000000, 49.500000) scale(-1, 1) translate(-45.000000, -49.500000) translate(8.000000, 25.000000)" stroke="#000000" stroke-width="12">
            <path d="M0,12.96 C10.56,4.32 23.04,0 37.44,0 C51.84,0 63.84,4.32 73.44,12.96" id="Path"></path>
            <path d="M14.4,48.96 C18.6352941,45.12 23.7741176,43.2 29.8164706,43.2 C35.8588235,43.2 40.8,45.12 44.64,48.96" id="Path"></path>
        </g>
    </g>
</svg>