<?xml version="1.0" encoding="UTF-8"?>
<svg width="860px" height="860px" viewBox="0 0 860 860" version="1.1" xmlns="http://www.w3.org/2000/svg" xmlns:xlink="http://www.w3.org/1999/xlink">
    <title>Headwear/ 1</title>
    <g id="Headwear/-1" stroke="none" stroke-width="1" fill="none" fill-rule="evenodd" stroke-linecap="round" stroke-linejoin="round">
        <g id="Group" transform="translate(210.000000, 86.000000)" fill="#1C51B6" stroke="#000000" stroke-width="12">
            <g transform="translate(124.928571, 0.000000)" id="Rectangle">
                <rect x="82.5" y="0" width="25.1428571" height="98.714653" rx="12.5714286"></rect>
                <path d="M67.7446076,8.77983841 C74.4953526,8.64412095 80.0779334,14.0066603 80.2136509,20.7574052 C80.2169068,20.9193563 80.2169437,21.0813561 80.2137616,21.2433086 L78.7957866,93.4123767 C78.6561896,100.517288 72.931668,106.24442 65.8268209,106.387257 C59.076076,106.522974 53.4934952,101.160435 53.3577777,94.4096899 C53.3545218,94.2477388 53.3544849,94.085739 53.3576669,93.9237865 L54.7756419,21.7547184 C54.9152389,14.6498069 60.6397605,8.92267477 67.7446076,8.77983841 Z" transform="translate(66.785714, 57.583548) rotate(-30.000000) translate(-66.785714, -57.583548) "></path>
                <path d="M43.5358061,26.60852 C50.3230616,26.4527673 55.9514819,31.8286624 56.1072347,38.615918 C56.1115485,38.8039034 56.1115485,38.9919631 56.1072347,39.1799486 L54.4832905,109.94675 C54.3180753,117.146352 48.5209384,122.943488 41.3213368,123.108704 C34.5340812,123.264456 28.9056609,117.888561 28.7499082,111.101306 C28.7455943,110.91332 28.7455943,110.725261 28.7499082,110.537275 L30.3738524,39.7704737 C30.5390676,32.5708721 36.3362045,26.7737352 43.5358061,26.60852 Z" transform="translate(42.428571, 74.858612) rotate(-45.000000) translate(-42.428571, -74.858612) "></path>
                <path d="M150.392949,26.60852 C157.180204,26.4527673 162.808625,31.8286624 162.964378,38.615918 C162.968691,38.8039034 162.968691,38.9919631 162.964378,39.1799486 L161.340433,109.94675 C161.175218,117.146352 155.378081,122.943488 148.17848,123.108704 C141.391224,123.264456 135.762804,117.888561 135.607051,111.101306 C135.602737,110.91332 135.602737,110.725261 135.607051,110.537275 L137.230995,39.7704737 C137.39621,32.5708721 143.193347,26.7737352 150.392949,26.60852 Z" transform="translate(149.285714, 74.858612) scale(-1, 1) rotate(-45.000000) translate(-149.285714, -74.858612) "></path>
                <path d="M125.887465,8.77983841 C132.63821,8.64412095 138.220791,14.0066603 138.356508,20.7574052 C138.359764,20.9193563 138.359801,21.0813561 138.356619,21.2433086 L136.938644,93.4123767 C136.799047,100.517288 131.074525,106.24442 123.969678,106.387257 C117.218933,106.522974 111.636352,101.160435 111.500635,94.4096899 C111.497379,94.2477388 111.497342,94.085739 111.500524,93.9237865 L112.918499,21.7547184 C113.058096,14.6498069 118.782618,8.92267477 125.887465,8.77983841 Z" transform="translate(124.928571, 57.583548) scale(-1, 1) rotate(-30.000000) translate(-124.928571, -57.583548) "></path>
            </g>
            <g transform="translate(0.000000, 59.583548)">
                <path d="M31,206.416452 C31,69.0831191 94,0.416452442 220,0.416452442 C346,0.416452442 409,69.0831191 409,206.416452 L220,169.416452 L31,206.416452 Z" id="Path"></path>
                <path d="M23.7263263,148.287267 C89.1508842,133.10004 154.575442,125.506427 220,125.506427 C285.424558,125.506427 350.849117,133.10004 416.273675,148.287267 C421.099557,149.407516 424.740927,153.37828 425.440115,158.282893 L436.944609,238.983734 C437.87994,245.544817 433.319366,251.621861 426.758283,252.557191 C424.60189,252.864601 422.402491,252.579277 420.395917,251.731814 C353.597278,223.519859 286.798639,209.413882 220,209.413882 C153.201362,209.413882 86.4027235,223.519859 19.6040853,251.731813 C13.4988448,254.310323 6.45927535,251.45134 3.8807678,245.346099 C3.03330482,243.339525 2.74798115,241.140126 3.05539076,238.983732 L14.5598853,158.282889 C15.2590767,153.378278 18.9004462,149.407515 23.7263263,148.287267 Z" id="Rectangle"></path>
            </g>
        </g>
    </g>
</svg>