<?xml version="1.0" encoding="UTF-8"?>
<svg width="860px" height="860px" viewBox="0 0 860 860" version="1.1" xmlns="http://www.w3.org/2000/svg" xmlns:xlink="http://www.w3.org/1999/xlink">
    <title>Headwear/ 10</title>
    <g id="Headwear/-10" stroke="none" stroke-width="1" fill="none" fill-rule="evenodd" stroke-linecap="round" stroke-linejoin="round">
        <g id="Group" transform="translate(417.049871, 277.768898) rotate(8.000000) translate(-417.049871, -277.768898) translate(155.049871, 73.268898)" stroke="#000000" stroke-width="12">
            <path d="M88.3368425,231.229637 C11.7395533,303.376572 -14.9029821,350.059884 8.40923636,371.279571 C43.3775641,403.109101 201.234586,417.659744 284.159478,403.109101 C316.127504,397.499744 342.718913,372.705192 410.045457,347.634777 C454.005641,331.265304 510.79212,304.124224 521.944106,271.243903 C529.378764,249.32369 505.06745,227.497726 449.010165,205.766012 L88.3368425,231.229637 Z" id="Path" fill="#FFD831"></path>
            <path d="M58.2016757,263.670186 C57.402306,200.500003 76.2887549,145.671261 114.861023,99.1839608 C153.43329,52.6966609 211.107923,22.3748132 287.884923,8.21841772 C360.934254,17.97152 412.497789,42.3660017 442.575528,81.4018627 C472.653267,120.437724 489.880379,173.557128 494.256863,240.760074 C490.554011,265.291858 483.254581,282.811577 472.358571,293.319229 C461.462562,303.826882 438.525815,315.465662 403.54833,328.235568 C279.799062,346.665093 192.346791,349.530651 141.191517,336.832241 C90.036243,324.133831 62.3729625,299.746479 58.2016757,263.670186 Z" id="Path" fill="#FFD831"></path>
            <path d="M132.717712,307.515334 L161.731805,307.515334 C169.735692,248.092618 189.078421,193.520736 219.75999,143.799688 C250.441559,94.0786401 301.799838,56.7878541 373.834826,31.9273301 C350.485557,13.6975983 332.47681,3.38957614 319.808585,1.00326368 C307.14036,-1.38304878 281.794716,4.98367078 243.771653,20.1034224 C195.651563,63.8402791 164.303004,105.072368 149.725973,143.799688 C135.148943,182.527008 129.479523,237.09889 132.717712,307.515334 Z" id="Path" fill="#FFD831"></path>
            <path d="M160.126418,307.511931 C158.129016,245.048795 168.448925,188.95326 191.086146,139.225327 C213.723367,89.497393 265.655815,48.2595945 346.883491,15.5119309" id="Path"></path>
        </g>
    </g>
</svg>