<?xml version="1.0" encoding="UTF-8"?>
<svg width="860px" height="860px" viewBox="0 0 860 860" version="1.1" xmlns="http://www.w3.org/2000/svg" xmlns:xlink="http://www.w3.org/1999/xlink">
    <title>Headwear/ 2</title>
    <g id="Headwear/-2" stroke="none" stroke-width="1" fill="none" fill-rule="evenodd" stroke-linecap="round" stroke-linejoin="round">
        <g id="Group" transform="translate(141.000000, 97.000000)" stroke="#555555" stroke-width="12">
            <path d="M417.239466,354.957723 L475.239466,313.494688 C479.874443,385.907324 482.618444,439.657779 483.471469,474.746054 C484.324493,509.834329 463.54211,559.105498 421.12432,622.559562 L408.530821,608.01983 C434.38095,555.096465 445.395195,513.896172 441.573556,484.418949 C437.751917,454.941727 429.640554,411.787985 417.239466,354.957723 Z" id="Path" fill="#000000" transform="translate(446.013757, 468.027125) rotate(13.000000) translate(-446.013757, -468.027125) "></path>
            <path d="M335.05188,660.109638 C329.406722,670.44254 319.253929,687.046518 304.593499,709.921571 C305.080145,705.529982 305.014564,702.977545 304.396757,702.26426 C303.111015,700.779816 299.109924,703.59055 298.296749,702.651705 C297.483575,701.712861 299.98541,696.853548 298.699669,695.369104 C298.081862,694.65582 295.848639,694.660065 292,695.38184 C303.081673,671.097294 310.440242,653.636681 314.075707,643" id="Path" fill="#000000" transform="translate(313.525940, 676.460786) rotate(13.000000) translate(-313.525940, -676.460786) "></path>
            <g id="Path">
                <path d="M23.396102,316.126627 C-20.8159513,293.743583 8.49725416,242.410685 23.396102,207.126627 C26.9958765,198.601495 21.4396036,185.257111 23.396102,180.126627 C31.222386,159.603934 48.012909,148.026959 52.396102,139.126627 C55.4708363,132.883199 67.9252263,127.685924 70.396102,123.126627 C89.7117614,87.485087 98.1460634,77.4472238 118.396102,57.1266275 C161.514279,13.8582127 216.180946,-2.47512068 282.396102,8.12662745 C298.907644,-0.651609366 318.240978,-2.31827603 340.396102,3.12662745 C362.551227,8.57153094 382.551227,18.2381976 400.396102,32.1266275 C417.39883,19.0518032 434.39883,19.0518032 451.396102,32.1266275 C468.393374,45.2014517 477.393374,65.2014517 478.396102,92.1266275 C485.062769,85.4599608 494.729435,82.1266275 507.396102,82.1266275 C526.396102,82.1266275 551.015774,126.324033 561.396102,157.126627 C585.78559,229.500016 574.054496,304.429497 575.396102,316.126627 C578.265007,341.139888 546.779127,357.990096 531.396102,360.126627 C516.013078,362.263159 524.396102,335.126627 499.396102,335.126627 C474.396102,335.126627 476.396102,358.126627 416.396102,374.126627 C356.396102,390.126627 78.2904191,343.917735 23.396102,316.126627 Z" fill="#000000"></path>
                <path d="M106.396102,305.126627 C153.542268,223.811373 196.875602,162.144706 236.396102,120.126627 C275.916602,78.108549 322.249936,44.4418823 375.396102,19.1266275"></path>
                <path d="M95.396102,254.126627 C114.461199,176.95457 137.461199,119.621236 164.396102,82.1266275 C191.331005,44.6320185 226.997671,20.2986852 271.396102,9.12662745"></path>
                <path d="M156,271.082316 C187.8758,203.842697 224.209133,155.842697 265,127.082316 C305.790867,98.3219351 341.791055,95.3219351 373.000566,118.082316"></path>
                <path d="M436.396102,52.1266275 C442.317539,61.2247693 421.984205,83.891436 375.396102,120.126627 C328.807999,156.361819 253.141332,208.361819 148.396102,276.126627"></path>
                <path d="M212.396102,261.126627 C342.296539,196.279386 417.296539,157.61272 437.396102,145.126627 C457.495665,132.640535 470.495665,116.640535 476.396102,97.1266275"></path>
                <path d="M112.396102,92.1266275 C97.4826975,146.83013 87.4826975,186.496797 82.396102,211.126627 C77.3095065,235.756458 74.6428399,257.423125 74.396102,276.126627"></path>
                <path d="M241,359.428571 C308.801126,346.329007 359.13446,335.329007 392,326.428571 C418.817675,319.16598 479.078434,291.431526 501,288.428571 C549.666667,281.761905 571.333333,298.428571 566,338.428571"></path>
                <path d="M101.396102,337.126627 C175.975693,339.511 232.64236,335.844333 271.396102,326.126627 C299.647139,319.042531 331.294881,298.390644 375.396102,276.126627 C386.326252,270.608661 405.326252,263.275328 432.396102,254.126627"></path>
                <path d="M222.396102,47.1266275 C232.504081,51.7961588 228.170747,71.7961588 209.396102,107.126627 C190.621457,142.457096 158.288124,191.457096 112.396102,254.126627"></path>
            </g>
            <path d="M295.083551,600.243174 L440.860553,592.093298 C451.726425,591.485826 461.083696,599.677932 461.918071,610.528738 L462.174703,613.866162 C463.021564,624.879346 454.780132,634.493811 443.766949,635.340672 C443.600193,635.353495 443.433282,635.364226 443.266257,635.372861 L307.772535,642.37833 C300.375154,642.760799 293.372174,639.023457 289.572183,632.665187 L283.374369,622.2948 C279.240708,615.378223 281.496707,606.420236 288.413284,602.286575 C290.43875,601.076064 292.727601,600.374887 295.083551,600.243174 Z" id="Rectangle" fill="#000000" transform="translate(367.373520, 617.000000) rotate(-45.000000) translate(-367.373520, -617.000000) "></path>
        </g>
    </g>
</svg>