<?xml version="1.0" encoding="UTF-8"?>
<svg width="860px" height="860px" viewBox="0 0 860 860" version="1.1" xmlns="http://www.w3.org/2000/svg" xmlns:xlink="http://www.w3.org/1999/xlink">
    <title>Headwear/ 3</title>
    <g id="Headwear/-3" stroke="none" stroke-width="1" fill="none" fill-rule="evenodd" stroke-linecap="round" stroke-linejoin="round">
        <g id="Group" transform="translate(56.617638, 99.000000)">
            <path d="M301.470532,0 L424.50698,0 C501.550702,-1.41527022e-14 564.00698,62.4562774 564.00698,139.5 L564.00698,241 L564.00698,241 L192.00698,241 L279.079829,15.3596044 C282.651471,6.10406003 291.54976,2.66914121e-14 301.470532,0 Z" id="Rectangle" stroke="#000000" stroke-width="12" fill="#90785C"></path>
            <path d="M374,302.052042 C578.345357,302.052042 744,272.217384 744,218.168547 C744,202.090877 578.345357,194.052042 374,194.052042 C169.654643,194.052042 4,198.945246 4,218.168547 C4,272.217384 169.654643,302.052042 374,302.052042 Z" id="Oval" stroke="#000000" stroke-width="12" fill="#90785C" transform="translate(374.000000, 248.052042) rotate(6.000000) translate(-374.000000, -248.052042) "></path>
            <path d="M294.382362,160 C331.299444,162.841124 372.632777,167.674457 418.382362,174.5 C464.131946,181.325543 505.465279,188.825543 542.382362,197" id="Path" stroke="#632121" stroke-width="16" transform="translate(418.382362, 178.500000) rotate(-2.000000) translate(-418.382362, -178.500000) "></path>
            <path d="M352.382362,137 C380.66561,139.841124 412.332277,144.674457 447.382362,151.5 C482.432446,158.325543 514.099113,165.825543 542.382362,174" id="Path" stroke="#632121" stroke-width="16" transform="translate(447.382362, 155.500000) rotate(-3.000000) translate(-447.382362, -155.500000) "></path>
        </g>
    </g>
</svg>