<?xml version="1.0" encoding="UTF-8"?>
<svg width="860px" height="860px" viewBox="0 0 860 860" version="1.1" xmlns="http://www.w3.org/2000/svg" xmlns:xlink="http://www.w3.org/1999/xlink">
    <title>Headwear/ 4</title>
    <g id="Headwear/-4" stroke="none" stroke-width="1" fill="none" fill-rule="evenodd" stroke-linecap="round" stroke-linejoin="round">
        <g id="Group" transform="translate(47.739130, 171.993080)" stroke="#000000" stroke-width="12">
            <path d="M22.2608696,216.00692 C0.927536232,222.00692 -5.07246377,229.00692 4.26086957,237.00692 C13.5942029,245.00692 32.2608696,245.00692 60.2608696,237.00692 L22.2608696,216.00692 Z" id="Path" fill="#888888"></path>
            <path d="M13.2608696,219.00692 L149.26087,175.00692 L401.26087,266.00692 C327.078522,304.287581 263.745188,320.620915 211.26087,315.00692 C168.142989,310.394809 110.26087,271.00692 59.2608696,234.00692 C50.5927552,227.718288 35.2594219,222.718288 13.2608696,219.00692 Z" id="Path" fill="#FF3838"></path>
            <path d="M149.26087,175.00692 C191.26087,39.6735871 278.927536,-13.9930796 412.26087,14.0069204 C545.594203,42.0069204 602.927536,121.340254 584.26087,252.00692 C562.418363,265.441138 539.08503,273.107804 514.26087,275.00692 C489.436709,276.906037 451.770043,273.906037 401.26087,266.00692 C336.360805,250.755971 289.027471,237.755971 259.26087,227.00692 C229.494268,216.25787 192.827601,198.924536 149.26087,175.00692 Z" id="Path" fill="#FF3838"></path>
            <ellipse id="Oval" fill="#FF3838" transform="translate(434.113822, 19.421735) rotate(-345.000000) translate(-434.113822, -19.421735) " cx="434.113822" cy="19.421735" rx="24.5" ry="13.5"></ellipse>
        </g>
    </g>
</svg>