<?xml version="1.0" encoding="UTF-8"?>
<svg width="860px" height="860px" viewBox="0 0 860 860" version="1.1" xmlns="http://www.w3.org/2000/svg" xmlns:xlink="http://www.w3.org/1999/xlink">
    <title>Headwear/ 6</title>
    <g id="Headwear/-6" stroke="none" stroke-width="1" fill="none" fill-rule="evenodd" stroke-linecap="round" stroke-linejoin="round">
        <g id="Group" transform="translate(184.558621, 137.448198)" stroke="#000000">
            <path d="M4.39744814,307.064047 C-20.5752363,72.9282415 72.6821322,-27.0704055 284.169554,7.06810541 C518.288471,54.6505432 493.705984,227.080234 485.511822,276.70192 C480.049048,309.783043 461.319534,361.066337 429.323282,430.551802 C386.401481,366.353275 320.067788,316.882645 230.322203,282.139912 C140.576618,247.39718 65.2683665,255.705225 4.39744814,307.064047 Z" id="Path" stroke-width="12" fill="#7B716F"></path>
            <path d="M1.9576373,268.115163 C-4.28048004,212.869694 46.014341,186.760535 152.8421,189.787684 C259.66986,192.814832 359.869619,253.736205 453.441379,372.551802" id="Path" stroke-width="4"></path>
            <path d="M0.958326128,214.768892 C-5.28811458,159.76692 45.0738136,133.772837 152.044111,136.786644 C259.014408,139.800451 364.813497,203.388837 469.441379,327.551802" id="Path" stroke-width="4"></path>
            <path d="M11.9577931,170.611753 C5.7177931,115.720281 56.0277931,89.7784201 162.887793,92.7861721 C269.747793,95.793924 375.265655,160.382467 479.441379,286.551802" id="Path" stroke-width="4"></path>
            <path d="M22.4413793,111.103418 C27.4708411,71.9269314 83.4707205,53.8515212 190.441018,56.8771877 C297.411315,59.9028542 397.744769,120.794392 491.441379,239.551802" id="Path" stroke-width="4"></path>
            <path d="M50.4413793,61.5780272 C70.0266219,35.6206823 116.871718,23.6902806 190.976666,25.786822 C297.584312,28.8029139 397.06242,71.1701926 490.441379,189.551802" id="Path" stroke-width="4"></path>
        </g>
    </g>
</svg>