<?xml version="1.0" encoding="UTF-8"?>
<svg width="860px" height="860px" viewBox="0 0 860 860" version="1.1" xmlns="http://www.w3.org/2000/svg" xmlns:xlink="http://www.w3.org/1999/xlink">
    <title>Headwear/ 7</title>
    <g id="Headwear/-7" stroke="none" stroke-width="1" fill="none" fill-rule="evenodd" stroke-linecap="round" stroke-linejoin="round">
        <g id="Group" transform="translate(204.000000, 125.000000)" stroke="#000000">
            <path d="M290.607369,48.5497614 L341.558191,50.205721 C347.48186,50.3982469 352.241232,55.1515976 352.441257,61.0750184 C352.624992,66.5160641 348.3631,71.0758503 342.922055,71.2595859 C342.704488,71.2669328 342.486737,71.2670706 342.269161,71.2599991 L291.318339,69.6040396 C285.394669,69.4115136 280.635298,64.658163 280.435273,58.7347422 C280.251537,53.2936965 284.513429,48.7339103 289.954475,48.5501747 C290.172042,48.5428278 290.389793,48.54269 290.607369,48.5497614 Z" id="Rectangle" stroke-width="12" fill="#E37C55" transform="translate(316.438265, 59.904880) rotate(-30.000000) translate(-316.438265, -59.904880) "></path>
            <path d="M7.46900925,147.67857 C123.17236,164.32552 212.579494,188.721911 275.690412,220.867745 C338.801331,253.013578 379.32844,283.72433 397.27174,313 C463.476331,310.129836 495.341158,296.35305 492.86622,271.669643 C489.153813,234.644531 385.411389,82.548087 291.468142,30.5758908 C197.524895,-21.3963055 71.5080293,4.74441736 43.6649771,22.8264487 C15.8219249,40.9084801 10.2533145,61.5736589 2.82850054,88.2661814 C-2.12137541,106.061196 -0.574539173,125.865326 7.46900925,147.67857 Z" id="Path" stroke-width="12" fill="#E37C55"></path>
            <path d="M0,154 C110.387597,169.48 197.829457,191.84 262.325581,221.08 C326.821705,250.32 372.713178,285.293333 400,326" id="Path" stroke-width="24"></path>
        </g>
    </g>
</svg>