<?xml version="1.0" encoding="UTF-8"?>
<svg width="860px" height="860px" viewBox="0 0 860 860" version="1.1" xmlns="http://www.w3.org/2000/svg" xmlns:xlink="http://www.w3.org/1999/xlink">
    <title>Headwear/ 9</title>
    <g id="Headwear/-9" stroke="none" stroke-width="1" fill="none" fill-rule="evenodd">
        <g id="Group" transform="translate(471.864187, 248.106109) rotate(14.000000) translate(-471.864187, -248.106109) translate(251.864187, 48.106109)">
            <path d="M26.2823994,283.765593 C39.5382638,249.131524 48.19003,223.918577 52.2376981,208.126752 C65.4505127,156.57745 52.890229,124.610536 71.2050318,100.639977 C86.4388491,80.7018371 105.896361,67.4354248 124.11391,52.8680778 C153.845809,29.0934796 185.502039,9.0246078 228.933385,4.10093019 C298.976306,-3.83961945 343.977443,-1.21133488 380.672054,52.8680778 C403.632511,86.7065067 396.122721,118.112466 403.632511,175.283571 C405.341949,188.297307 419.742342,206.5855 424.596406,231.017454 C426.646515,241.336264 424.649954,258.918978 418.606722,283.765593 L26.2823994,283.765593 Z" id="Path" stroke="#000000" stroke-width="12" fill="#D8D8D8" stroke-linecap="round" stroke-linejoin="round"></path>
            <path d="M12.7939666,262.840043 C81.7516586,247.973571 150.709351,240.540335 219.667042,240.540335 C288.624734,240.540335 357.582426,247.973571 426.540117,262.840043 C433.907974,264.428466 439.168176,270.943561 439.168176,278.480696 L439.168176,379.663558 C439.168178,388.500115 432.004733,395.663559 423.168176,395.663559 C422.070054,395.663559 420.974848,395.550509 419.899879,395.326198 C353.1556,381.39878 286.411321,374.435072 219.667042,374.435072 C152.922763,374.435072 86.1784843,381.39878 19.4342052,395.326198 C10.7839689,397.131228 2.30830073,391.582092 0.503270387,382.931856 C0.278958489,381.856887 0.165908658,380.761682 0.165908658,379.663559 L0.165908658,278.480697 C0.165907735,270.943562 5.42610996,264.428467 12.7939666,262.840043 Z" id="Rectangle" stroke="#000000" stroke-width="12" fill="#D8D8D8" stroke-linecap="round" stroke-linejoin="round"></path>
            <path d="M85.80583,282.025629 L85.8037139,326.593277 C85.8035041,331.011555 89.385056,334.593447 93.803334,334.593657 C94.1408351,334.593673 94.4779991,334.572332 94.8128046,334.52976 L180.581946,323.62405 C184.57776,323.115975 187.572664,319.716313 187.572855,315.688327 L187.574971,271.120679 C187.575181,266.702401 183.993629,263.120509 179.575351,263.120299 C179.23785,263.120283 178.900686,263.141624 178.56588,263.184195 L92.7967393,274.089906 C88.8009252,274.597981 85.8060213,277.997643 85.80583,282.025629 Z" id="Path" fill="#000000" transform="translate(136.689342, 298.856978) rotate(1.000000) translate(-136.689342, -298.856978) "></path>
        </g>
    </g>
</svg>