<?xml version="1.0" encoding="UTF-8"?>
<svg width="200px" height="200px" viewBox="0 0 200 200" version="1.1" xmlns="http://www.w3.org/2000/svg" xmlns:xlink="http://www.w3.org/1999/xlink">
    <title>blvcksaigon-logo</title>
    <g id="blvcksaigon-logo" stroke="none" stroke-width="1" fill="none" fill-rule="evenodd">
        <g id="Group-3" transform="translate(10.000000, 35.000000)" fill="#000000">
            <g id="Group-2" transform="translate(0.000000, 53.285714)" fill-rule="nonzero">
                <g id="Group">
                    <path d="M17.8407947,41.0432784 L0,41.0432784 L0,0.698965913 L17.5336762,0.698965913 C25.09996,0.698965913 29.8463373,4.58521639 29.8463373,10.7640751 C29.8463373,15.1815396 26.5517931,18.8720797 22.2800535,19.5151283 L22.2800535,19.7387974 C27.7523473,20.1581769 31.7728081,24.156262 31.7728081,29.4963615 C31.7728081,36.5978552 26.4401136,41.0432784 17.8407947,41.0432784 Z M8.43179969,6.98965913 L8.43179969,17.4741478 L14.4904107,17.4741478 C18.9855092,17.4741478 21.554137,15.4890846 21.554137,12.078131 C21.554137,8.83492915 19.2926278,6.98965913 15.3559266,6.98965913 L8.43179969,6.98965913 Z M8.43179969,34.7525852 L15.690965,34.7525852 C20.5490218,34.7525852 23.1734892,32.6836461 23.1734892,28.8253543 C23.1734892,25.0509383 20.4652622,23.0379165 15.4955259,23.0379165 L8.43179969,23.0379165 L8.43179969,34.7525852 Z M63.2595927,34.0536193 L63.2595927,41.0432784 L37.2103572,41.0432784 L37.2103572,0.698965913 L45.6421569,0.698965913 L45.6421569,34.0536193 L63.2595927,34.0536193 Z M86.6775359,41.0432784 L76.5147045,41.0432784 L62.9735692,0.698965913 L72.4104841,0.698965913 L81.62404,32.3481425 L81.8194791,32.3481425 L91.0330351,0.698965913 L100.218671,0.698965913 L86.6775359,41.0432784 Z M122.212701,41.7142857 C110.486357,41.7142857 103.143432,33.8858675 103.143432,20.8571429 C103.143432,7.85637687 110.542197,0 122.212701,0 C131.900895,0 139.27174,6.15090004 139.913897,15.1815396 L131.705456,15.1815396 C130.923699,10.232861 127.126598,6.98965913 122.212701,6.98965913 C115.846972,6.98965913 111.742751,12.3297587 111.742751,20.8291842 C111.742751,29.4404443 115.791132,34.7525852 122.240621,34.7525852 C127.238277,34.7525852 130.83994,31.8169284 131.733376,27.0360015 L139.941816,27.0360015 C138.992541,36.0386825 132.096334,41.7142857 122.212701,41.7142857 Z M154.202043,41.0432784 L145.770244,41.0432784 L145.770244,0.698965913 L154.202043,0.698965913 L154.202043,19.0957488 L154.453322,19.0957488 L169.58589,0.698965913 L178.966965,0.698965913 L164.057756,18.5924933 L180,41.0432784 L169.920928,41.0432784 L157.971225,24.1842206 L154.202043,28.7135197 L154.202043,41.0432784 Z" id="BLVCK"></path>
                    <path d="M54.2857143,73.6160714 L55.9556362,73.6160714 C56.0669643,74.3250558 56.781808,74.7469308 57.7427455,74.7469308 C58.6861049,74.7469308 59.3306362,74.2898996 59.3306362,73.6688058 C59.3306362,73.1121652 58.9321987,72.7957589 57.8716518,72.5789621 L56.9810268,72.4031808 C55.2935268,72.0691964 54.4673549,71.2606027 54.4673549,70.0008371 C54.4673549,68.4539621 55.8150112,67.4285714 57.6958705,67.4285714 C59.6704799,67.4285714 60.9126674,68.4598214 60.9419643,70.0125558 L59.2720424,70.0125558 C59.2134487,69.2918527 58.5864955,68.8582589 57.6958705,68.8582589 C56.8228237,68.8582589 56.2368862,69.2684152 56.2368862,69.8895089 C56.2368862,70.4109933 56.6470424,70.7332589 57.6431362,70.9324777 L58.5396205,71.1141183 C60.3267299,71.4715402 61.1060268,72.1922433 61.1060268,73.4754464 C61.1060268,75.1277902 59.8111049,76.1707589 57.6958705,76.1707589 C55.6802455,76.1707589 54.3384487,75.2098214 54.2857143,73.6160714 Z M72.9740513,76.0301339 L72.3295201,73.9793527 L69.358817,73.9793527 L68.7142857,76.0301339 L66.8978795,76.0301339 L69.8334263,67.5750558 L71.9135045,67.5750558 L74.8549107,76.0301339 L72.9740513,76.0301339 Z M70.8236607,69.1922433 L69.7396763,72.6551339 L71.9486607,72.6551339 L70.8646763,69.1922433 L70.8236607,69.1922433 Z M82.9143415,76.0301339 L81.1448103,76.0301339 L81.1448103,67.5750558 L82.9143415,67.5750558 L82.9143415,76.0301339 Z M97.3077567,72.4793527 C97.3077567,74.7820871 95.9132254,76.1707589 93.5577567,76.1707589 C91.0323661,76.1707589 89.4854911,74.5242746 89.4854911,71.7762277 C89.4854911,69.0691964 91.0323661,67.4285714 93.5167411,67.4285714 C95.4913504,67.4285714 96.9796317,68.5945871 97.2315848,70.3055246 L95.4561942,70.3055246 C95.1983817,69.4207589 94.4776786,68.8934152 93.5226004,68.8934152 C92.1280692,68.8934152 91.2901786,69.9539621 91.2901786,71.7527902 C91.2901786,73.5867746 92.1808036,74.7059152 93.5870536,74.7059152 C94.7413504,74.7059152 95.5440848,73.9969308 95.5792411,72.9481027 L95.5851004,72.8133371 L93.7452567,72.8133371 L93.7452567,71.5242746 L97.3077567,71.5242746 L97.3077567,72.4793527 Z M107.716797,67.4285714 C110.21875,67.4285714 111.794922,69.1102121 111.794922,71.8055246 C111.794922,74.4949777 110.21875,76.1707589 107.716797,76.1707589 C105.208984,76.1707589 103.638672,74.4949777 103.638672,71.8055246 C103.638672,69.1102121 105.208984,67.4285714 107.716797,67.4285714 Z M107.716797,68.9051339 C106.333984,68.9051339 105.443359,70.0301339 105.443359,71.8055246 C105.443359,73.5750558 106.328125,74.6941964 107.716797,74.6941964 C109.099609,74.6941964 109.984375,73.5750558 109.984375,71.8055246 C109.984375,70.0301339 109.099609,68.9051339 107.716797,68.9051339 Z M120.053571,76.0301339 L118.360212,76.0301339 L118.360212,67.5750558 L119.836775,67.5750558 L123.785993,73.0828683 L123.832868,73.0828683 L123.832868,67.5750558 L125.526228,67.5750558 L125.526228,76.0301339 L124.061384,76.0301339 L120.106306,70.4930246 L120.053571,70.4930246 L120.053571,76.0301339 Z" id="SAIGON"></path>
                </g>
            </g>
            <polygon id="Polygon" transform="translate(90.000000, 21.428571) rotate(-360.000000) translate(-90.000000, -21.428571) " points="90 0 108.557687 32.1428571 71.4423128 32.1428571"></polygon>
        </g>
    </g>
</svg>