<?xml version="1.0" encoding="UTF-8"?>
<svg width="105px" height="105px" viewBox="0 0 105 105" version="1.1" xmlns="http://www.w3.org/2000/svg" xmlns:xlink="http://www.w3.org/1999/xlink">
    <title>Group 12</title>
    <defs>
        <polygon id="path-1" points="0 0 105 0 105 105 0 105"></polygon>
    </defs>
    <g id="Feature-Images" stroke="none" stroke-width="1" fill="none" fill-rule="evenodd">
        <g id="changevn-feature-img" transform="translate(-485.000000, -209.000000)">
            <g id="Group-12" transform="translate(485.000000, 209.000000)">
                <g id="Group-3">
                    <mask id="mask-2" fill="white">
                        <use xlink:href="#path-1"></use>
                    </mask>
                    <g id="Clip-2"></g>
                    <path d="M86.973049,46.0513849 C81.4846904,46.0520026 75.9957146,45.997647 70.5085904,46.0933869 C69.2384856,46.1156233 68.873747,45.6573071 68.5923244,44.5578425 C66.46746,36.263679 62.0708485,29.6613321 54.3230858,25.5420458 C53.1066735,24.8953382 52.1253972,24.9293104 50.9435455,25.5543993 C42.9316405,29.7966033 38.3930833,36.6225492 36.6125914,45.2749652 C34.4068798,55.9947454 36.5687734,65.7540381 43.9289628,74.1112047 C45.9316305,76.3842552 48.3780326,78.1013966 51.0620393,79.5115526 C52.1864955,80.1020516 53.1362969,80.127994 54.2909937,79.5288475 C62.041225,75.5022128 66.3545207,68.889983 68.5386319,60.7026776 C68.8891759,59.3876438 69.3168642,58.9101797 70.7789042,58.9206802 C81.6969917,59.0015958 92.6163134,58.9812125 103.535018,58.9410635 C104.71687,58.9367398 105.139004,59.1300726 104.938428,60.443871 C103.547361,69.56078 100.6887,78.1328981 95.2885942,85.6833788 C86.4984569,97.9720579 74.8508923,105.0809 59.3454924,104.948717 C53.3967363,104.898067 47.4220596,105.198258 41.5047784,104.746119 C29.6368895,103.838752 20.1382583,98.1369776 12.702776,89.0676297 C2.86902973,77.0723471 -0.925238636,63.1208821 0.187491661,47.7981748 C1.10334954,35.1883037 5.47465775,23.8947019 14.0031214,14.4343646 C22.4988759,5.00985266 33.0417331,-0.119952827 45.9199046,0.0752330292 C52.2130332,0.170972927 58.5197392,-0.292284642 64.7968217,0.337127975 C74.6219278,1.32232241 82.8319396,5.72203396 89.7113653,12.6338369 C98.5872872,21.5512363 103.161639,32.5483533 104.9662,44.8382677 C105.123575,45.9111723 104.731681,46.0742389 103.784349,46.0680622 C98.1805821,46.0316192 92.5768155,46.0501495 86.973049,46.0513849" id="Fill-1" fill="#000000" mask="url(#mask-2)"></path>
                </g>
                <path d="M84.1024146,41.5753285 C80.3655417,41.5753285 76.6169428,41.5308558 72.8701953,41.6018886 C71.7303102,41.6235073 71.7475906,40.8322634 71.5217119,40.1732022 C69.1506027,33.2786943 65.2347548,27.4935337 59.1372643,23.3699237 C48.3784029,16.0949268 34.873202,17.6496192 25.9145814,27.0759843 C19.1339004,34.2101508 16.0036908,42.8242709 16.0222054,52.5057364 C16.0481259,65.6665751 19.7924047,77.6945946 27.9863704,88.1703925 C31.4652726,92.6182828 35.6051478,96.3379322 40.4732657,99.2348362 C40.9552636,99.5214383 41.5372407,99.6931524 41.853224,100.23362 C35.0207021,100.176176 26.2891944,96.4064944 20.0867876,90.6874253 C10.9781983,82.2882567 5.96875197,71.7741629 4.44931659,59.5818414 C2.99036239,47.8842789 4.79739195,36.7142124 10.6159284,26.3712151 C16.8066093,15.3673036 25.6319245,7.59754767 38.366916,5.17069568 C49.375108,3.07368309 59.1983627,6.09350476 67.7700272,13.0559572 C76.717539,20.3241596 81.7985754,29.9617701 84.151787,41.1262775 C84.1740046,41.2325179 84.1289523,41.3529649 84.1024146,41.5753285" id="Fill-4" fill="#FEFEFE"></path>
                <path d="M45.6465667,23.2117985 C38.213553,29.1007287 33.8835941,36.6493563 32.412914,45.7570001 C30.512694,57.5249778 32.9319413,68.3145554 41.1345471,77.2461613 C52.6068397,89.7386738 70.1852629,89.1333505 81.0638525,76.1133421 C83.8651186,72.759975 85.9572737,69.0038826 87.2878597,64.8512418 C87.6137175,63.8326928 87.9759874,63.3743767 89.1473474,63.4083489 C92.4374002,63.5040888 95.7323903,63.4608514 99.0249117,63.4281145 C99.8512821,63.4200847 100.332046,63.4911176 100.087652,64.5281968 C97.0722336,77.3023699 90.8840213,88.0110319 79.4481409,95.0068388 C65.1869253,103.731523 48.2626863,101.933466 35.9979668,90.5750081 C26.7653294,82.023891 21.8577136,71.292375 20.3814791,58.8986909 C19.5717718,52.0968344 19.9019497,45.4197486 22.8031949,39.0922679 C26.6326411,30.7431312 32.6344726,24.980207 42.0479364,23.4693697 C43.2304052,23.2797429 44.4462004,23.2927141 45.6465667,23.2117985" id="Fill-6" fill="#FEFEFE"></path>
                <path d="M63.4506217,4.55271009 C78.6005404,6.52309895 88.7990252,14.9167084 95.6155011,27.9052153 C97.626809,31.7366642 98.99319,35.8188899 99.9763177,40.0394752 C100.255272,41.2377681 100.143567,41.6435818 98.7944661,41.6015798 C95.7944761,41.5089282 92.7883145,41.5120166 89.7895588,41.6052858 C88.615113,41.6417287 88.2411172,41.2291207 88.0220272,40.1358328 C86.0761378,30.4024824 81.9436685,21.7265947 75.2888871,14.30212 C72.1876837,10.8431302 68.6322543,7.93387266 64.6219817,5.57867118 C64.2387285,5.35383684 63.7591992,5.23647826 63.4506217,4.55271009" id="Fill-8" fill="#FEFEFE"></path>
                <path d="M83.3972534,63.4413328 C80.7360815,72.6274216 71.4485173,82.3539775 59.3541326,81.6776215 C61.3506287,80.0444841 63.2125851,78.5534124 64.770284,76.752267 C67.8159435,73.2296564 70.1117598,69.2715838 71.4892495,64.8224581 C71.8144902,63.7724076 72.2606932,63.3808005 73.3999611,63.4110667 C76.6838424,63.4975414 79.9714266,63.4413328 83.3972534,63.4413328" id="Fill-10" fill="#FEFEFE"></path>
            </g>
        </g>
    </g>
</svg>