<?xml version="1.0" encoding="UTF-8"?>
<svg width="450px" height="450px" viewBox="0 0 450 450" version="1.1" xmlns="http://www.w3.org/2000/svg" xmlns:xlink="http://www.w3.org/1999/xlink">
    <title>congdongtheuvitinhvietnam-logo</title>
    <g id="Logo" stroke="none" stroke-width="1" fill="none" fill-rule="evenodd">
        <g id="Artboard" transform="translate(-25.000000, -25.000000)">
            <g id="congdongtheuvitinhvietnam-logo" transform="translate(25.000000, 25.000000)">
                <path d="M130.758145,-1.25374587e-14 L319.241855,5.28278557e-15 C364.709311,-3.06945055e-15 381.196909,4.73410617 397.819131,13.6237679 C414.441353,22.5134296 427.48657,35.5586469 436.376232,52.1808691 C445.265894,68.8030913 450,85.2906895 450,130.758145 L450,319.241855 C450,364.709311 445.265894,381.196909 436.376232,397.819131 C427.48657,414.441353 414.441353,427.48657 397.819131,436.376232 C381.196909,445.265894 364.709311,450 319.241855,450 L130.758145,450 C85.2906895,450 68.8030913,445.265894 52.1808691,436.376232 C35.5586469,427.48657 22.5134296,414.441353 13.6237679,397.819131 C4.73410617,381.196909 6.26147436e-15,364.709311 -1.07765302e-14,319.241855 L3.52185705e-15,130.758145 C-2.04630037e-15,85.2906895 4.73410617,68.8030913 13.6237679,52.1808691 C22.5134296,35.5586469 35.5586469,22.5134296 52.1808691,13.6237679 C68.8030913,4.73410617 85.2906895,7.28462455e-15 130.758145,-1.25374587e-14 Z" id="Rectangle" fill="#0606FF"></path>
                <path d="M118.454039,30 L331.545961,30 C362.303357,30 373.456732,33.2024836 384.701177,39.2160783 C395.945621,45.229673 404.770327,54.0543788 410.783922,65.2988232 C416.797516,76.5432677 420,87.6966429 420,118.454039 L420,331.545961 C420,362.303357 416.797516,373.456732 410.783922,384.701177 C404.770327,395.945621 395.945621,404.770327 384.701177,410.783922 C373.456732,416.797516 362.303357,420 331.545961,420 L118.454039,420 C87.6966429,420 76.5432677,416.797516 65.2988232,410.783922 C54.0543788,404.770327 45.229673,395.945621 39.2160783,384.701177 C33.2024836,373.456732 30,362.303357 30,331.545961 L30,118.454039 C30,87.6966429 33.2024836,76.5432677 39.2160783,65.2988232 C45.229673,54.0543788 54.0543788,45.229673 65.2988232,39.2160783 C76.5432677,33.2024836 87.6966429,30 118.454039,30 Z" id="Rectangle-Copy" stroke="#FFFFFF" stroke-width="14" stroke-linecap="round" stroke-linejoin="round" stroke-dasharray="23,30"></path>
                <path d="M191.717188,94.0049085 C188.650822,94.29412 186.31172,96.8771218 186.325,99.9593424 L186.325,105.913776 L174.425,105.913776 L174.425,102.936559 C174.450197,101.325072 173.821624,99.7721793 172.682839,98.6325462 C171.544055,97.4929131 169.992319,96.8638713 168.382031,96.8890874 C166.803982,96.913728 165.300351,97.564722 164.201937,98.6988507 C163.103523,99.8329793 162.500308,101.357335 162.525,102.936559 L162.525,120.799861 C162.494653,122.947244 163.622033,124.944632 165.475443,126.027185 C167.328854,127.109739 169.621146,127.109739 171.474557,126.027185 C173.327967,124.944632 174.455347,122.947244 174.425,120.799861 L174.425,117.822644 L186.325,117.822644 L186.325,124.707458 C139.65561,140.816289 106,184.80305 106,236.911322 C106,302.611655 159.34859,356 225,356 C290.65141,356 344,302.611655 344,236.911322 C344,184.80305 310.34439,140.816289 263.675,124.707458 L263.675,117.822644 L275.575,117.822644 L275.575,120.799861 C275.544653,122.947244 276.672033,124.944632 278.525443,126.027185 C280.378854,127.109739 282.671146,127.109739 284.524557,126.027185 C286.377967,124.944632 287.505347,122.947244 287.475,120.799861 L287.475,102.936559 C287.500197,101.325072 286.871624,99.7721793 285.732839,98.6325462 C284.594055,97.4929131 283.042319,96.8638713 281.432031,96.8890874 C279.853982,96.913728 278.350351,97.564722 277.251937,98.6988507 C276.153523,99.8329793 275.550308,101.357335 275.575,102.936559 L275.575,105.913776 L263.675,105.913776 L263.675,99.9593424 C263.674671,96.6709356 261.010958,94.0052373 257.725,94.0049085 L236.9,94.0049085 C233.614042,94.0052373 230.950329,96.6709356 230.95,99.9593424 L230.95,145.361901 C230.973468,148.344885 233.198796,150.850244 236.15625,151.223297 C278.533352,156.699816 311.275,192.948954 311.275,236.911322 C311.275,284.665724 272.718842,323.250614 225,323.250614 C177.281158,323.250614 138.725,284.665724 138.725,236.911322 C138.725,192.948954 171.466648,156.699816 213.84375,151.223297 C216.801204,150.850244 219.026532,148.344885 219.05,145.361901 L219.05,99.9593424 C219.049671,96.6709356 216.385958,94.0052373 213.1,94.0049085 L192.275,94.0049085 C192.089165,93.9983638 191.903023,93.9983638 191.717188,94.0049085 Z M198.225,105.913776 L207.15,105.913776 L207.15,140.616961 C161.523758,149.083089 126.825,188.863682 126.825,236.911322 C126.825,291.101753 170.849922,335.159481 225,335.159481 C279.150078,335.159481 323.175,291.101753 323.175,236.911322 C323.175,188.863682 288.476242,149.083089 242.85,140.616961 L242.85,105.913776 L251.775,105.913776 L251.775,128.708094 C251.779853,131.311694 253.474275,133.610289 255.958594,134.383413 C299.952787,147.700579 332.1,188.477647 332.1,236.911322 C332.1,296.175627 284.220174,344.091132 225,344.091132 C165.779826,344.091132 117.9,296.175627 117.9,236.911322 C117.9,188.477647 150.047213,147.700579 194.041406,134.383413 C196.525725,133.610289 198.220147,131.311694 198.225,128.708094 L198.225,105.913776 Z" id="Shape" fill="#FFFFFF" fill-rule="nonzero"></path>
            </g>
        </g>
    </g>
</svg>