<?xml version="1.0" encoding="UTF-8"?>
<svg width="425px" height="425px" viewBox="0 0 425 425" version="1.1" xmlns="http://www.w3.org/2000/svg" xmlns:xlink="http://www.w3.org/1999/xlink">
    <title>axembroidery-feature-icon</title>
    <g id="axembroidery-feature-icon" stroke="none" stroke-width="1" fill="none" fill-rule="evenodd">
        <path d="M109.401236,3 L316.598764,3 C353.596792,3 367.013171,6.85226286 380.539097,14.0860072 C394.065023,21.3197516 404.680248,31.9349774 411.913993,45.4609033 C419.147737,58.9868292 423,72.4032081 423,109.401236 L423,316.598764 C423,353.596792 419.147737,367.013171 411.913993,380.539097 C404.680248,394.065023 394.065023,404.680248 380.539097,411.913993 C367.013171,419.147737 353.596792,423 316.598764,423 L109.401236,423 C72.4032081,423 58.9868292,419.147737 45.4609033,411.913993 C31.9349774,404.680248 21.3197516,394.065023 14.0860072,380.539097 C6.85226286,367.013171 3,353.596792 3,316.598764 L3,109.401236 C3,72.4032081 6.85226286,58.9868292 14.0860072,45.4609033 C21.3197516,31.9349774 31.9349774,21.3197516 45.4609033,14.0860072 C58.9868292,6.85226286 72.4032081,3 109.401236,3 Z" id="Rectangle" fill="#FFFFFF"></path>
        <g id="marquee" transform="translate(13.000000, 13.000000)">
            <polygon id="Path" points="0 0 400 0 400 400 0 400"></polygon>
            <path d="M66.6666667,100 C66.6666667,81.5905083 81.5905083,66.6666667 100,66.6666667 M150,66.6666667 L175,66.6666667 M225,66.6666667 L250,66.6666667 M300,66.6666667 C318.409492,66.6666667 333.333333,81.5905083 333.333333,100 M333.333333,150 L333.333333,175 M333.333333,225 L333.333333,250 M333.333333,300 C333.333333,318.409492 318.409492,333.333333 300,333.333333 M250,333.333333 L225,333.333333 M175,333.333333 L150,333.333333 M100,333.333333 C81.5905083,333.333333 66.6666667,318.409492 66.6666667,300 M66.6666667,250 L66.6666667,225 M66.6666667,175 L66.6666667,150" id="Shape" stroke="#000000" stroke-width="27" stroke-linecap="round" stroke-linejoin="round"></path>
        </g>
    </g>
</svg>