<?xml version="1.0" encoding="UTF-8"?>
<svg width="425px" height="425px" viewBox="0 0 425 425" version="1.1" xmlns="http://www.w3.org/2000/svg" xmlns:xlink="http://www.w3.org/1999/xlink">
    <title>dispo-la-gi-tai-sao-minh-thich-dispo-feature-icon</title>
    <g id="dispo-la-gi-tai-sao-minh-thich-dispo-feature-icon" stroke="none" stroke-width="1" fill="none" fill-rule="evenodd">
        <path d="M109.401236,3 L316.598764,3 C353.596792,3 367.013171,6.85226286 380.539097,14.0860072 C394.065023,21.3197516 404.680248,31.9349774 411.913993,45.4609033 C419.147737,58.9868292 423,72.4032081 423,109.401236 L423,316.598764 C423,353.596792 419.147737,367.013171 411.913993,380.539097 C404.680248,394.065023 394.065023,404.680248 380.539097,411.913993 C367.013171,419.147737 353.596792,423 316.598764,423 L109.401236,423 C72.4032081,423 58.9868292,419.147737 45.4609033,411.913993 C31.9349774,404.680248 21.3197516,394.065023 14.0860072,380.539097 C6.85226286,367.013171 3,353.596792 3,316.598764 L3,109.401236 C3,72.4032081 6.85226286,58.9868292 14.0860072,45.4609033 C21.3197516,31.9349774 31.9349774,21.3197516 45.4609033,14.0860072 C58.9868292,6.85226286 72.4032081,3 109.401236,3 Z" id="Rectangle" fill="#FFFFFF"></path>
        <g id="camera-selfie" transform="translate(13.000000, 13.000000)">
            <polygon id="Path" points="0 0 400 0 400 400 0 400"></polygon>
            <path d="M83.3333333,116.666667 L100,116.666667 C118.409492,116.666667 133.333333,101.742825 133.333333,83.3333333 C133.333333,74.1285875 140.795254,66.6666667 150,66.6666667 L250,66.6666667 C259.204746,66.6666667 266.666667,74.1285875 266.666667,83.3333333 C266.666667,101.742825 281.590508,116.666667 300,116.666667 L316.666667,116.666667 C335.076158,116.666667 350,131.590508 350,150 L350,300 C350,318.409492 335.076158,333.333333 316.666667,333.333333 L83.3333333,333.333333 C64.9238417,333.333333 50,318.409492 50,300 L50,150 C50,131.590508 64.9238417,116.666667 83.3333333,116.666667" id="Path" stroke="#000000" stroke-width="27" stroke-linecap="round" stroke-linejoin="round"></path>
            <path d="M158.333333,250 C169.305189,261.198103 184.322655,267.508504 200,267.508504 C215.677345,267.508504 230.694811,261.198103 241.666667,250" id="Path" stroke="#000000" stroke-width="27" stroke-linecap="round" stroke-linejoin="round"></path>
            <line x1="250" y1="183.333333" x2="250.166667" y2="183.333333" id="Path" stroke="#000000" stroke-width="27" stroke-linecap="round" stroke-linejoin="round"></line>
            <line x1="150" y1="183.333333" x2="150.166667" y2="183.333333" id="Path" stroke="#000000" stroke-width="27" stroke-linecap="round" stroke-linejoin="round"></line>
        </g>
    </g>
</svg>