<?xml version="1.0" encoding="UTF-8"?>
<svg width="425px" height="425px" viewBox="0 0 425 425" version="1.1" xmlns="http://www.w3.org/2000/svg" xmlns:xlink="http://www.w3.org/1999/xlink">
    <title>embvn-feature-icon</title>
    <g id="embvn-feature-icon" stroke="none" stroke-width="1" fill="none" fill-rule="evenodd">
        <path d="M109.401236,3 L316.598764,3 C353.596792,3 367.013171,6.85226286 380.539097,14.0860072 C394.065023,21.3197516 404.680248,31.9349774 411.913993,45.4609033 C419.147737,58.9868292 423,72.4032081 423,109.401236 L423,316.598764 C423,353.596792 419.147737,367.013171 411.913993,380.539097 C404.680248,394.065023 394.065023,404.680248 380.539097,411.913993 C367.013171,419.147737 353.596792,423 316.598764,423 L109.401236,423 C72.4032081,423 58.9868292,419.147737 45.4609033,411.913993 C31.9349774,404.680248 21.3197516,394.065023 14.0860072,380.539097 C6.85226286,367.013171 3,353.596792 3,316.598764 L3,109.401236 C3,72.4032081 6.85226286,58.9868292 14.0860072,45.4609033 C21.3197516,31.9349774 31.9349774,21.3197516 45.4609033,14.0860072 C58.9868292,6.85226286 72.4032081,3 109.401236,3 Z" id="Rectangle" fill="#FFFFFF"></path>
        <g id="pacman" transform="translate(13.000000, 13.000000)">
            <polygon id="Path" points="0 0 400 0 400 400 0 400"></polygon>
            <path d="M93.9333333,93.9333333 C124.117443,63.7440152 165.735089,47.846161 208.359341,50.2228361 C250.983593,52.5995112 290.575865,73.0255291 317.216667,106.383333 L223.566667,200 L317.216667,293.616667 C282.510514,336.99888 226.668769,357.645527 172.08857,347.275603 C117.508371,336.905679 73.1298479,297.217757 56.7524417,244.129961 C40.3750356,191.042166 54.6813339,133.250175 93.9333333,93.9333333 L93.9333333,93.9333333 Z" id="Path" stroke="#000000" stroke-width="27" stroke-linecap="round" stroke-linejoin="round"></path>
            <circle id="Oval" stroke="#000000" stroke-width="27" fill="#000000" fill-rule="nonzero" stroke-linecap="round" stroke-linejoin="round" cx="191.666667" cy="125" r="16.6666667"></circle>
        </g>
    </g>
</svg>