<?xml version="1.0" encoding="UTF-8"?>
<svg width="124px" height="22px" viewBox="0 0 124 22" version="1.1" xmlns="http://www.w3.org/2000/svg" xmlns:xlink="http://www.w3.org/1999/xlink">
    <title>FutureMe</title>
    <g id="Logo" stroke="none" stroke-width="1" fill="none" fill-rule="evenodd">
        <g id="Artboard" transform="translate(-1459.000000, -455.000000)" fill="#003DFF" fill-rule="nonzero">
            <g id="fm-logo_blue-7db255eb28c0ed805afb7f91e5915a2e017ada89362797900248c474194a9fe2" transform="translate(1459.000000, 455.000000)">
                <path d="M2.95585291,6.47223637 C2.95585291,3.33698421 6.58859613,2.8326541 6.99650383,2.78782476 L6.67431586,0 C4.36579474,0.240957718 0,1.90524707 0,6.47223637 L0,22 L2.95585291,22 L2.95585291,14.7320428 L7.64383562,14.7320428 L7.64383562,11.9302089 L2.95585291,11.9302089 L2.95585291,6.47223637 Z" id="Fill-18" opacity="0.6"></path>
                <path d="M56.0547945,11.4921403 L56.0547945,21.1538462 L58.9204717,21.1538462 L58.9204717,11.4921403 C58.9204717,8.40950343 62.4509859,7.88462203 62.8493151,7.84018762 L62.5140308,5.07692308 C60.2816683,5.3324209 56.0547945,6.99871108 56.0547945,11.4921403" id="Fill-20" opacity="0.6"></path>
                <path d="M30.8894531,15.518183 L30.8894531,10.1339798 L34.6444703,10.1339798 L34.6444703,7.32678321 L30.8894531,7.32678321 L30.8894531,0 L28.0273973,0 L28.0273973,15.518183 C28.0273973,20.0546127 32.2460676,21.7417379 34.4784711,22 L34.8219178,19.2124537 C34.4183679,19.1619242 30.8894531,18.631364 30.8894531,15.518183" id="Fill-22" opacity="0.6"></path>
                <path d="M48.2347255,15.6109232 C48.2347255,18.244868 46.7772899,19.1829467 45.4152006,19.1829467 C43.6798989,19.1829467 42.6419868,17.8476635 42.6419868,15.6109232 L42.6419868,5.92307692 L39.9178082,5.92307692 L39.9178082,15.6109232 C39.9178082,20.0224286 42.6801253,22 45.4152006,22 C48.0848957,22 50.9589041,19.9998922 50.9589041,15.6109232 L50.9589041,5.92307692 L48.2347255,5.92307692 L48.2347255,15.6109232 Z" id="Fill-24" opacity="0.6"></path>
                <path d="M20.2073282,15.6109232 C20.2073282,18.244868 18.7498927,19.1829467 17.3878034,19.1829467 C15.6525016,19.1829467 14.6145896,17.8476635 14.6145896,15.6109232 L14.6145896,5.92307692 L11.890411,5.92307692 L11.890411,15.6109232 C11.890411,20.0224286 14.6500039,22 17.3878034,22 C20.0574984,22 22.9315068,19.9998922 22.9315068,15.6109232 L22.9315068,5.92307692 L20.2073282,5.92307692 L20.2073282,15.6109232 Z" id="Fill-26" opacity="0.6"></path>
                <path d="M73.4657534,5.07692308 C69.4857749,5.07692308 66.2465753,8.68089034 66.2465753,13.1167529 C66.2465753,17.5498789 69.4857749,21.1538462 73.4657534,21.1538462 C75.114055,21.1538462 76.661217,20.5545532 77.9486963,19.4189067 L76.1391181,17.3665336 C75.3600701,18.0533944 74.4361465,18.4173486 73.4657534,18.4173486 C70.9919344,18.4173486 68.9800771,16.0393322 68.9800771,13.1167529 C68.9800771,10.191437 70.9919344,7.81342062 73.4657534,7.81342062 C75.5377477,7.81342062 77.2871889,9.48268412 77.7983537,11.7485041 L72.1427386,11.7485041 L72.1427386,14.4850016 L80.6849315,14.4850016 L80.6849315,13.1167529 C80.6849315,8.68089034 77.445732,5.07692308 73.4657534,5.07692308" id="Fill-30" opacity="0.6"></path>
                <path d="M99.7421196,5.92307692 C98.0534306,5.92307692 96.5520677,6.68179039 95.530039,7.85752721 C94.4418953,6.56071909 92.8716625,5.92307692 91.3537708,5.92307692 C88.2794204,5.92307692 85.7808219,8.38485997 85.7808219,11.4116424 L85.7808219,21.1538462 L88.5356162,21.1538462 L88.5356162,11.4116424 C88.5356162,7.94631283 94.1691706,6.99657576 94.1691706,12.0331417 L94.1691706,21.1134891 L94.1691706,21.1538462 L96.923965,21.1538462 L96.923965,21.1134891 L96.923965,12.0331417 L96.923965,11.4116424 C96.923965,7.94631283 102.560274,7.00195671 102.560274,12.0331417 L102.560274,21.1134891 L105.315068,21.1134891 L105.315068,12.0331417 C105.315068,7.83600342 102.425289,5.92307692 99.7421196,5.92307692" id="Fill-28"></path>
                <path d="M115.45619,14.4834005 L124,14.4834005 L124,13.1153846 C124,8.68301304 120.760187,5.07692308 116.779455,5.07692308 C112.798723,5.07692308 109.561644,8.68301304 109.561644,13.1153846 C109.561644,17.5477562 112.798723,21.1538462 116.779455,21.1538462 C118.428069,21.1538462 119.978258,20.5546552 121.263247,19.419202 L119.453326,17.3671781 C118.676864,18.0539221 117.752766,18.4150783 116.779455,18.4150783 C114.307901,18.4150783 112.295663,16.0374666 112.295663,13.1153846 C112.295663,10.1933026 114.307901,7.81295491 116.779455,7.81295491 C118.854576,7.81295491 120.601614,9.48467037 121.11561,11.7473687 L115.45619,11.7473687 L115.45619,14.4834005 Z" id="Fill-32"></path>
            </g>
        </g>
    </g>
</svg>