<?xml version="1.0" encoding="UTF-8"?>
<svg width="425px" height="425px" viewBox="0 0 425 425" version="1.1" xmlns="http://www.w3.org/2000/svg" xmlns:xlink="http://www.w3.org/1999/xlink">
    <title>how-to-export-font-files-of-adobe-fonts-on-macos-feature-icon</title>
    <g id="how-to-export-font-files-of-adobe-fonts-on-macos-feature-icon" stroke="none" stroke-width="1" fill="none" fill-rule="evenodd">
        <path d="M109.401236,3 L316.598764,3 C353.596792,3 367.013171,6.85226286 380.539097,14.0860072 C394.065023,21.3197516 404.680248,31.9349774 411.913993,45.4609033 C419.147737,58.9868292 423,72.4032081 423,109.401236 L423,316.598764 C423,353.596792 419.147737,367.013171 411.913993,380.539097 C404.680248,394.065023 394.065023,404.680248 380.539097,411.913993 C367.013171,419.147737 353.596792,423 316.598764,423 L109.401236,423 C72.4032081,423 58.9868292,419.147737 45.4609033,411.913993 C31.9349774,404.680248 21.3197516,394.065023 14.0860072,380.539097 C6.85226286,367.013171 3,353.596792 3,316.598764 L3,109.401236 C3,72.4032081 6.85226286,58.9868292 14.0860072,45.4609033 C21.3197516,31.9349774 31.9349774,21.3197516 45.4609033,14.0860072 C58.9868292,6.85226286 72.4032081,3 109.401236,3 Z" id="Rectangle" fill="#FFFFFF"></path>
        <g id="letter-case-toggle" transform="translate(13.000000, 13.000000)">
            <polygon id="Path" points="0 0 400 0 400 400 0 400"></polygon>
            <circle id="Oval" stroke="#000000" stroke-width="27" stroke-linecap="round" stroke-linejoin="round" cx="108.333333" cy="258.333333" r="58.3333333"></circle>
            <path d="M233.333333,316.666667 L233.333333,141.666667 C233.333333,109.450056 259.450056,83.3333333 291.666667,83.3333333 C323.883277,83.3333333 350,109.450056 350,141.666667 L350,316.666667" id="Path" stroke="#000000" stroke-width="27" stroke-linecap="round" stroke-linejoin="round"></path>
            <line x1="233.333333" y1="216.666667" x2="350" y2="216.666667" id="Path" stroke="#000000" stroke-width="27" stroke-linecap="round" stroke-linejoin="round"></line>
            <line x1="166.666667" y1="200" x2="166.666667" y2="316.666667" id="Path" stroke="#000000" stroke-width="27" stroke-linecap="round" stroke-linejoin="round"></line>
        </g>
    </g>
</svg>