<?xml version="1.0" encoding="UTF-8"?>
<svg width="204px" height="200px" viewBox="0 0 204 200" version="1.1" xmlns="http://www.w3.org/2000/svg" xmlns:xlink="http://www.w3.org/1999/xlink">
    <title>spotify</title>
    <defs>
        <rect id="path-1" x="0" y="0" width="204" height="200"></rect>
    </defs>
    <g id="Phong" stroke="none" stroke-width="1" fill="none" fill-rule="evenodd">
        <g id="Artboard-Copy-10" transform="translate(2.000000, 0.000000)">
            <g id="spotify" transform="translate(-2.000000, 0.000000)">
                <mask id="mask-2" fill="white">
                    <use xlink:href="#path-1"></use>
                </mask>
                <use id="Mask" fill="#FFFFFF" xlink:href="#path-1"></use>
                <g mask="url(#mask-2)" fill="#00D95F" fill-rule="nonzero" id="Shape">
                    <g transform="translate(31.000000, 29.000000)">
                        <path d="M71,0 C31.7877293,0 0,31.7877293 0,71 C0,110.212271 31.7877293,142 71,142 C110.212271,142 142,110.212271 142,71 C142,31.7877293 110.212271,0 71,0 Z M101.900171,103.040416 C100.997339,104.585093 99.3726394,105.446419 97.7037778,105.446751 C96.8716714,105.446751 96.0289394,105.232582 95.2585934,104.78266 C82.4997381,97.3262419 67.7602303,96.127889 57.6394779,96.4356954 C46.4286195,96.7767063 38.2071684,98.9897908 38.1254852,99.0123699 C35.5411737,99.718299 32.8705302,98.1975298 32.1616127,95.6135503 C31.4530272,93.0299028 32.9684837,90.3609196 35.5514671,89.6493457 C35.9220301,89.5474077 44.7690552,87.1443931 57.0716798,86.7386333 C64.3182447,86.4995604 71.2945245,87.0046019 77.8039481,88.2394798 C86.0486424,89.8034149 93.5694771,92.5487686 100.157927,96.3991704 C102.473282,97.7519245 103.252925,100.725726 101.900171,103.040416 Z M110.926501,84.2934489 C109.857314,86.1233526 107.932777,87.143397 105.955777,87.143729 C104.970266,87.143729 103.971804,86.8903782 103.059343,86.3571128 C87.9466155,77.5246977 70.4866574,76.1058665 58.4988121,76.4701206 C45.2189771,76.8742202 35.4804093,79.4957208 35.383784,79.5222845 C32.323319,80.3573794 29.1592557,78.5573597 28.3195121,75.4965626 C27.4801006,72.4357655 29.2754716,69.2746906 32.3349406,68.4316266 C32.773905,68.310762 43.2532667,65.4641344 57.8260876,64.9836643 C66.4104646,64.7007614 74.6737534,65.2987756 82.3841862,66.7614369 C92.1503138,68.6142518 101.058767,71.8659751 108.862837,76.4266226 C111.605534,78.029075 112.529285,81.5514156 110.926501,84.2934489 Z M116.475316,67.2478838 C115.266338,67.2478838 114.041754,66.937089 112.922428,66.282959 C76.9927605,45.2850542 30.3851683,57.7683116 29.9186441,57.8971453 C26.1622113,58.9321317 22.2789371,56.7260202 21.2442827,52.9699195 C20.2092963,49.2138187 22.4154079,45.3302124 26.1715086,44.2955581 C26.7097547,44.1471337 39.5639071,40.6556733 57.4389223,40.0662922 C67.969087,39.7196365 78.1044494,40.4527934 87.5621066,42.2468362 C99.5413186,44.5193569 110.468942,48.5078896 120.041155,54.1021952 C123.404778,56.0679057 124.53805,60.388152 122.572339,63.7517748 C121.260759,65.9964036 118.900246,67.2478838 116.475316,67.2478838 Z"></path>
                    </g>
                </g>
            </g>
        </g>
    </g>
</svg>