<?xml version="1.0" encoding="UTF-8"?>
<svg width="346px" height="510px" viewBox="0 0 346 510" version="1.1" xmlns="http://www.w3.org/2000/svg" xmlns:xlink="http://www.w3.org/1999/xlink">
    <title>the-memories-blog</title>
    <defs>
        <rect id="path-1" x="2" y="7" width="268" height="432" rx="12.61"></rect>
        <filter x="-27.2%" y="-10.2%" width="154.5%" height="133.8%" filterUnits="objectBoundingBox" id="filter-2">
            <feOffset dx="0" dy="29" in="SourceAlpha" result="shadowOffsetOuter1"></feOffset>
            <feGaussianBlur stdDeviation="19.5" in="shadowOffsetOuter1" result="shadowBlurOuter1"></feGaussianBlur>
            <feComposite in="shadowBlurOuter1" in2="SourceAlpha" operator="out" result="shadowBlurOuter1"></feComposite>
            <feColorMatrix values="0 0 0 0 0   0 0 0 0 0   0 0 0 0 0  0 0 0 0.41 0" type="matrix" in="shadowBlurOuter1"></feColorMatrix>
        </filter>
        <linearGradient x1="69.0416768%" y1="0%" x2="50.1864565%" y2="99.0207981%" id="linearGradient-3">
            <stop stop-color="#AE87FF" offset="0%"></stop>
            <stop stop-color="#714DE7" offset="100%"></stop>
        </linearGradient>
        <rect id="path-4" x="0" y="0" width="274" height="444" rx="15"></rect>
    </defs>
    <g id="Anonymous" stroke="none" stroke-width="1" fill="none" fill-rule="evenodd">
        <g id="Artboard" transform="translate(-443.000000, -174.000000)">
            <g id="the-memories-blog" transform="translate(480.000000, 177.000000)">
                <g id="Group-2">
                    <g id="Rectangle">
                        <use fill="black" fill-opacity="1" filter="url(#filter-2)" xlink:href="#path-1"></use>
                        <rect stroke="#979797" stroke-width="0.97" stroke-linejoin="square" fill="#D8D8D8" fill-rule="evenodd" x="2.485" y="7.485" width="267.03" height="431.03" rx="12.61"></rect>
                    </g>
                    <g id="Group">
                        <g id="Line">
                            <mask id="mask-5" fill="white">
                                <use xlink:href="#path-4"></use>
                            </mask>
                            <use id="Mask" fill-opacity="0.99" fill="url(#linearGradient-3)" xlink:href="#path-4"></use>
                            <polygon fill-opacity="0.31" fill="#000000" fill-rule="nonzero" mask="url(#mask-5)" points="12 0 12 445 11 445 11 0"></polygon>
                        </g>
                        <path d="M36.1201172,35 L36.1201172,23.1191406 L40.2021484,23.1191406 L40.2021484,19.4990234 L27.4833984,19.4990234 L27.4833984,23.1191406 L31.5654297,23.1191406 L31.5654297,35 L36.1201172,35 Z M46.3144531,35 L46.3144531,29.0058594 L51.7714844,29.0058594 L51.7714844,35 L56.3261719,35 L56.3261719,19.4990234 L51.7714844,19.4990234 L51.7714844,25.3857422 L46.3144531,25.3857422 L46.3144531,19.4990234 L41.7597656,19.4990234 L41.7597656,35 L46.3144531,35 Z M69.4101562,35 L69.4101562,31.3798828 L63.0292969,31.3798828 L63.0292969,28.8876953 L69.0126953,28.8876953 L69.0126953,25.6220703 L63.0292969,25.6220703 L63.0292969,23.1191406 L69.4101562,23.1191406 L69.4101562,19.4990234 L58.4746094,19.4990234 L58.4746094,35 L69.4101562,35 Z" id="THE" fill="#FFFFFF" fill-rule="nonzero"></path>
                        <rect id="Rectangle" fill="#FFFFFF" x="27" y="53" width="234" height="40"></rect>
                        <path d="M34.9482422,127 C38.2675781,127 40.4160156,125.206055 40.4160156,122.488281 C40.4160156,120.436523 38.6650391,118.857422 36.5703125,118.803711 L36.5703125,118.717773 C38.3642578,118.492188 39.7177734,117.149414 39.7177734,115.366211 C39.7177734,112.949219 37.859375,111.499023 34.6904297,111.499023 L27.0742188,111.499023 L27.0742188,127 L34.9482422,127 Z M33.390625,117.708008 L31.6289062,117.708008 L31.6289062,114.625 L33.4550781,114.625 C34.6044922,114.625 35.2919922,115.205078 35.2919922,116.161133 C35.2919922,117.095703 34.5615234,117.708008 33.390625,117.708008 Z M33.5732422,123.874023 L31.6289062,123.874023 L31.6289062,120.318359 L33.6054688,120.318359 C34.9697266,120.318359 35.7861328,120.962891 35.7861328,122.069336 C35.7861328,123.240234 34.9804688,123.874023 33.5732422,123.874023 Z M52.5546875,127 L52.5546875,123.379883 L46.4746094,123.379883 L46.4746094,111.499023 L41.9199219,111.499023 L41.9199219,127 L52.5546875,127 Z M61.0625,127.268555 C65.8535156,127.268555 68.8720703,124.207031 68.8720703,119.254883 C68.8720703,114.302734 65.8535156,111.230469 61.0625,111.230469 C56.2714844,111.230469 53.2529297,114.302734 53.2529297,119.254883 C53.2529297,124.207031 56.2607422,127.268555 61.0625,127.268555 Z M61.0625,123.637695 C59.1503906,123.637695 57.8935547,121.929688 57.8935547,119.254883 C57.8935547,116.569336 59.1611328,114.861328 61.0625,114.861328 C62.9638672,114.861328 64.2314453,116.569336 64.2314453,119.254883 C64.2314453,121.929688 62.9746094,123.637695 61.0625,123.637695 Z M78.0996094,127.268555 C82.6005859,127.268555 85.2753906,124.647461 85.2753906,120.404297 L85.2753906,118.363281 L78.5292969,118.363281 L78.5292969,121.392578 L80.8925781,121.392578 L80.8710938,121.607422 C80.7421875,122.853516 79.6894531,123.680664 78.2070312,123.680664 C76.2089844,123.680664 74.9091797,121.994141 74.9091797,119.168945 C74.9091797,116.408203 76.0478516,114.818359 77.9814453,114.818359 C79.2919922,114.818359 80.3125,115.55957 80.6132812,116.698242 L85.0927734,116.698242 C84.7490234,113.518555 81.8486328,111.230469 77.9599609,111.230469 C73.1796875,111.230469 70.2685547,114.152344 70.2685547,119.233398 C70.2685547,124.378906 73.1796875,127.268555 78.0996094,127.268555 Z" id="BLOG" fill="#FFFFFF" fill-rule="nonzero"></path>
                    </g>
                </g>
                <path d="M31.09375,425 L31.09375,421.921875 L32.703125,421.921875 C35.3359375,421.921875 37.125,420.320312 37.125,417.835938 C37.125,415.328125 35.4375,413.726562 32.9296875,413.726562 L27.78125,413.726562 L27.78125,425 L31.09375,425 Z M32.0234375,419.476562 L31.09375,419.476562 L31.09375,416.21875 L32.046875,416.21875 C33.125,416.21875 33.78125,416.773438 33.78125,417.84375 C33.78125,418.921875 33.125,419.476562 32.0234375,419.476562 Z M41.609375,425 L41.609375,420.640625 L45.578125,420.640625 L45.578125,425 L48.890625,425 L48.890625,413.726562 L45.578125,413.726562 L45.578125,418.007812 L41.609375,418.007812 L41.609375,413.726562 L38.296875,413.726562 L38.296875,425 L41.609375,425 Z M55.859375,425.195312 C59.34375,425.195312 61.5390625,422.96875 61.5390625,419.367188 C61.5390625,415.765625 59.34375,413.53125 55.859375,413.53125 C52.375,413.53125 50.1796875,415.765625 50.1796875,419.367188 C50.1796875,422.96875 52.3671875,425.195312 55.859375,425.195312 Z M55.859375,422.554688 C54.46875,422.554688 53.5546875,421.3125 53.5546875,419.367188 C53.5546875,417.414062 54.4765625,416.171875 55.859375,416.171875 C57.2421875,416.171875 58.1640625,417.414062 58.1640625,419.367188 C58.1640625,421.3125 57.25,422.554688 55.859375,422.554688 Z M65.953125,425 L65.953125,419.0625 L66.015625,419.0625 L70.3984375,425 L72.9375,425 L72.9375,413.726562 L69.8125,413.726562 L69.8125,419.570312 L69.75,419.570312 L65.3984375,413.726562 L62.828125,413.726562 L62.828125,425 L65.953125,425 Z M79.921875,425.195312 C83.1953125,425.195312 85.140625,423.289062 85.140625,420.203125 L85.140625,418.71875 L80.234375,418.71875 L80.234375,420.921875 L81.953125,420.921875 L81.9375,421.078125 C81.84375,421.984375 81.078125,422.585938 80,422.585938 C78.546875,422.585938 77.6015625,421.359375 77.6015625,419.304688 C77.6015625,417.296875 78.4296875,416.140625 79.8359375,416.140625 C80.7890625,416.140625 81.53125,416.679688 81.75,417.507812 L85.0078125,417.507812 C84.7578125,415.195312 82.6484375,413.53125 79.8203125,413.53125 C76.34375,413.53125 74.2265625,415.65625 74.2265625,419.351562 C74.2265625,423.09375 76.34375,425.195312 79.921875,425.195312 Z" id="PHONG" fill="#B193FF" fill-rule="nonzero"></path>
                <path d="M52.35,41.926 C52.35,41.95 52.375,41.95 52.4,41.95 C52.225,41.725 51.975,41.425 51.7,41.45 C51.275,41.475 51.1,41.9 51,42.175 C49.475,54.4 45.8,67.95 43.275,81.225 C43.15,81.75 42.975,82.625 43.65,82.825 C44.3,83.025 44.675,81.85 44.675,81.375 C47.275,68.675 50.25,54.525 56.775,44.675 C58.7825,44.24875 56.570125,53.442 54.56345,62.5634063 L54.3455688,63.5577177 C52.792985,70.674895 51.4645,77.53275 52.475,79.5 C52.675,79.825 53.625,80.375 53.825,79.9 C57.575,72.4 66.325,47.1 72.35,43.1 C69.25,54.45 63.05,70.675 63.05,82.925 C63.05,83.35 63.275,83.975 63.8,83.975 C64.3,83.975 64.725,83.275 64.725,82.85 C64.725,69.075 71.3,53.275 74.3,42.325 C74.35,42.025 73.175,41.65 72.85,41.65 C66.625,42.7 57.725,68.375 53.6,77.55 C53.5456522,75.0065217 54.8476371,69.0367675 56.2176338,62.8954426 L56.7320543,60.5907602 L56.7320543,60.5907602 L56.936226,59.6729272 C58.4598653,52.8085155 59.7842391,46.4478261 59.075,45.225 C58.675,44.525 58.2,44.05 57.425,43.85 C55.325,43.35 52.25,50.8 50.125,56.375 C51.1601852,51.2472222 52.0099108,45.9339849 52.3169956,42.3328138 L52.35,41.926 Z M81.4,80.55 C89.85,80.35 96.725,76.15 100.9,72.975 C101.1,72.8 101.125,72.6 100.975,72.425 C100.9,72.35 100.65,72.325 100.55,72.4 C94.075,76.6 84.675,79.375 81.225,78.775 C79.6,78.5 77.425,77.75 77.55,73.55 C79.15,72.975 80.225,72.1 80.5,71.425 C80.9,70.7 79.725,69.475 79.1,69.325 C78.7,69.225 78.225,69.25 77.925,69.45 C77.35,69.85 76.975,70.1 76.575,70.675 C73.875,74.475 76.525,80.85 81.4,80.55 Z M77.675,72.6 C77.75,72.025 78.375,71.175 78.975,70.6 C79.375,71.275 78.425,71.85 77.675,72.6 Z M99.425,80.325 C99.7,79.55 100.075,78.85 100.5,78.125 C102.125,75.425 104.6,72.65 107.475,71.45 C107.775,71.6 106.275,75.1 106.075,76.675 C106,76.95 106.725,77.7 107.075,77.775 C109.450568,78.7840909 112.603977,76.575749 115.539221,74.3758443 L116.013137,74.0196865 C116.406211,73.7237991 116.794318,73.43125 117.175,73.15 C116.65,75.95 116.625,78.575 119.025,79.3 C123.8,80.7 130.15,76.85 136.925,73.15 C137.45,72.9 137.175,72.2 136.575,72.475 C136.575,72.5 136.575,72.5 136.55,72.5 C130.575,75.825 124.725,78.45 120.975,78.125 C118.50163,77.9038043 118.486767,75.9519494 118.744759,73.6484774 L118.788642,73.2720771 C118.819032,73.0193793 118.85123,72.7634431 118.882474,72.5060111 L118.92828,72.1189591 C118.935681,72.054336 118.942935,71.9896739 118.95,71.925 C118.9,71.75 118.175,71.45 117.975,71.575 C117.307143,72.0464286 115.659247,73.1197704 113.874103,74.1583865 L113.384475,74.4403061 C110.761735,75.9341837 108.010714,77.2321429 107.725,76.375 C107.65,75.625 109.1,72.725 109.1,71.125 C109.1,70.95 108.35,70.5 108.075,70.575 C104.75,71.65 102.025,73.875 100.125,76.275 C100.8,74.025 101.625,72.975 102.7,70.85 C102.725,70.525 102.825,70.2 102.6,70.025 C102.55,69.925 101.875,69.7 101.775,69.8 L101.6,69.95 C99.8,72.35 98.725,76.3 98.125,79.1 C98.025,79.6 97.925,80.225 98.25,80.625 C98.425,80.875 99.35,80.625 99.425,80.325 Z M138.225,80.85 C140.075,80 141.1,77.775 141.575,75.95 C141.75,75.175 141.8,74.35 141.725,73.55 C143.35,74.775 155.65,75.4 158.825,72.75 C159.275,72.375 158.95,71.525 158.4,71.8 C154.1,73.8 144.375,73.25 141.225,71.425 C141.175,71.425 140.5,70.9 140.375,70.7 C140,70.425 139.65,70.725 139.575,71.05 C139.4,71.525 139.475,71.95 139.8,72.325 L140.1,72.6 C140.375,72.875 140.525,73.175 140.55,73.45 C140.425,76.275 137.825,80.25 135.75,79.65 C133.975,78.575 136.475,74.275 137.45,73.3 C137.725,72.9 137.475,71.9 136.925,72.325 C135.2,74.275 133.4,77.475 134.275,79.9 C135,81.5 136.9,81.45 138.225,80.85 Z M156.725,82.35 L156.975,82 C157.15,81.425 157.35,81.1 157.975,80.425 C162.875,75.125 169.4,71.75 171,72.55 C171.125,72.625 171.425,72.975 171.35,73.45 C170.275,79.85 184.975,73.5 185.775,72.95 C186.075,72.8 185.95,72.15 185.6,72.3 C181.775,73.9 172,76.8 172.3,74.1 C172.375,73.4 172.575,72.075 172.375,71.575 C172.2,71.05 171.375,70.525 170.75,70.425 C167,69.825 159.825,75.475 157.375,78.425 C157.85,76.9 158.925,73.2 158.775,72.575 C158.75,72.4 158.575,72.2 158.25,72.125 C157.975,72.05 157.65,72.275 157.575,72.575 C156.65,76.275 156.35,76.975 155.625,80.625 C155.5,81.2 155.25,82.2 155.75,82.625 C155.95,82.85 156.525,82.625 156.725,82.35 Z M187.525,68.475 C187.9,68.375 188.375,68.25 188.65,68.025 C188.775,67.95 188.85,67.775 188.95,67.65 C189.15,67.375 189.075,66.85 188.75,66.675 C188.65,66.6 188.55,66.55 188.45,66.575 C188.025,66.6 187.65,66.75 187.275,66.875 C186.8,67 186.325,67.175 185.85,67.35 C185.475,67.475 185.425,68.075 185.5,68.35 C185.575,68.725 185.825,69 187.525,68.475 Z M187.675,83.4 C193.225,82.2 201.975,77.85 207.625,73 C207.9,72.775 207.775,72.575 207.6,72.4 C207.3,72.225 207,72.525 206.775,72.8 C201.725,76.475 189.35,82.975 186.225,81.375 C184.55,80.5 186.375,74.9 186.975,72.675 C187.05,72.35 186.675,72.15 186.4,72.025 C186.2,71.925 186.05,71.9 185.775,72.025 C185.425,72.175 185.2,73.425 185,73.8 C184,76.6 182.875,79.225 183.675,81.4 C184.05,82.5 185.375,83.925 187.675,83.4 Z M211.4,80.55 C219.85,80.35 226.725,76.15 230.9,72.975 C231.1,72.8 231.125,72.6 230.975,72.425 C230.9,72.35 230.65,72.325 230.55,72.4 C224.075,76.6 214.675,79.375 211.225,78.775 C209.6,78.5 207.425,77.75 207.55,73.55 C209.15,72.975 210.225,72.1 210.5,71.425 C210.9,70.7 209.725,69.475 209.1,69.325 C208.7,69.225 208.225,69.25 207.925,69.45 C207.35,69.85 206.975,70.1 206.575,70.675 C203.875,74.475 206.525,80.85 211.4,80.55 Z M207.675,72.6 C207.75,72.025 208.375,71.175 208.975,70.6 C209.375,71.275 208.425,71.85 207.675,72.6 Z M227.275,84.975 C230.75,84.45 231.15,79.825 231.675,76.325 C237.45,73.75 247.225,72.05 249.025,73.15 C249.25,73.275 249.275,72.9 249.3,72.775 C249.225,72.6 249.225,72.425 249.025,72.35 C246.925,71.15 236.025,72.6 231.9,74.6 C232.4,72.1 233.125,70.675 233.5,70.5 C233.775,70.425 234.025,70.475 234.3,70.75 C234.475,70.95 234.675,70.775 234.75,70.6 C235.025,69.775 232.925,68.65 231.9,69.475 C230.65,70.55 230.075,73.925 229.725,75.4 C226.05,77.875 222.8,82.55 225.05,84.475 C225.575,84.8 226.675,85.05 227.275,84.975 Z M229.45,77.25 C229.05,79.35 228.8,82.675 226.675,83.7 C224.15,83.9 227.475,79.025 229.45,77.25 Z" id="Memories" fill="#000000" fill-rule="nonzero"></path>
            </g>
        </g>
    </g>
</svg>