<?xml version="1.0" encoding="UTF-8"?>
<svg width="1080px" height="1080px" viewBox="0 0 1080 1080" version="1.1" xmlns="http://www.w3.org/2000/svg" xmlns:xlink="http://www.w3.org/1999/xlink">
    <title>Hairstyle/ Black/ 1</title>
    <g id="Hairstyle/-Black/-1" stroke="none" stroke-width="1" fill="none" fill-rule="evenodd" stroke-linecap="round" stroke-linejoin="round">
        <path d="M757.865629,424.874819 C766.804929,443.609506 772.401305,457.623017 774.654757,466.915353 C776.908208,476.207689 777.957529,489.598377 777.802718,507.087418 L757.865629,497.745077 C762.098401,511.92999 763.847268,525.63209 763.112231,538.851377 C762.377194,552.070664 758.87946,571.378168 752.619026,596.77389 C750.72134,581.096591 748.622699,569.885782 746.323104,563.141463 C744.023508,556.397144 740.176,550.168917 734.780578,544.456781 C734.145582,560.755023 731.697168,575.391357 727.435335,588.365783 C723.173502,601.340209 714.778938,619.713479 702.251643,643.485594 C701.835299,627.805274 700.785978,616.283053 699.103682,608.918933 C697.421385,601.554812 694.273424,594.703762 689.659797,588.365783 C684.206364,610.986619 678.959762,628.425655 673.91999,640.682892 C668.880219,652.940128 659.786108,670.379164 646.637658,693 C650.363638,652.424394 651.412958,622.217492 649.785619,602.379294 C648.15828,582.541096 642.561904,557.316776 632.996491,526.706334 C632.087874,556.41667 630.68878,578.526876 628.799209,593.036953 C626.909639,607.547031 622.712357,628.411592 616.207364,655.630637 C608.200035,611.401514 600.505019,578.703321 593.122313,557.536058 C585.739607,536.368796 572.797988,509.89883 554.297455,478.126162 C555.53036,500.710184 555.53036,518.14922 554.297455,530.44327 C553.064551,542.737321 549.566816,560.176357 543.80425,582.760379 C537.308866,545.054479 530.663169,518.273102 523.867161,502.416248 C517.071153,486.559393 503.429987,466.006244 482.943662,440.756799 C474.227501,455.105791 466.912947,465.186858 461,471 C455.087053,476.813142 444.368568,485.769181 428.844546,497.868118 L439.921522,424.874819 C427.432313,457.749167 417.288882,482.039253 409.491228,497.745077 C401.693575,513.450902 390.500823,532.135584 375.912973,553.799122 C382.824958,523.219934 387.02224,500.175494 388.504819,484.6658 C389.987398,469.156107 389.987398,448.291546 388.504819,422.072117 C356.67252,467.12825 336.444416,502.120024 327.820505,527.047441 C319.196595,551.974857 313.642009,585.178914 311.156746,626.659612 C302.9597,601.906193 298.446598,580.776339 297.617442,563.270048 C296.788285,545.763758 296.788285,521.279958 297.617442,489.818649 L280.953682,527.047441 C272.080321,510.266167 266.178573,493.831835 263.248438,477.744447 C260.318304,461.657058 262.546026,442.165381 269.931604,419.269415 C264.045724,414.027181 263.900972,402.997958 269.497348,386.181744 C277.891912,360.957424 298.658927,237.26658 417.388211,207.081073 C496.541068,186.957402 557.917289,196.961634 601.516877,237.093769 C630.89785,238.962237 663.426785,255.467039 699.103682,286.608175 C734.780578,317.749311 762.412684,363.838193 782,424.874819 L757.865629,424.874819 Z" id="Hair" stroke="#000000" stroke-width="12" fill="#000000"></path>
    </g>
</svg>