<?xml version="1.0" encoding="UTF-8"?>
<svg width="1080px" height="1080px" viewBox="0 0 1080 1080" version="1.1" xmlns="http://www.w3.org/2000/svg" xmlns:xlink="http://www.w3.org/1999/xlink">
    <title>Hairstyle/ Black/ 10</title>
    <g id="Hairstyle/-Black/-10" stroke="none" stroke-width="1" fill="none" fill-rule="evenodd" stroke-linecap="round" stroke-linejoin="round">
        <path d="M555.119358,286.052456 C571.706453,276.017485 584.333333,276 593,286 C601.666667,296 604.333333,306.333333 601,317 C642.793701,316.275637 669.127034,323.942303 680,340 C690.872966,356.057697 688.206299,383.39103 672,422 C698.300541,416.524464 709.967207,427.857797 707,456 C705.832929,467.068976 696.685898,460.672731 682.045723,457.059764 C684.099003,461.560473 685.990829,466.150592 687.713207,470.822715 C680.071141,465.276632 672.174125,460.060485 664.043068,455.195145 C651.305489,455.945091 636.345212,461.605154 620,479 C612.431882,487.054117 606.098548,529.387451 601,606 L576,532 C557.612303,539.317352 539.673422,527.690344 522.183357,497.118976 C510.033716,475.882284 506.323939,446.905868 511.054026,410.189728 C507.385507,410.062799 503.700087,410 500,410 C429.876295,410 365.020745,432.555659 312.292721,470.807609 C304.341694,492.369224 300,515.677583 300,540 L300.023133,542.983839 C284.305374,543.687692 274.630996,540.026412 271,532 C265.954933,520.847747 270.151583,495.907025 283.589948,457.177832 L284,456 L271,410 C268.517676,373.55751 287.517676,337.890843 328,303 C361.79324,273.874335 396.179492,264.183932 431.158754,273.928794 C452.270265,252.56347 470.149376,240.481266 484.796544,237.683045 C507.379375,233.36878 530.820313,249.491917 555.119358,286.052456 Z M490.664972,317.149392 L516.543391,340.674431 L515.662357,340.604239 C516.026244,340.632426 516.389857,340.661588 516.753195,340.69172 C511.449466,330.755976 502.753259,322.906956 490.664972,317.149392 Z" id="Hair" stroke="#000000" stroke-width="12" fill="#000000"></path>
    </g>
</svg>