<?xml version="1.0" encoding="UTF-8"?>
<svg width="1080px" height="1080px" viewBox="0 0 1080 1080" version="1.1" xmlns="http://www.w3.org/2000/svg" xmlns:xlink="http://www.w3.org/1999/xlink">
    <title>Hairstyle/ Black/ 11</title>
    <g id="Hairstyle/-Black/-11" stroke="none" stroke-width="1" fill="none" fill-rule="evenodd" stroke-linecap="round" stroke-linejoin="round">
        <path d="M873.600987,172.727028 C898.405319,206.828816 943.700186,271.932228 904.876014,377.337753 C880.588389,443.277341 824.963442,465.539943 738.001175,444.125558 C736.730488,455.026835 734.058971,466.092457 729.985876,477.320115 C719.01153,463.133709 701.822411,454 682.5,454 C649.362915,454 622.5,480.862915 622.5,514 C622.5,520.90077 623.664983,527.529444 625.809007,533.700078 C619.280568,529.367317 611.687778,525.376054 604.02132,521.378746 L601.99571,520.322752 L600.841129,519.720165 L600.841129,519.720165 L599.687497,519.116762 L599.687497,519.116762 L598.535564,518.51228 C597.768342,518.108873 597.00275,517.704572 596.239789,517.299025 L595.097443,516.689726 C578.375633,507.738353 563.168223,498.09912 560.105636,484.036175 C558.406193,476.232582 547.556475,467.750904 535.321654,459.497039 L534.353011,458.845908 L534.353011,458.845908 L533.379462,458.195822 C531.753263,457.113273 530.11016,456.035493 528.467841,454.964546 L526.885007,453.934034 C515.815097,446.736236 505.04,439.88 500,434 C488,420 481,402 426,402 C389.333333,402 353.333333,418.666667 318,452 C334.666667,357.333333 386.987719,298.764921 474.963158,276.294764 C493.901163,271.457733 520.831077,271.277258 550.236589,275.544307 C546.83149,199.493994 580.206687,149.720342 650.361998,126.224591 C761.442268,89.022641 848.796655,138.625241 873.600987,172.727028 Z" id="Hair" stroke="#000000" stroke-width="12" fill="#000000"></path>
    </g>
</svg>