<?xml version="1.0" encoding="UTF-8"?>
<svg width="1080px" height="1080px" viewBox="0 0 1080 1080" version="1.1" xmlns="http://www.w3.org/2000/svg" xmlns:xlink="http://www.w3.org/1999/xlink">
    <title>Hairstyle/ Black/ 12</title>
    <g id="Hairstyle/-Black/-12" stroke="none" stroke-width="1" fill="none" fill-rule="evenodd" stroke-linecap="round" stroke-linejoin="round">
        <path d="M314,460 C299.330852,402.52767 296.696877,362.633167 306.098074,340.316491 C315.499271,317.999814 334.133246,305.560984 362,303 C374.237027,266.856586 398.570361,240.856586 435,225 C471.429639,209.143414 506.429639,209.143414 540,225 C605.333333,217 652.666667,221.666667 682,239 C726,265 748.585518,299.52416 764,328 C779.414482,356.47584 798,406 792,436 C788,456 781,475 771,493 C785,509.666667 792,529.333333 792,552 C792,574.666667 785,595.333333 771,614 C786.402812,630.002044 795.069479,645.335377 797,660 C798.930521,674.664623 793.263854,691.664623 780,711 C791.333333,718.333333 797,729.666667 797,745 C797,760.333333 790.666667,773 778,783 C794,797 802,811 802,825 C802,839 795.932136,855.091322 783.796408,873.273966 C791.265469,890.424655 794,903.333333 792,912 C790,920.666667 777.864272,933.598351 755.592817,950.795053 C758.407339,962.356176 763.401725,972.633593 770.575975,981.627304 C777.750224,990.621015 791.558233,1001.48571 812,1014.2214 C770.665932,1010.47416 741.874766,1000.78402 725.6265,985.150989 C709.378235,969.517958 705.265211,949.550406 713.287429,925.248331 C702.079631,918.642583 695.32252,912.182493 693.016098,905.868059 C690.709675,899.553626 690.709675,887.514366 693.016098,869.75028 C682.488633,856.511535 676.612884,846.527758 675.388853,839.798951 C674.164821,833.070143 676.51512,823.673648 682.439751,811.609464 C665.117274,795.330262 655.637357,783.793773 654,777 C650.328439,761.765842 652.661772,746.765842 661,732 C637,718 624,701 622,681 C620,661 624,641.333333 634,622 C618.078327,600.450932 607.744993,581.450932 603,565 C593.752917,532.940285 593.752917,506.606952 603,486 C579.666667,473.333333 558.666667,456.666667 540,436 C521.333333,415.333333 515.050154,387.843437 521.150461,353.530312 C497.830092,378.25659 466.779939,397.079819 428,410 C406.935147,417.018106 382.604604,417.771057 362,427 C350.447983,432.174227 334.447983,443.174227 314,460 Z" id="Path" stroke="#000000" stroke-width="12" fill="#000000"></path>
        <g id="Group" transform="translate(329.965634, 216.851731)" stroke="#281F1F" stroke-width="8">
            <path d="M439.034366,260.148269 C435.003988,278.374513 430.670655,291.707847 426.034366,300.148269 C421.398078,308.588692 412.731411,318.922025 400.034366,331.148269" id="Path" transform="translate(419.534366, 295.648269) rotate(12.000000) translate(-419.534366, -295.648269) "></path>
            <path d="M224.044387,-7 C220.117352,6.86221379 215.89513,17.0030589 211.37772,23.4225352 C206.860311,29.8420116 198.415867,37.7011665 186.044387,47" id="Path" transform="translate(205.044387, 20.000000) rotate(-89.000000) translate(-205.044387, -20.000000) "></path>
            <path d="M46,71.1951776 C42.58968,83.7738531 38.9230133,92.975731 35,98.8008114 C31.0769867,104.625892 23.7436533,111.757347 13,120.195178" id="Path" transform="translate(29.500000, 95.695178) rotate(-131.000000) translate(-29.500000, -95.695178) "></path>
            <path d="M445.034366,372.148269 C441.003988,390.374513 436.670655,403.707847 432.034366,412.148269 C427.398078,420.588692 418.731411,430.922025 406.034366,443.148269" id="Path" transform="translate(425.534366, 407.648269) rotate(12.000000) translate(-425.534366, -407.648269) "></path>
            <path d="M454.034366,467.148269 C450.003988,485.374513 445.670655,498.707847 441.034366,507.148269 C436.398078,515.588692 427.731411,525.922025 415.034366,538.148269" id="Path" transform="translate(434.534366, 502.648269) rotate(12.000000) translate(-434.534366, -502.648269) "></path>
            <path d="M456.953736,549.401046 C455.093562,555.818737 453.093562,560.513573 450.953736,563.485553 C448.813911,566.457532 444.813911,570.09603 438.953736,574.401046" id="Path" transform="translate(447.953736, 561.901046) rotate(12.000000) translate(-447.953736, -561.901046) "></path>
            <path d="M462.240413,638.343872 C460.380238,644.248148 458.380238,648.567397 456.240413,651.301618 C454.100587,654.035839 450.100587,657.383257 444.240413,661.343872" id="Path" transform="translate(453.240413, 649.843872) rotate(2.000000) translate(-453.240413, -649.843872) "></path>
            <path d="M440.964702,710.575524 C439.104527,717.763338 437.104527,723.021554 434.964702,726.350171 C432.824876,729.678789 428.824876,733.753906 422.964702,738.575524" id="Path" transform="translate(431.964702, 724.575524) rotate(23.000000) translate(-431.964702, -724.575524) "></path>
        </g>
    </g>
</svg>