<?xml version="1.0" encoding="UTF-8"?>
<svg width="1080px" height="1080px" viewBox="0 0 1080 1080" version="1.1" xmlns="http://www.w3.org/2000/svg" xmlns:xlink="http://www.w3.org/1999/xlink">
    <title>Hairstyle/ Black/ 13</title>
    <g id="Hairstyle/-Black/-13" stroke="none" stroke-width="1" fill="none" fill-rule="evenodd" stroke-linecap="round" stroke-linejoin="round">
        <path d="M547,260 C645,283 715.2416,326.106271 751,423 C782,507 758,739 740,755 C738.018463,756.761366 733.976633,757.035477 728.741153,757.05137 L727.88183,757.051878 C720.635896,757.040484 711.295726,756.678865 702,759 C685.259199,763.180164 648.592533,770.180164 592,780 C630.015458,700.568523 650.348791,638.568523 653,594 C653.519268,585.270768 653.102996,576.957433 651.939711,569.045255 C660.312301,573.485904 669.862551,576 680,576 C713.137085,576 740,549.137085 740,516 C740,482.862915 713.137085,456 680,456 C651.748309,456 628.057161,475.526007 621.685665,501.818912 C608.416025,484.30115 593.994552,470.533106 585,460 C577.159983,450.818916 575.460377,443.256969 573.802121,435.780927 L573.508676,434.462206 C570.356685,420.398694 566.08,406.32 520,382 C475.396579,358.459306 352.658716,395.098334 321,443.120451 C289.341284,491.142567 292,544.864963 300,584 C308,623.135037 339,670.104558 363,692 C387,713.895442 404.695882,721.869664 419,728 C424.395972,730.312559 436.729305,734.312559 456,740 L455,760 C446.333333,759.333333 430,763.666667 406,773 C382,782.333333 353.666667,789 321,793 C276.378993,640.804918 259.378993,533.804918 270,472 C276.668972,433.192449 294.275106,361.188485 340,325 C403.507328,274.737795 490.023057,246.62786 547,260 Z" id="Hair" stroke="#000000" stroke-width="12" fill="#000000"></path>
    </g>
</svg>