<?xml version="1.0" encoding="UTF-8"?>
<svg width="1080px" height="1080px" viewBox="0 0 1080 1080" version="1.1" xmlns="http://www.w3.org/2000/svg" xmlns:xlink="http://www.w3.org/1999/xlink">
    <title>Hairstyle/ Black/ 14</title>
    <g id="Hairstyle/-Black/-14" stroke="none" stroke-width="1" fill="none" fill-rule="evenodd">
        <path d="M540,260 C645.681586,260 739.397761,336.845016 797.6691,455.31591 L797.663209,455.324978 L801.317073,457.534736 C814.655528,465.621232 825.272572,472.584142 829,486 C834.005455,504.015763 833.530221,532.399518 834.677573,552.576407 L834.685114,552.568725 C836.930985,560.503573 839.03858,568.547769 841.003363,576.69451 C850.934206,583.970893 877.481967,612.45242 872,632 C866.322537,652.244679 866.590147,683.776477 872,694 L877.809781,704.945081 C898.773843,744.330656 904.986961,755.024515 906,767.035387 C908,790.747936 881.677259,804.508148 885,819 C888.322741,833.491852 919,845.794924 922,861.885582 C925,877.97624 912,886.596954 912,905 C912,923.403046 931,933.33536 931,961 C931,988.66464 915.364699,992.507935 912,1031.26093 C909.756868,1057.09626 914.423534,1073.34262 926,1080 L912.972929,1079.94812 C871.151998,1079.79768 830.831214,1079.80883 792.010577,1079.98156 L788,1080 C745.585834,1080.20143 703.585834,1080.20143 662,1080 C634,1035.33333 623.333333,995.666667 630,961 C640,909 683,912.18812 683,887.291884 C683,862.395649 583,806 595,767 C607,728 595,711.141522 595,653.553904 C595,595.966285 643.329754,582.748947 651,533.297406 C658.670246,483.845865 618.534481,509.716897 607,465.547267 C595.465519,421.377637 619.47425,422.921033 595,399.490881 C581.38064,386.452538 554.511064,366.792343 514.391273,340.510298 C509.637286,340.171832 504.83871,340 500,340 C389.54305,340 300,429.54305 300,540 C300,636.757814 368.709674,717.467624 459.998578,735.998987 L460,740 L460.235268,741.543071 C464.071608,767.136935 467.523451,811.527625 460,826 C452.67897,840.082989 428,860.88958 428,889 C428,946.587618 330,956 359,996 C378.333333,1022.66667 377.333333,1050.66667 356,1080 L134,1080 L135.993316,1077.47473 C157.1824,1050.52964 168.851294,1032.3714 171,1023 C174.322741,1008.50815 148,994.747936 150,971.035387 C151.10113,957.980092 158.346019,946.480813 184,898 C189.409853,887.776477 189.677463,856.244679 184,836 C178.322537,815.755321 207,785.928137 216,780 C224.41168,774.459378 216.226188,721.442182 221.651559,691.026284 C238.000991,448.933003 374.291273,260 540,260 Z" id="Path" fill="#000000"></path>
        <g id="Group" transform="translate(192.151670, 320.000000)" stroke="#281F1F" stroke-linecap="round" stroke-linejoin="round" stroke-width="12">
            <path d="M487.84833,360 C471.499597,401.089851 466.166264,433.756517 471.84833,458 C480.371429,494.365224 507.850548,473.669846 517.84833,488 C524.513518,497.553436 524.513518,521.886769 517.84833,561" id="Path"></path>
            <path d="M624.426305,507 C604.142946,541.548183 597.526047,569.014186 604.575608,589.39801 C615.14995,619.973746 649.24243,602.573154 661.646363,614.621891 C669.915652,622.654381 669.915652,643.113751 661.646363,676" id="Path" transform="translate(634.848330, 591.500000) rotate(12.000000) translate(-634.848330, -591.500000) "></path>
            <path d="M542.357627,643.932559 C522.074267,678.480742 515.457368,705.946746 522.506929,726.330569 C533.081271,756.906305 565.802742,735.004146 578.206676,747.052883" id="Path" transform="translate(548.993164, 695.492721) rotate(12.000000) translate(-548.993164, -695.492721) "></path>
            <path d="M63.4263054,612 C43.1429459,638.371098 36.5260468,659.336272 43.5756079,674.895522 C54.1499496,698.234398 88.2424295,684.952289 100.646363,694.149254 C108.915652,700.280563 108.915652,715.897479 100.646363,741" id="Path" transform="translate(73.848330, 676.500000) scale(-1, 1) rotate(12.000000) translate(-73.848330, -676.500000) "></path>
            <path d="M76.4263054,394 C56.1429459,420.371098 49.5260468,441.336272 56.5756079,456.895522 C67.1499496,480.234398 101.24243,466.952289 113.646363,476.149254 C121.915652,482.280563 121.915652,497.897479 113.646363,523" id="Path" transform="translate(86.848330, 458.500000) scale(-1, 1) rotate(-21.000000) translate(-86.848330, -458.500000) "></path>
            <path d="M556.610207,201 C529.873051,237.796881 521.150775,267.050612 530.443378,288.761194 C544.382283,321.327066 589.32237,302.793892 605.67301,315.626866 C616.573437,324.182181 616.573437,345.973226 605.67301,381" id="Path" transform="translate(570.348330, 291.000000) rotate(12.000000) translate(-570.348330, -291.000000) "></path>
            <path d="M154.610207,409 C127.873051,445.796881 119.150775,475.050612 128.443378,496.761194 C142.382283,529.327066 187.32237,510.793892 203.67301,523.626866 C214.573437,532.182181 214.573437,553.973226 203.67301,589" id="Path" transform="translate(168.348330, 499.000000) scale(-1, 1) rotate(12.000000) translate(-168.348330, -499.000000) "></path>
            <path d="M411.84833,0 C449.997474,14.0885969 477.997474,31.4219303 495.84833,52 C513.699186,72.5780697 533.699186,110.57807 555.84833,166" id="Path"></path>
            <path d="M337.84833,9 C368.579585,16.5535249 391.135141,25.8466976 405.514997,36.8795181 C419.894853,47.9123386 436.005964,68.2858326 453.84833,98" id="Path"></path>
            <path d="M20,282.059327 C36.8844637,293.888561 52.5166235,305.319589 66.8964794,316.352409 C81.2763354,327.38523 97.3874465,347.758724 115.229813,377.472891" id="Path" transform="translate(67.614906, 329.766109) rotate(-131.000000) translate(-67.614906, -329.766109) "></path>
        </g>
    </g>
</svg>