<?xml version="1.0" encoding="UTF-8"?>
<svg width="1080px" height="1080px" viewBox="0 0 1080 1080" version="1.1" xmlns="http://www.w3.org/2000/svg" xmlns:xlink="http://www.w3.org/1999/xlink">
    <title>Hairstyle/ Black/ 15</title>
    <g id="Hairstyle/-Black/-15" stroke="none" stroke-width="1" fill="none" fill-rule="evenodd" stroke-linecap="round" stroke-linejoin="round">
        <path d="M809.22635,546.749401 C820.105393,557.830588 850.075791,571.266969 869.421888,586.336463 C876.949187,592.199795 884.729563,601.5537 892.763016,614.398179 C945.587672,635.444465 972,664.675419 972,702.091039 C972,739.50666 951.115834,767.067273 909.347501,784.772879 C919.994331,797.244753 925.317746,808.7701 925.317746,819.348921 C925.317746,829.927743 919.878497,842.478102 909,857 C917,861.666667 924.333333,864 931,864 C937.666667,864 944.666667,862.333333 952,859 C944.629873,875.090521 935.629873,885.090521 925,889 C909.05519,894.864219 876.578112,898.512219 860,899 C843.421888,899.487781 798.784267,908.545088 806.155149,945.125538 C811.06907,969.512505 837.686145,986.884043 886.006374,997.240153 C839.103341,1020.6468 802.044183,1022.15011 774.828899,1001.75007 C734.005973,971.15002 719,888 708,876 C697,864 647.530454,850.767514 636,839 C600.925929,803.204824 620.488651,768.578348 602.227406,741.678102 C565.830576,688.062718 563.170044,672.025779 563,641 C562.829956,609.974221 610,532 602,500 C594,468 567.082323,468.607853 552,447 C541.945118,432.594765 534.945118,407.928098 531,373 C465,365 415.333333,374 382,400 C348.666667,426 323.666667,451.666667 307,477 C290.410898,424.08972 286.744232,385.756387 296,362 C305.255768,338.243613 329.527813,309.294308 368.816134,275.152084 C394.614222,229.050695 450.305333,206 535.889466,206 C664.265665,206 730.603606,286.677432 741.045689,314.238045 C751.487772,341.798658 759.555685,379.755319 769.300738,415.961763 C772.139553,426.509003 783.383794,520.426662 809.22635,546.749401 Z" id="Hair" stroke="#000000" stroke-width="12" fill="#000000"></path>
    </g>
</svg>