<?xml version="1.0" encoding="UTF-8"?>
<svg width="1080px" height="1080px" viewBox="0 0 1080 1080" version="1.1" xmlns="http://www.w3.org/2000/svg" xmlns:xlink="http://www.w3.org/1999/xlink">
    <title>Hairstyle/ Black/ 16</title>
    <g id="Hairstyle/-Black/-16" stroke="none" stroke-width="1" fill="none" fill-rule="evenodd">
        <path d="M540,260 C641.493305,260 731.950813,330.874802 790.575474,441.428834 C815.75129,460.608936 832,490.906923 832,525 C832,528.183304 831.858341,531.333523 831.580984,534.444695 C867.817238,550.995287 893,587.556769 893,630 C893,654.551657 884.573483,677.135195 870.454794,695.01627 C874.067221,707.890379 876,721.469477 876,735.5 C876,818.06657 809.06657,885 726.5,885 C643.93343,885 577,818.06657 577,735.5 C577,678.067855 609.385057,628.199645 656.889948,603.160594 C635.472882,583.942575 622,556.044667 622,525 C622,512.019308 624.355495,499.588772 628.66237,488.112505 L628.997342,487.232776 L628.63315,486.99795 C609.974346,474.933522 594.763296,459.934205 583,442 C566.907968,417.466247 558.057418,388.643688 556.44835,355.532323 C541.719837,381.507017 510.082758,411.165033 468.75,435.028512 C403.129375,472.914597 337.079309,482.33388 317.867613,457.260033 L316.931254,459.342007 L316.931254,459.342007 L317.019218,459.141584 C316.609936,460.066421 316.207459,460.994941 315.811851,461.927083 L316.931254,459.342007 C316.478105,460.368971 316.033345,461.400465 315.59706,462.436404 L315.811851,461.927083 C315.406341,462.882557 315.008048,463.841836 314.617041,464.804851 L315.59706,462.436404 L315.031888,463.792372 L315.031888,463.792372 L314.475982,465.15321 C314.086765,466.118186 313.704435,467.086752 313.329484,468.058984 C312.996863,468.920398 312.670583,469.784349 312.350138,470.651128 L313.329484,468.058984 C312.935884,469.079569 312.550414,470.104193 312.173153,471.132777 L312.350138,470.651128 C312.006976,471.579353 311.670505,472.51082 311.340783,473.445473 L312.173153,471.132777 C311.829337,472.070174 311.492339,473.010859 311.16222,473.954773 L311.340783,473.445473 C310.804406,474.96592 310.28589,476.494795 309.785485,478.031845 L309.291128,479.571612 C308.807118,481.100526 308.340986,482.63739 307.892976,484.181959 L307.451017,485.729087 C307.176462,486.705162 306.909129,487.684262 306.64908,488.666324 L307.398953,485.915164 L306.974386,487.453946 L306.974386,487.453946 L306.64908,488.666324 C306.365504,489.737234 306.090589,490.811667 305.824414,491.889543 L306.561798,488.997659 L306.178702,490.477659 L306.178702,490.477659 L305.824414,491.889543 C305.580718,492.876394 305.344348,493.866131 305.115365,494.858694 L305.806644,491.962067 L305.416199,493.574642 L305.416199,493.574642 L305.115365,494.858694 C304.754396,496.423375 304.411786,497.995078 304.087773,499.573563 L303.722208,501.398063 L303.722208,501.398063 L303.769968,501.1543 C303.56601,502.190478 303.370055,503.229528 303.182169,504.271384 L303.722208,501.398063 L303.427244,502.938692 L303.427244,502.938692 L303.182169,504.271384 C302.990072,505.336594 302.806409,506.404737 302.631255,507.47574 L303.144088,504.483481 L302.861033,506.101173 L302.861033,506.101173 L302.631255,507.47574 C302.465314,508.490402 302.307008,509.507632 302.1564,510.527369 L302.590966,507.723294 L302.338781,509.318349 L302.338781,509.318349 L302.1564,510.527369 C301.916357,512.152644 301.695865,513.784286 301.49517,515.422048 L301.301085,517.061842 C301.179524,518.126449 301.066322,519.193596 300.961546,520.263214 L301.279978,517.247574 L301.107398,518.827568 L301.107398,518.827568 L300.961546,520.263214 C300.856178,521.338885 300.759331,522.417056 300.671074,523.497658 L300.947111,520.411226 C300.838902,521.524375 300.739819,522.640196 300.649937,523.758615 C300.570052,524.752575 300.497436,525.74865 300.432141,526.746723 L300.649937,523.758615 L300.527696,525.359558 L300.527696,525.359558 L300.432141,526.746723 C300.361044,527.833472 300.298628,528.922589 300.244961,530.014006 L300.418047,526.963992 L300.321277,528.567606 L300.321277,528.567606 L300.244961,530.014006 C300.192995,531.070811 300.149233,532.129772 300.113735,533.190827 L300.237129,530.174594 C300.181026,531.334335 300.1348,532.496669 300.098535,533.661512 L300.113735,533.190827 C300.078139,534.254816 300.050854,535.320911 300.031943,536.389049 L300.098535,533.661512 C300.065692,534.71646 300.041018,535.773467 300.024575,536.832471 L300.031943,536.389049 C300.010677,537.590146 300,538.793826 300,540 L300.022771,543.04912 L300.032904,543.664842 L300.032904,543.664842 C300.046922,544.444978 300.065413,545.224232 300.088349,546.00237 L300.032904,543.664842 L300.059054,544.90844 L300.059054,544.90844 L300.088349,546.00237 L300.133999,547.389997 L300.199003,549.002626 L300.26187,550.32411 L300.357115,552.051441 L300.438818,553.354951 L300.554883,555.011512 L300.662856,556.401404 L300.796664,557.973499 L300.925132,559.361413 L301.081076,560.920841 L301.228939,562.297168 L301.410612,563.877705 L301.585458,565.303761 L301.772193,566.740927 L301.975482,568.220251 L302.212636,569.850888 C302.375773,570.941007 302.547708,572.028249 302.728367,573.11254 L302.394361,571.040699 L302.630008,572.51664 L302.630008,572.51664 L302.876401,573.988969 C303.082981,575.195631 303.300371,576.398602 303.528468,577.597779 C303.666073,578.321204 303.807493,579.042846 303.952784,579.763087 L303.528468,577.597779 C303.718607,578.5974 303.916186,579.594385 304.121145,580.588674 L303.952784,579.763087 C304.14252,580.703659 304.338856,581.641842 304.541741,582.577583 L304.121145,580.588674 L304.444914,582.128493 L304.444914,582.128493 L304.780466,583.66394 L305.110929,585.122071 L305.110929,585.122071 L305.520331,586.861722 L305.520331,586.861722 L305.858947,588.25008 L306.172624,589.499009 L306.573321,591.04671 L306.909466,592.307018 L307.343255,593.886323 L307.692513,595.122176 L308.090144,596.493326 L308.510856,597.905394 L308.98511,599.452998 L309.353073,600.623713 L309.78879,601.978303 L309.78879,601.978303 L310.353314,603.685671 L310.353314,603.685671 L310.804005,605.012759 L311.18639,606.115235 L311.771008,607.761637 C312.219568,609.007455 312.680144,610.247537 313.152597,611.481742 L312.157161,608.824617 L312.747977,610.415579 L312.747977,610.415579 L313.152597,611.481742 C313.494693,612.37541 313.843016,613.265998 314.197513,614.153452 L313.35187,612.000137 C313.742021,613.010867 314.140147,614.017633 314.546168,615.020357 L314.735454,615.486129 L314.735454,615.486129 L315.121449,616.42563 L315.121449,616.42563 L315.823698,618.100825 L315.823698,618.100825 L316.373423,619.383027 L316.914116,620.620502 L317.51938,621.979249 L318.073017,623.198717 L318.69725,624.548141 L319.324261,625.877564 L319.864197,627.002406 L320.523645,628.352252 L321.221969,629.754195 L321.783496,630.86188 L322.422887,632.102735 L322.422887,632.102735 L323.07066,633.338536 L323.877524,634.849108 L324.463716,635.927356 L325.132908,637.13931 L325.132908,637.13931 L325.282276,637.407138 C326.388885,639.387801 327.528199,641.347708 328.699485,643.286127 C329.179307,644.080208 329.664495,644.870684 330.154998,645.657503 L328.904891,643.625303 C329.465698,644.549266 330.033778,645.468324 330.609052,646.382399 L330.154998,645.657503 C330.653332,646.456884 331.157153,647.252492 331.666408,648.044273 L330.609052,646.382399 L331.453717,647.71287 L331.453717,647.71287 L332.308542,649.036209 L333.193863,650.38312 L333.873114,651.400755 L334.800568,652.768874 L335.473423,653.746443 L336.398708,655.070847 L337.094793,656.052419 L338.094842,657.441128 L338.730783,658.311402 L339.773382,659.717279 L340.445993,660.610836 L341.464149,661.944028 L342.364456,663.103959 L342.364456,663.103959 L343.027539,663.947192 L343.027539,663.947192 L343.273063,664.257085 C343.931121,665.085987 344.595616,665.909549 345.266472,666.727695 L343.914905,665.061324 L344.794804,666.15029 L344.794804,666.15029 L345.266472,666.727695 C346.600345,668.354426 347.959368,669.959745 349.342944,671.543056 L349.973828,672.261561 L350.982836,673.396549 L350.982836,673.396549 L352.000305,674.523801 L353.063695,675.683881 L353.898474,676.581938 L354.989728,677.739557 L355.894625,678.685733 L356.984206,679.80885 L357.85156,680.690538 L358.979805,681.82139 L359.84179,682.673389 L360.943841,683.747881 L361.903324,684.670116 L363.095607,685.799291 L363.877411,686.529783 L364.922497,687.494226 L364.922497,687.494226 L365.974435,688.451312 L367.235328,689.580796 C368.12004,690.366621 369.011773,691.144717 369.910419,691.914976 L368.096015,690.340898 L369.144004,691.254706 L369.144004,691.254706 L369.910419,691.914976 C370.727998,692.615751 371.551301,693.31004 372.380246,693.997764 L370.198384,692.16133 L371.493338,693.25764 L371.493338,693.25764 L372.380246,693.997764 C373.106846,694.600578 373.837782,695.198348 374.572999,695.79102 L372.797677,694.343132 C373.608121,695.011827 374.423922,695.674262 375.245005,696.330363 L375.658918,696.660216 L375.658918,696.660216 L375.245005,696.330363 C376.025546,696.954068 376.810861,697.57205 377.600886,698.184244 L378.743581,699.063178 L378.743581,699.063178 L380.133142,700.114568 L380.133142,700.114568 L381.228784,700.930308 L382.422741,701.806155 L382.422741,701.806155 L383.623395,702.673358 C384.380393,703.215879 385.141334,703.753247 385.906167,704.28541 L384.427103,703.246367 L385.625882,704.090036 L385.625882,704.090036 L386.831096,704.925124 L388.15167,705.825284 L389.245619,706.559367 L390.577666,707.439244 L391.817031,708.244306 L391.817031,708.244306 L393.062691,709.040442 L394.250431,709.787573 L394.250431,709.787573 L395.443758,710.526588 C396.408964,711.119656 397.37959,711.704758 398.355544,712.281804 L396.364771,711.089084 L397.568051,711.813749 L397.568051,711.813749 L398.355544,712.281804 C399.307347,712.844569 400.264219,713.399673 401.226072,713.947028 L398.776813,712.530189 C399.804257,713.13429 400.837572,713.729476 401.876654,714.315639 L401.226072,713.947028 C402.057883,714.420381 402.89342,714.887939 403.732629,715.349648 L401.876654,714.315639 L403.193766,715.052097 L403.193766,715.052097 L403.732629,715.349648 L404.971231,716.025399 L404.971231,716.025399 L406.215103,716.692652 L407.20405,717.215107 L408.697193,717.990561 L409.802466,718.554327 L411.271107,719.290096 L412.331322,719.811882 L413.800806,720.522238 L414.970653,721.077178 L416.39741,721.741437 L417.5152,722.252302 L419.019207,722.926575 L420.160175,723.428152 L421.613002,724.054533 L422.785476,724.550086 L424.282301,725.169926 L425.449451,725.643369 L427.062425,726.28354 C429.174736,727.111229 431.304555,727.904027 433.45117,728.661227 L434.799522,729.131399 L434.799522,729.131399 L436.152239,729.592198 L437.251639,729.958723 L438.58905,730.39501 L438.58905,730.39501 L438.930479,730.504712 C439.855419,730.800975 440.783289,731.09069 441.714036,731.3738 L439.930573,730.822135 L441.371815,731.269368 L441.371815,731.269368 L442.817686,731.706005 L444.371286,732.161837 L445.722834,732.547224 L447.174092,732.949556 L448.490893,733.30438 L449.978964,733.69371 L451.294498,734.027668 L452.804014,734.39911 L454.149827,734.719732 L455.602882,735.054812 L456.971054,735.359847 L458.485973,735.685812 C466.760998,737.43264 475.224684,738.667845 483.842389,739.356783 C480.262212,818.740404 414.768641,882 334.5,882 C251.93343,882 185,815.06657 185,732.5 C185,718.469477 186.932779,704.890379 190.545206,692.01627 C176.426517,674.135195 168,651.551657 168,627 C168,584.556769 193.182762,547.995287 229.419016,531.444695 C229.141659,528.333523 229,525.183304 229,522 C229,475.943225 258.653335,436.812357 299.909412,422.657989 C358.546154,322.916103 444.374796,260 540,260 Z" id="Path" fill="#000000"></path>
    </g>
</svg>