<?xml version="1.0" encoding="UTF-8"?>
<svg width="1080px" height="1080px" viewBox="0 0 1080 1080" version="1.1" xmlns="http://www.w3.org/2000/svg" xmlns:xlink="http://www.w3.org/1999/xlink">
    <title>Hairstyle/ Black/ 17</title>
    <g id="Hairstyle/-Black/-17" stroke="none" stroke-width="1" fill="none" fill-rule="evenodd">
        <path d="M540,260 C714.963809,260 828.708376,505.910344 830.965771,768.051594 L831,776 L831,778.7914 C830.7454,870.6238 818.08,934.36 793,970 C755,1024 613,1003 601,995 C589,987 635,907 635,859 C635,827.432432 630.134222,800.081872 620.402666,776.94832 L619.999084,776 L620.001881,700.013234 C660.104583,669.890191 688.51519,625.042753 697.207103,573.497521 C721.956886,566.101267 740,543.157731 740,516 C740,487.814809 720.565807,464.168716 694.366643,457.730945 C681.817031,493.059641 667.361724,507.148326 651,500 C639.18298,494.837224 624.026957,461.315556 586.15462,423.157694 L585,422 C570.008122,407.041024 539.674789,383.041024 494,350 C475.443976,371.00709 451.443976,388.340423 422,402 C398.76595,412.778683 368.543884,422.939112 331.333802,432.481287 C311.495814,463.530245 300,500.422627 300,540 C300,636.75746 368.709172,717.467034 459.997577,735.998784 L460,776 C449.333333,822 445.333333,868.333333 448,915 C452,985 505.040408,1057.53899 446,1034 C386.959592,1010.46101 308.236162,1099.21818 270,1026 C246.385086,980.779952 217.572089,885.152522 240,585 L240.075799,584.035039 C241.241147,569.87324 245.289216,548.322561 252.220006,519.383001 C252.460414,518.185352 252.720891,517.057436 253,516 L253.367559,514.632018 L254.172253,511.345553 C254.444326,510.240217 254.720242,509.125032 255,508 L255.12455,508.161072 C303.022201,335.995886 406.849792,260 540,260 Z" id="Path" fill="#000000"></path>
    </g>
</svg>