<?xml version="1.0" encoding="UTF-8"?>
<svg width="1080px" height="1080px" viewBox="0 0 1080 1080" version="1.1" xmlns="http://www.w3.org/2000/svg" xmlns:xlink="http://www.w3.org/1999/xlink">
    <title>Hairstyle/ Black/ 18</title>
    <g id="Hairstyle/-Black/-18" stroke="none" stroke-width="1" fill="none" fill-rule="evenodd" stroke-linecap="round" stroke-linejoin="round">
        <path d="M709,257 C797,311 848,392 840,514 C832.08,634.78 801.6177,660.4903 774.811173,695.923192 L774,697 C747,733 710.192857,746.373469 680,755 C659.871428,760.75102 613.538095,764.75102 541,767 L544.087102,764.609062 C569.928867,744.544349 590.017481,727.65728 604.352945,713.947856 L605.297165,712.504186 C618.547763,692.181321 626.449265,677.346149 629,668 C635.089997,645.685638 631.91508,623.334653 628,611 C616.652402,575.248828 572,567 553,503 C540.333333,460.333333 516.333333,413 481,361 L478.757744,363.438128 C450.046006,394.564511 423.793424,419.418469 400,438 C380.865347,452.943253 352.56261,461.498231 315.091789,463.664935 C305.363866,487.184083 300,512.965642 300,540 C300,544.555458 300.152303,549.075343 300.452096,553.554842 C292.826307,542.986794 286.816102,532.801674 284.171314,523.611217 L284,523 C281,512 251,454 272,393 C293,332 379,240 456,218 C533,196 621,203 709,257 Z M442.997682,731.759522 L440.888241,732.807574 C432.838931,736.781956 425.876184,739.846097 420,742 C395.784954,750.875972 361.451621,755.209305 317,755 C339.964683,738.919503 352.964683,722.252837 356,705 L356.411936,702.682361 C357.905157,694.368082 359.209446,688.056805 360.337984,683.152738 C383.243507,705.50952 411.496903,722.409764 442.997682,731.759522 Z" id="Shape" stroke="#000000" stroke-width="12" fill="#000000"></path>
    </g>
</svg>