<?xml version="1.0" encoding="UTF-8"?>
<svg width="1080px" height="1080px" viewBox="0 0 1080 1080" version="1.1" xmlns="http://www.w3.org/2000/svg" xmlns:xlink="http://www.w3.org/1999/xlink">
    <title>Hairstyle/ Black/ 19</title>
    <g id="Hairstyle/-Black/-19" stroke="none" stroke-width="1" fill="none" fill-rule="evenodd" stroke-linecap="round" stroke-linejoin="round">
        <path d="M764,239 C883,280 949.253903,486.389895 976,617 C1016,812.333333 1041.33333,965 1052,1075 L825,1075 C800.3884,1047.97677 785.721733,1023.97677 781,1003 C763.222178,924.020261 786.732319,871.09243 771,832 L770.439046,830.626788 C766.887633,822.054741 761.074618,810.179145 753,795 C739.494983,845.421805 735.828316,900.088472 742,959 C749.333333,1029 759,1067.66667 771,1075 L736,1075 C715.333333,1074.33333 698.333333,1031.66667 685,947 C665,820 730,777 712,712 C697.866688,660.96304 681.323906,655.888914 670.535473,639.532087 C683.657863,618.176035 692.878362,594.166606 697.20726,568.495749 C721.958349,561.099407 740,538.15663 740,511 C740,478.387138 713.980296,451.851504 681.567878,451.020087 L681.135224,450.095378 C662.204539,451.040435 646.492798,459.008643 634,474 C620.666667,490 616.333333,507.333333 621,526 L619.025418,524.61618 C587.012102,502.128388 566.670296,485.256328 558,474 C537.882576,447.882286 538.978397,418.771198 531.785422,414.298147 C492.564584,389.908132 434.451619,395.421297 368,439 C356.614266,446.466719 335.735197,440.931642 316,460 L315.637143,460.358849 C312.175704,463.853629 302.583948,475.41883 300,490 L299.922118,490.471494 C299.234165,494.940451 299.260125,503.449953 300,516 L299.663691,514.007573 C294.861857,485.287135 293.307293,463.951278 295,450 C298.194874,423.66787 312.613513,392.134134 319,380 C336.368041,347.001241 365.933727,317.288659 387,305 C446.623178,270.219813 548.707939,270.00138 601.995527,304.344702 C640.299949,236.768127 694.30316,214.986803 764,239 Z" id="Path" stroke="#000000" stroke-width="12" fill="#000000"></path>
    </g>
</svg>