<?xml version="1.0" encoding="UTF-8"?>
<svg width="1080px" height="1080px" viewBox="0 0 1080 1080" version="1.1" xmlns="http://www.w3.org/2000/svg" xmlns:xlink="http://www.w3.org/1999/xlink">
    <title>Hairstyle/ Black/ 2</title>
    <g id="Hairstyle/-Black/-2" stroke="none" stroke-width="1" fill="none" fill-rule="evenodd" stroke-linecap="round" stroke-linejoin="round">
        <path d="M711,300 C754.075974,347.690476 760.475907,406.889948 730.199799,477.598418 C719.23646,463.253669 701.948885,454 682.5,454 C654.834337,454 631.541979,472.724348 624.604401,498.191571 C617.647203,515.199431 610.445211,540.80281 603,575 C599.666667,549.666667 597,531 595,519 C593,507 587.666667,493.666667 579,479 C564.333333,486.333333 551.333333,490.666667 540,492 C528.666667,493.333333 509.666667,492.333333 483,489 C505,481.666667 521.666667,474 533,466 C544.333333,458 553.333333,446.666667 560,432 C525.726349,454.842485 494.393016,469.175818 466,475 C447.319416,478.831897 417.561013,487.364655 377,485 C362.94098,484.180377 339.274313,480.847044 306,475 C296.666667,409 302.666667,357.333333 324,320 C345.333333,282.666667 382.778274,266.701667 436.334821,272.105 C465.44494,256.035 490,246.333333 510,243 C540,238 631.30213,211.764518 711,300 Z" id="Hair" stroke="#000000" stroke-width="12" fill="#000000"></path>
    </g>
</svg>