<?xml version="1.0" encoding="UTF-8"?>
<svg width="1080px" height="1080px" viewBox="0 0 1080 1080" version="1.1" xmlns="http://www.w3.org/2000/svg" xmlns:xlink="http://www.w3.org/1999/xlink">
    <title>Hairstyle/ Black/ 20</title>
    <g id="Hairstyle/-Black/-20" stroke="none" stroke-width="1" fill="none" fill-rule="evenodd" stroke-linecap="round" stroke-linejoin="round">
        <path d="M324,445 L365,445 L386,425 L386,445 L434,425 L423,445 L471,425 L461,445 L518,445 L630,445 C646,480.333333 650.666667,518.666667 644,560 C637.333333,601.333333 628,649 616,703 C631.161117,693.295829 642.49445,685.629162 650,680 C655.333333,676 656.333333,680 653,692 C669.869269,678.397067 681.535936,669.397067 688,665 C693.880014,661.000222 694.880014,665.333555 691,678 C765.666667,612 803,544.666667 803,476 C803,308.782187 665.669955,210 534,210 C402.330045,210 298.027827,287.363636 266,467 C244.648115,586.757576 283.314782,661.757576 382,692 C319.333333,648.666667 292,590 300,516 C301.598593,501.213019 309.598593,477.546352 324,445 Z" id="Path" stroke="#000000" stroke-width="12" fill="#000000"></path>
    </g>
</svg>