<?xml version="1.0" encoding="UTF-8"?>
<svg width="1080px" height="1080px" viewBox="0 0 1080 1080" version="1.1" xmlns="http://www.w3.org/2000/svg" xmlns:xlink="http://www.w3.org/1999/xlink">
    <title>Hairstyle/ Black/ 3</title>
    <g id="Hairstyle/-Black/-3" stroke="none" stroke-width="1" fill="none" fill-rule="evenodd" stroke-linecap="round" stroke-linejoin="round">
        <path d="M678.478799,241.065984 L589.966078,279.084973 C634.352211,278.776649 667.1347,281.039684 688.313545,285.874078 C709.49239,290.708472 738.177068,302.476255 774.367579,321.177425 L712.900412,345.618204 C744.514821,357.964038 769.101688,372.447462 786.661013,389.068477 C804.220338,405.689492 817.333333,425.604201 826,448.812603 C787.921576,442.798078 755.367157,451.621475 728.336744,475.282793 C717.332713,462.265981 700.881668,454 682.5,454 C649.362915,454 622.5,480.862915 622.5,514 C622.5,528.776127 627.841285,542.304731 636.698411,552.760365 C628.215072,572.206639 618.315322,597.620471 607,629 C595.065342,568.432946 585.398675,531.099613 578,517 C566.901988,495.850581 510,431 446.132906,431.160929 C403.554844,431.268215 360.843875,440.881239 318,460 C268.194169,457.067805 247.798847,429.350501 256.814031,376.848088 C265.829216,324.345674 293.28455,303.073145 339.180035,313.030499 C349.014782,249.665517 387.124426,212.551742 453.508966,201.689174 C519.893507,190.826606 594.883451,203.952209 678.478799,241.065984 Z" id="Hair" stroke="#000000" stroke-width="12" fill="#000000"></path>
    </g>
</svg>