<?xml version="1.0" encoding="UTF-8"?>
<svg width="1080px" height="1080px" viewBox="0 0 1080 1080" version="1.1" xmlns="http://www.w3.org/2000/svg" xmlns:xlink="http://www.w3.org/1999/xlink">
    <title>Hairstyle/ Black/ 4</title>
    <g id="Hairstyle/-Black/-4" stroke="none" stroke-width="1" fill="none" fill-rule="evenodd" stroke-linecap="round" stroke-linejoin="round">
        <path d="M345.910847,186 C360.282984,205.930526 372.616318,219.597193 382.910847,227 C393.205376,234.402807 410.538709,242.069474 434.910847,250 C424.732506,241.693588 417.732506,234.026921 413.910847,227 C410.089188,219.973079 406.755855,208.639746 403.910847,193 C425.704764,208.815138 442.37143,220.148471 453.910847,227 C465.450263,233.851529 480.783597,241.518195 499.910847,250 C494.934257,239.89743 491.934257,232.230764 490.910847,227 C489.887437,221.769236 489.887437,214.10257 490.910847,204 C507.951929,221.864587 521.285263,234.197921 530.910847,241 C540.536431,247.802079 553.536431,256.135413 569.910847,266 C569.392355,256.407183 569.392355,249.407183 569.910847,245 C570.429339,240.592817 571.762672,236.259484 573.910847,232 C585.948795,250.465032 595.282129,263.798366 601.910847,272 C608.539565,280.201634 618.872898,291.201634 632.910847,305 C639.998845,302.820967 645.361896,298.820967 649,293 C652.638104,287.179033 656.638104,276.512366 661,261 C672.689295,274.38327 680.992911,289.049937 685.910847,305 C688.492763,313.373783 690.509734,320.249938 692.206348,327.210609 L692.494104,328.40499 C695.483545,340.960883 697.480312,354.08353 699.910847,377 C702.365935,400.147973 702.504605,426.712579 700.326857,456.69382 C694.695035,454.942699 688.707607,454 682.5,454 C654.72895,454 631.364588,472.867273 624.525832,498.482901 C614.764784,524.160956 610.256211,557.333493 611,598 C601.666667,568.666667 593.333333,545.666667 586,529 C575,504 539.750013,473.040752 540,472 C547.843671,439.345058 544.299423,419.574458 507.910847,409 C451.588361,392.632782 354.910847,429 331.910847,409 C308.910847,389 297.709677,358.653045 291.910847,330 C288.04496,310.89797 290.04496,281.231303 297.910847,241 C308.66495,253.69311 317.66495,262.026444 324.910847,266 C332.156744,269.973556 343.82341,272.973556 359.910847,275 C352.282186,260.503512 347.615519,247.836845 345.910847,237 C344.206175,226.163155 344.206175,209.163155 345.910847,186 Z" id="Hair" stroke="#000000" stroke-width="12" fill="#000000"></path>
    </g>
</svg>