<?xml version="1.0" encoding="UTF-8"?>
<svg width="1080px" height="1080px" viewBox="0 0 1080 1080" version="1.1" xmlns="http://www.w3.org/2000/svg" xmlns:xlink="http://www.w3.org/1999/xlink">
    <title>Hairstyle/ Black/ 5</title>
    <g id="Hairstyle/-Black/-5" stroke="none" stroke-width="1" fill="none" fill-rule="evenodd" stroke-linecap="round" stroke-linejoin="round">
        <path d="M332,432 C383.537607,383.739312 429.87094,367.072646 471,382 C478.431161,384.697061 536.188301,387.367283 556,407 C573.671017,424.511375 554,458.655858 554,469 C554,492 574.531758,485.129581 583,510 C588.055952,524.848847 594.055952,544.848847 601,570 C610.479377,518.315645 623.275296,484.552344 639.387755,468.710098 C655.500214,452.867851 679.805407,452.814428 712.303334,468.549829 C722.101111,438.183276 725.666667,412.333333 723,391 C719,359 687.355967,361.520433 680,346 C659.682258,303.131381 611.947371,263.33548 528.618254,256.504599 C519.215468,255.733809 500,240 485,245 C470,250 475.749532,256.300948 463.244025,257.602741 C450.417525,258.937947 430.253935,257.238525 417.54507,263.495117 C409.757164,267.329115 409.48632,278.554984 401.550435,282.350723 C382.218398,291.597249 361.4314,297.696469 358.136427,312.991082 C354.117645,331.645479 339.17414,337.155134 327.53221,362.092154 C324.975106,367.569474 326.464369,390.872089 332,432 Z" id="Path" stroke="#000000" stroke-width="12" fill="#000000"></path>
        <path d="M366,371 C391.496896,340.725996 412.163562,320.392662 428,310 C443.836438,299.607338 465.836438,291.940671 494,287" id="Path" stroke="#281F1F" stroke-width="12"></path>
        <path d="M436,371 C461.496896,340.725996 482.163562,320.392662 498,310 C513.836438,299.607338 535.836438,291.940671 564,287" id="Path" stroke="#281F1F" stroke-width="12" transform="translate(500.000000, 329.000000) rotate(15.000000) translate(-500.000000, -329.000000) "></path>
        <path d="M498,389 C523.496896,358.725996 544.163562,338.392662 560,328 C575.836438,317.607338 597.836438,309.940671 626,305" id="Path" stroke="#281F1F" stroke-width="12" transform="translate(562.000000, 347.000000) rotate(28.000000) translate(-562.000000, -347.000000) "></path>
    </g>
</svg>