<?xml version="1.0" encoding="UTF-8"?>
<svg width="1080px" height="1080px" viewBox="0 0 1080 1080" version="1.1" xmlns="http://www.w3.org/2000/svg" xmlns:xlink="http://www.w3.org/1999/xlink">
    <title>Hairstyle/ Black/ 6</title>
    <g id="Hairstyle/-Black/-6" stroke="none" stroke-width="1" fill="none" fill-rule="evenodd" stroke-linecap="round" stroke-linejoin="round">
        <path d="M334.946809,516 C329.682164,489.173587 322.348831,472.840253 312.946809,467 C263.241714,436.12469 266.014565,496.527632 249.946809,445 C230.613475,383 242.613475,348 285.946809,340 C277.280142,257.333333 315.280142,211.666667 399.946809,203 C526.946809,190 515.386856,224.208333 635.489865,270.204729 C644.479303,273.647455 659.298284,271.912545 679.946809,265 L661.489865,297.204729 C673.97941,297.298053 683.312744,295.964719 689.489865,293.204729 C695.666986,290.444739 702.00032,284.778072 708.489865,276.204729 C708.737085,301.585346 705.8894,320.850436 699.946809,334 C694.004217,347.149564 681.33755,359.816231 661.946809,372 L708.946809,372 C677.564002,392.051133 637.897336,404.051133 589.946809,408 C565.11967,410.044588 527.132213,391.68532 489.946809,385 C466.857758,380.848971 426.37211,388.583881 368.489865,408.204729 L362.946809,500 L368.946809,560 L334.946809,516 Z" id="Hair" stroke="#000000" stroke-width="12" fill="#000000" transform="translate(474.973404, 380.107315) scale(-1, 1) translate(-474.973404, -380.107315) "></path>
    </g>
</svg>