<?xml version="1.0" encoding="UTF-8"?>
<svg width="1080px" height="1080px" viewBox="0 0 1080 1080" version="1.1" xmlns="http://www.w3.org/2000/svg" xmlns:xlink="http://www.w3.org/1999/xlink">
    <title>Hairstyle/ Black/ 7</title>
    <g id="Hairstyle/-Black/-7" stroke="none" stroke-width="1" fill="none" fill-rule="evenodd" stroke-linecap="round" stroke-linejoin="round">
        <path d="M320,427.76825 C374.366957,389.747 422.114965,378.200052 463.244025,393.127406 C477.303401,398.230107 493.997972,416.846152 505.077163,420.69544 C542.614289,433.737113 558.850435,427.856331 561.49678,449.694223 C563.781728,468.549829 577.500488,509.651755 602.653061,573 C611.030398,519.315645 623.275296,484.552344 639.387755,468.710098 C655.500214,452.867851 679.805407,452.814428 712.303334,468.549829 C724.489722,435.552519 722.204774,401.376734 705.44849,366.022473 C680.314065,312.991082 587.77368,244.639512 463.244025,257.602741 C450.417525,258.937947 430.253935,257.238525 417.54507,263.495117 C409.757164,267.329115 409.48632,278.554984 401.550435,282.350723 C382.218398,291.597249 361.4314,297.696469 358.136427,312.991082 C354.117645,331.645479 339.17414,337.155134 327.53221,362.092154 C324.975106,367.569474 322.464369,389.461506 320,427.76825 Z" id="Hair" stroke="#000000" stroke-width="4" fill="#000000"></path>
    </g>
</svg>