<?xml version="1.0" encoding="UTF-8"?>
<svg width="1080px" height="1080px" viewBox="0 0 1080 1080" version="1.1" xmlns="http://www.w3.org/2000/svg" xmlns:xlink="http://www.w3.org/1999/xlink">
    <title>Hairstyle/ Black/ 8</title>
    <g id="Hairstyle/-Black/-8" stroke="none" stroke-width="1" fill="none" fill-rule="evenodd">
        <path d="M711.96528,566.785429 C705.076765,586.644835 695.156447,605.104779 682.752939,621.618967 C686.864666,606.757075 689.308759,591.211206 689.873455,575.191059 C697.883277,573.865627 705.359135,570.952202 711.96528,566.785429 Z M510,287 C519.70015,287 528.392242,291.316013 534.260655,298.132419 C538.907584,295.501605 544.278433,294 550,294 C559.626114,294 568.259499,298.250381 574.125791,304.976779 C576.644707,304.338663 579.282804,304 582,304 C593.427341,304 603.455677,309.989853 609.116589,319.001142 C621.477785,319.044072 632.187909,326.097361 637.479173,336.39288 L637.621012,336.492437 L637.621012,336.492437 C648.852091,338.482199 658.059319,346.330272 661.972532,356.76601 C663.079415,357.84243 664.173132,358.931496 665.254289,360.03277 C675.428728,363.857355 683.141438,372.716029 685.354775,383.574885 C696.588235,386.025691 705,396.030509 705,408 C705,408.915107 704.950832,409.81873 704.854995,410.708372 C709.750259,413.809988 713,419.275485 713,425.5 C713,428.248917 712.366187,430.8498 711.236726,433.164482 C715.718185,445.632599 718.996527,458.667573 720.93743,472.13086 C710.213583,462.124154 695.821978,456 680,456 C672.415835,456 665.160326,457.407149 658.480313,459.97461 C622.4035,403.490855 558.862491,366 486.5,366 C419.659765,366 360.345984,397.987056 323.247061,447.381033 C329.079539,426.298545 338.267653,406.594568 350.205736,388.870316 C350.071255,388.102429 350,387.309536 350,386.5 C350,380.351109 354.110888,375.162367 359.734226,373.532212 C359.256648,371.938541 359,370.249242 359,368.5 C359,359.00244 366.565922,351.271995 375.99941,351.007022 C376,337.192881 387.192881,326 401,326 C403.130755,326 405.19925,326.266565 407.173957,326.768165 C411.619318,315.764112 422.402956,308 435,308 C438.337165,308 441.547064,308.544891 444.54558,309.550558 C450.140102,300.234072 460.342028,294 472,294 C477.173184,294 482.059656,295.227557 486.384018,297.407271 C492.233841,291.011356 500.648469,287 510,287 Z" id="Shape" fill="#000000"></path>
    </g>
</svg>