<?xml version="1.0" encoding="UTF-8"?>
<svg width="1080px" height="1080px" viewBox="0 0 1080 1080" version="1.1" xmlns="http://www.w3.org/2000/svg" xmlns:xlink="http://www.w3.org/1999/xlink">
    <title>Hairstyle/ Black/ 9</title>
    <g id="Hairstyle/-Black/-9" stroke="none" stroke-width="1" fill="none" fill-rule="evenodd" stroke-linecap="round" stroke-linejoin="round">
        <path d="M500,185 C563.392998,185 626.508801,247.78726 650.309291,285.015941 C658.429736,297.717925 732,288 749,332 C765.83,375.56 732.6749,428.921 715.515032,455.211638 L715,456 C713.762695,457.892348 712.54684,459.692847 711.35148,461.40406 L711.357362,461.382541 C702.79515,456.676712 692.960165,454 682.5,454 C669.350904,454 657.189722,458.229766 647.302852,465.402902 C621.348253,427.732986 592.526868,358 523,358 C402.325782,358 287,512.674218 287,392 C287,271.325782 379.325782,185 500,185 Z" id="Path" stroke="#000000" stroke-width="12" fill="#000000"></path>
    </g>
</svg>