<svg width="242px" height="106px" viewBox="0 0 242 106" version="1.1" xmlns="http://www.w3.org/2000/svg" xmlns:xlink="http://www.w3.org/1999/xlink">
    <!-- Generator: Sketch 49.2 (51160) - http://www.bohemiancoding.com/sketch -->
    <desc>Phong Signature</desc>
    <defs></defs>
    <g id="Page-1" stroke="none" fill="none" fill-rule="evenodd">
        <g id="Artboard-3" transform="translate(-131.000000, -198.000000)" stroke="#000000">
            <path d="M136.406221,199.314807 C137.707286,255.506664 139.757309,287.380449 142.556291,294.936161" id="path1" class="stroke-H1"></path>
            <path d="M164.533677,200.327515 L164.533677,283.178132" id="path2" class="stroke-H2"></path>
            <path d="M131.51108,257.655113 C144.498661,242.695942 168.283082,233.598484 202.864342,230.362738" id="path3"  class="stroke-H3"></path>
            <path d="M171.38401,240.945412 C170.488053,258.325743 172.343844,267.015908 176.951381,267.015908 C181.558918,267.015908 184.984715,258.687625 187.228772,242.031058 C186.226167,255.673145 186.226167,263.445969 187.228772,265.349529" id="path4" class="stroke-U1"></path>
            <path d="M194.348375,241.571971 C192.936397,257.161499 194.724421,265.72863 199.712449,267.273363 C204.700476,268.818097 208.276802,260.544248 210.441428,242.451819 C209.114435,255.981703 209.114435,263.726199 210.441428,265.685305" id="path5"  class="stroke-U2"></path>
            <path d="M228.262516,211.667137 C231.621936,250.029954 232.036031,277.791546 229.504801,294.951915" id="path6" class="stroke-P1"></path>
            <path d="M217.133605,223.057669 C218.845532,208.772915 227.479596,201.015089 243.035797,199.78419 C266.370099,197.937843 274.866964,204.906607 277.332371,208.092755 C279.797779,211.278903 295.800847,235.161411 226.98607,257.16261" id="path7" class="stroke-P2"></path>
            <path d="M286.392473,214.030062 C285.465966,246.000094 286.205561,263.279331 288.611256,265.867773 C292.219799,269.750436 279.396182,249.076507 295.386752,239.948918 C296.871081,239.101647 298.412191,239.703651 299.419389,240.188928 C300.846107,240.876332 301.552691,241.860264 302.541349,242.741768 C308.373688,247.941977 305.335867,265.867773 305.335867,265.867773" id="path8" class="stroke-H"></path>
            <path d="M320.468252,241.638626 C314.245994,244.273726 311.438979,249.006519 312.047207,255.837006 C312.655435,262.667493 315.059464,266.082736 319.259294,266.082736 C323.702971,264.780183 326.296412,260.706165 327.039617,253.860681 C327.782822,247.015197 325.189381,244.921114 319.259294,247.578433" id="path9" class="stroke-O"></path>
            <path d="M333.333529,248.522436 C334.517769,258.022462 335.109889,263.931441 335.109889,266.249374 C335.109889,269.726273 332.062082,249.507266 340.492293,241.907746 C348.922503,234.308226 349.322434,262.421702 347.697714,266.249374" id="path10" class="stroke-N"></path>
            <path d="M367.671039,250.677201 C364.855362,258.215093 361.549552,263.413425 357.753607,266.272196 C352.059689,270.560352 354.746601,253.947446 356.784761,249.555707 C358.82292,245.163969 360.7684,239.50354 367.671039,241.138273 C374.573677,242.773006 372.339257,276.969222 365.696742,289.751136 C359.054228,302.53305 339.329177,310.909207 330.375139,292.349263" id="path11" class="stroke-G"></path>
        </g>
    </g>
</svg>