<?xml version="1.0" encoding="UTF-8"?>
<svg width="445px" height="445px" viewBox="0 0 445 445" version="1.1" xmlns="http://www.w3.org/2000/svg" xmlns:xlink="http://www.w3.org/1999/xlink">
    <title>phong-vn-safari-pinned-tab</title>
    <g id="Favicons" stroke="none" stroke-width="1" fill="none" fill-rule="evenodd">
        <g id="android-chrome-512x512" transform="translate(-34.000000, -34.000000)">
            <g id="PHONG.VN" transform="translate(34.000000, 34.000000)">
                <path d="M60.5846073,4.80698247e-15 L384.215393,-5.75960143e-15 C405.281981,3.34649429e-15 412.921234,2.19346919 420.622864,6.31234579 C428.324494,10.4312224 434.368778,16.4755064 438.487654,24.177136 C442.606531,31.8787657 444.8,39.5180195 444.8,60.5846073 L444.8,384.215393 C444.8,405.281981 442.606531,412.921234 438.487654,420.622864 C434.368778,428.324494 428.324494,434.368778 420.622864,438.487654 C412.921234,442.606531 405.281981,444.8 384.215393,444.8 L60.5846073,444.8 C39.5180195,444.8 31.8787657,442.606531 24.177136,438.487654 C16.4755064,434.368778 10.4312224,428.324494 6.31234579,420.622864 C2.19346919,412.921234 7.04733524e-15,405.281981 -1.21290636e-14,384.215393 L5.25913032e-15,60.5846073 C-3.05570617e-15,39.5180195 2.19346919,31.8787657 6.31234579,24.177136 C10.4312224,16.4755064 16.4755064,10.4312224 24.177136,6.31234579 C31.8787657,2.19346919 39.5180195,-2.79299524e-15 60.5846073,4.80698247e-15 Z" id="Rectangle" fill="#FFFFFF"></path>
                <path d="M160.976493,383.64 L160.976493,250.247931 L260.58218,250.247931 C305.958104,250.247931 339.16,218.277931 339.16,175.283793 L339.16,138.352931 C339.16,95.3587931 305.958104,63.94 260.58218,63.94 L105.64,63.94 L105.64,383.64 L160.976493,383.64 Z M264.455735,198.98569 L160.976493,198.98569 L160.976493,114.099828 L264.455735,114.099828 C274.416303,114.099828 283.823507,123.470345 283.823507,134.494483 L283.823507,179.142241 C283.823507,189.615172 274.416303,198.98569 264.455735,198.98569 Z" id="P" fill="#000000" fill-rule="nonzero"></path>
            </g>
        </g>
    </g>
</svg>