<?xml version="1.0" encoding="UTF-8"?>
<svg width="99px" height="99px" viewBox="0 0 99 99" version="1.1" xmlns="http://www.w3.org/2000/svg" xmlns:xlink="http://www.w3.org/1999/xlink">
    <title>rocket-ios</title>
    <defs>
        <polygon id="path-1" points="0.053504 0.302896 4.0192465 0.302896 4.0192465 7.48 0.053504 7.48"></polygon>
    </defs>
    <g id="rocket-ios" stroke="none" stroke-width="1" fill="none" fill-rule="evenodd">
        <g>
            <g id="Group-332" transform="translate(4.000000, 6.000000)">
                <path d="M60.268208,52.967024 C56.374648,57.654344 55.124168,63.001664 56.304688,68.943864 C56.464848,69.749944 56.258048,70.408184 55.656568,70.912424 C52.375488,73.664184 49.089128,76.408904 45.780768,79.127224 C45.281808,79.537744 44.659648,79.797784 44.094248,80.127344 C42.883808,80.676024 42.035928,80.183664 41.751248,79.028224 C40.854088,75.389424 39.795888,71.776584 39.538488,68.007544 C39.840328,66.465784 41.591528,65.637704 41.552808,63.925664 C41.558528,63.713144 41.605168,63.508544 41.690968,63.314064 C41.761368,63.301304 41.889408,63.261264 41.897328,63.278424 C42.999528,65.596344 44.090288,64.431664 45.440208,63.424064 C48.130808,61.415024 50.833288,59.410824 53.659408,57.589224 C54.550408,57.014584 55.235928,56.303104 55.622688,55.311344 C56.941368,54.075824 58.261808,52.839864 60.268208,52.967024" id="Fill-1" fill="#F00300"></path>
                <path d="M60.268208,52.967024 C58.801688,53.820184 57.335168,54.674224 55.868648,55.527824 C55.427768,55.919864 54.963128,56.267904 54.357248,56.361184 C52.959808,56.413984 51.609888,56.846064 50.212008,56.9094826 C47.909488,56.916904 46.005608,56.209384 44.959288,53.969344 C44.920568,53.482704 45.065768,53.038744 45.277848,52.610184 C45.772408,51.859544 46.111648,50.940824 47.187448,50.800904 C51.982128,52.901024 56.273888,51.471464 60.382168,48.884704 C61.364688,48.265624 62.253488,47.491224 63.435768,47.252744 C64.361528,47.209184 65.075648,47.707704 65.800328,48.181144 C65.861488,48.269584 65.920888,48.359344 65.979408,48.449104 C64.438528,50.413264 62.301448,51.624584 60.268208,52.967024" id="Fill-3" fill="#163858"></path>
                <path d="M86.655712,21.51776 C85.237592,25.83768 82.689112,29.54644 80.234352,33.297 C76.677392,38.73232 72.184112,43.362 67.544312,47.861 C67.082312,48.30936 66.588632,48.4836 65.980112,48.44928 C65.979672,48.44928 65.833152,48.31992 65.833152,48.31992 C65.306472,47.81524 64.789472,47.30484 64.833472,46.48776 C64.998912,45.70676 65.603912,45.28612 66.182512,44.8404 C73.930472,38.87004 79.666752,31.23516 84.426672,22.79112 C84.792752,22.14124 85.039152,21.47244 84.905832,20.713 C84.787032,19.899 84.378272,19.18224 84.130112,18.41092 C84.033752,17.97092 84.050032,17.55028 84.344392,17.17848 C84.707832,17.00952 84.974912,17.1842 85.225272,17.42224 C86.030472,18.67184 87.390512,19.73004 86.655712,21.51776" id="Fill-5" fill="#333C3E"></path>
                <path d="M10.93642,65.906192 C10.93422,64.742832 11.29414,63.786272 12.38578,63.195352 C13.55398,62.563072 13.5553,61.129552 14.36314,60.244272 C15.0909,60.127672 15.79754,59.170232 16.55522,60.189272 C17.1985,61.778992 15.90226,62.776912 15.39362,64.016392 C14.64254,66.560472 13.86594,69.097072 13.25698,71.679872 C12.4509,72.269032 11.75614,70.565792 10.93642,71.572952 C10.6909,72.108872 10.68474,72.731032 11.2717,72.871392 C14.00806,73.525232 12.56706,74.758992 11.76098,75.928952 C11.31658,76.523392 11.03102,77.073832 12.10858,77.272712 C12.79938,77.400312 13.53682,77.315832 14.17174,77.718872 C14.67906,78.155352 15.1349,78.638472 15.54234,79.170432 C15.81646,81.344472 15.23962,81.729472 12.7897,81.015352 C11.55198,80.020072 9.86634,79.861232 8.6515,78.817552 C8.13318,77.942392 8.18994,76.886832 7.76094,75.981312 C8.1587,74.880432 8.22426,73.736872 8.24538,72.577032 C8.2775,70.818352 8.42886,69.130952 10.1849,68.047232 C10.8823,67.616912 11.0869,66.762872 10.93642,65.906192" id="Fill-7" fill="#F9B903"></path>
                <path d="M14.989216,33.100408 C15.489496,31.501008 16.552536,31.017888 18.169096,31.342168 C19.651896,31.639168 21.167256,31.775568 22.668096,31.983248 C22.186296,32.747968 21.391656,32.111288 20.861896,32.369128 C22.796576,32.530608 24.799456,31.636528 26.786936,32.458008 C27.034656,33.524568 26.152456,33.417648 25.596736,33.519288 C24.670536,33.688688 23.709576,33.681208 22.779416,33.587928 C19.924256,33.301488 18.410216,35.181608 17.022016,37.156328 C16.325496,38.147208 16.401176,39.211568 17.620856,39.937568 C18.044576,40.189688 18.836136,40.306288 18.326176,41.141408 C16.441216,41.930768 14.667136,41.237768 12.877656,40.743208 C12.005576,39.930088 12.361096,38.967368 12.754896,38.170528 C13.575936,36.510848 14.151456,34.748648 14.989216,33.100408" id="Fill-9" fill="#FB1712"></path>
                <path d="M42.175364,21.148424 C41.818084,20.598424 42.129604,20.130704 42.471484,19.791464 C48.118884,14.186304 54.350604,9.351584 61.457924,5.730824 C63.174364,4.856544 64.684444,3.384744 66.832524,3.537864 C67.106644,3.694064 67.392204,3.841464 67.3882847,4.222504 C65.143364,5.943344 62.400844,6.734904 59.998004,8.170184 C58.780084,8.897944 57.448644,9.435624 56.438844,10.482384 C55.996204,11.703384 54.931844,12.080024 53.837124,12.417944 C50.189524,14.408064 47.353724,17.361784 44.478324,20.271064 C43.972324,20.782784 43.616364,21.474464 42.859564,21.707664 C42.494364,21.688744 42.349604,21.400104 42.175364,21.148424" id="Fill-11" fill="#A9A7A7"></path>
                <path d="M18.946664,51.513352 C18.813784,52.338792 18.291504,52.894952 17.659224,53.374992 C14.767104,52.997032 12.268784,51.334712 9.370064,50.888552 C8.098024,50.693192 6.843144,50.332392 5.536344,50.264192 C4.729824,50.221952 3.954984,50.029672 3.402344,49.354272 C3.911864,46.636832 5.113504,46.096512 8.579384,47.019192 C9.391624,47.798432 9.391624,47.798432 9.400864,49.085872 C10.160744,47.436752 11.383504,47.609672 12.537624,48.206752 C14.672064,49.311592 16.943344,50.155072 18.946664,51.513352" id="Fill-13" fill="#FDA114"></path>
                <path d="M3.514412,49.278548 C8.106692,49.823268 12.603932,50.731868 16.798012,52.780068 C17.108212,52.931428 17.373092,53.174308 17.659092,53.374948 C17.685492,53.522788 17.633572,53.633228 17.502892,53.707588 C14.323452,53.984348 11.163372,53.613428 8.053452,53.101268 C6.060252,52.772588 4.071892,52.393748 2.063732,52.144708 C0.833052,50.744188 2.623412,50.254468 2.920412,49.312868 C3.107412,49.119268 3.305852,49.107388 3.514412,49.278548" id="Fill-15" fill="#FEBA0F"></path>
                <path d="M26.817252,32.595508 L19.482892,32.595508 C20.692892,31.789428 21.768252,32.401028 22.669372,31.983028 C26.661932,31.872148 30.327572,30.712308 33.675532,28.537388 C34.064052,28.305508 34.277012,28.537828 34.465332,28.834828 C34.593812,30.495828 32.973292,31.058588 32.282052,32.219308 C30.150692,35.799588 27.799772,39.250068 25.928452,42.988308 C25.539492,43.384748 25.187052,43.879748 24.510772,43.549308 C24.145572,43.076308 24.116532,42.532908 24.178132,41.971028 C25.022052,39.514948 26.969052,37.710508 28.080492,35.407548 C28.491012,34.556148 29.022532,33.766348 29.415452,32.855988 C28.906372,32.447668 28.461092,32.940908 28.000852,32.929028 C27.557332,32.989748 27.148132,32.929908 26.817252,32.595508" id="Fill-17" fill="#C71310"></path>
                <path d="M24.141348,47.537908 C22.850388,47.677828 21.545788,47.783428 20.624428,48.886508 C19.985108,50.135668 19.046588,50.187148 17.909188,49.600188 C16.367428,48.805108 14.745588,48.190868 13.128588,47.566948 C12.297428,47.246628 11.470228,47.023108 10.668548,47.650548 C9.486268,48.575868 9.429068,47.505348 9.161548,46.802668 C9.331388,45.594428 7.715268,45.124068 7.951108,43.887668 C8.198828,43.721788 8.576348,43.522468 8.753668,43.675148 C10.309508,45.010548 12.223948,43.967748 13.888908,44.497948 C15.752308,45.091508 17.633748,45.634908 19.395948,46.506988 C20.050228,46.830828 20.711988,47.144548 21.462628,46.790788 C22.181588,46.579148 22.908468,46.527668 23.645908,46.675948 C23.850948,46.734468 24.033988,46.836108 24.198548,46.971188 C24.304588,47.172268 24.285228,47.361468 24.141348,47.537908" id="Fill-19" fill="#FA7305"></path>
                <path d="M86.655712,21.51776 C86.993632,19.7934 85.251672,19.02428 84.869312,17.6308 C86.430872,14.02632 88.048312,10.43636 87.752632,6.35536 C87.998592,5.22852 87.159512,3.72944 88.858792,3.09936 C90.909192,9.5722 88.840312,15.5518 86.655712,21.51776" id="Fill-21" fill="#164C81"></path>
                <path d="M39.99446,67.728496 C40.42214,71.545496 41.49926,75.231816 42.2477,78.984136 C42.4589,80.044976 43.2949,80.043656 44.09438,80.126816 C43.56858,81.271256 42.2169,81.159936 41.4161,81.887256 C40.06354,81.936536 40.00854,80.876576 39.8607,79.982496 C39.28166,76.473496 38.38142,73.050296 37.23434,69.686936 C37.63782,68.308416 38.37922,67.401576 39.99446,67.728496" id="Fill-23" fill="#F11E01"></path>
                <path d="M10.93642,65.906192 C11.83138,67.082752 11.6567,68.279552 10.39258,68.818112 C8.78482,69.504072 8.8583,70.696912 8.76942,72.030992 C8.67746,73.411272 9.40302,74.998352 7.90878,76.089552 C7.79966,77.082192 7.66062,78.084512 8.73422,78.704032 C10.18798,79.051632 11.64834,79.383832 12.75582,80.504952 C11.62018,81.287272 10.2619,79.926352 9.14782,80.885552 C9.0013,81.010952 8.83762,81.106872 8.65986,81.178152 C7.91802,81.304872 7.16562,81.025912 6.42378,81.237112 C6.12062,81.245912 5.8465,81.174192 5.62298,80.956832 C5.3361,80.186392 5.75982,79.408472 5.59878,78.635832 C5.64586,77.802472 5.69294,76.969552 5.73958,76.136192 C6.49066,75.177432 7.62146,74.417992 7.40718,72.953672 C7.60562,70.114352 8.43942,67.594032 10.93642,65.906192" id="Fill-25" fill="#F79609"></path>
                <path d="M38.297424,83.7133 C37.823984,84.14318 37.409944,84.61002 36.808904,84.92462 C35.347664,85.68846 34.584264,85.18686 34.910304,83.69218 C35.934624,78.99782 35.186184,74.32986 34.950784,69.65002 C35.574264,69.45554 36.067064,69.60206 36.391344,70.19826 C36.533464,70.52782 36.604744,70.87322 36.631584,71.2305 C37.252424,74.53358 36.749944,78.00738 38.238464,81.18814 C38.590024,81.93966 38.714984,82.8619 38.297424,83.7133" id="Fill-27" fill="#FD770C"></path>
                <path d="M5.246912,45.000164 C7.429752,41.074484 10.426152,37.799564 13.544432,34.621884 C14.535312,36.354164 12.792472,37.533364 12.649912,39.037724 C12.590512,39.666484 11.426272,40.410524 12.860672,40.872084 C13.395272,41.373244 13.865632,41.899924 13.712512,42.714364 C13.140512,43.157884 12.363472,43.213764 11.825792,43.742204 C11.478632,44.083204 11.086152,44.139524 10.712592,43.707444 C9.412392,42.205724 8.348032,42.923804 7.341752,44.087164 C6.722672,44.570284 6.420832,45.792164 5.246912,45.000164" id="Fill-29" fill="#F6301C"></path>
                <path d="M1.771836,51.961096 C3.400716,50.925336 5.165556,51.717776 6.602156,52.112456 C10.199596,53.101576 13.907916,52.962536 17.503596,53.707456 C15.404796,54.524096 13.210516,54.115336 11.113916,53.936696 C7.899276,53.663016 4.754156,54.095536 1.580436,54.261856 C0.600996,54.365256 0.493636,53.789296 0.620796,53.030736 C0.894036,52.555976 1.266716,52.187256 1.771836,51.961096" id="Fill-31" fill="#FDD71B"></path>
                <path d="M9.674852,46.646292 C9.858332,46.945492 9.494452,48.330172 10.352452,47.263172 C11.134772,46.290332 11.767932,46.483492 12.549812,46.791492 C14.424212,47.529372 16.319292,48.243932 18.111412,49.154732 C19.120332,49.667772 19.846772,49.537092 20.624692,48.886332 C20.436812,49.999532 19.431852,50.590012 18.946532,51.513132 C16.814732,51.309852 15.140972,50.025492 13.303092,49.126572 C11.961092,48.470532 10.591372,47.431692 9.438572,49.462292 C9.058412,48.758732 9.491372,47.964092 8.803652,47.522772 C8.670332,46.809092 8.966452,46.523092 9.674852,46.646292" id="Fill-33" fill="#FD8D07"></path>
                <path d="M36.101912,70.814524 L36.039432,70.068284 C36.217192,69.402124 36.607032,69.161444 37.264392,69.458004 C38.914832,71.005484 38.899872,73.237164 39.513232,75.182844 C40.052672,76.894444 40.190392,78.737604 40.455712,80.529724 C40.551632,81.179604 40.862712,81.599804 41.416672,81.886684 C41.141672,82.417764 40.676152,82.679124 40.116472,82.807604 C38.307632,82.648764 38.283432,81.209964 38.131632,79.939684 C37.758952,76.827564 37.260432,73.749324 36.101912,70.814524" id="Fill-35" fill="#F74102"></path>
                <path d="M50.146492,56.33276 C51.645132,56.35212 53.070292,55.59664 54.596652,55.90948 C54.487532,57.07856 53.497092,57.3628 52.665932,57.71656 C50.870732,58.4804 49.063652,59.22268 47.227972,59.88708 C45.163492,60.23204 43.158852,60.8058 41.188092,61.50628 L40.769652,61.072 C40.533812,60.5154 40.757332,60.05384 41.067092,59.60812 C41.612692,59.0172 41.753052,58.03776 42.727652,57.84944 C45.258092,57.62416 47.687772,56.90916 50.146492,56.33276" id="Fill-37" fill="#570713"></path>
                <path d="M88.858748,3.099404 C87.918028,4.171244 88.594308,5.459564 88.385308,6.629084 C87.684828,8.888044 87.317868,11.232364 86.626628,13.494844 C86.209508,14.860164 86.007108,16.336364 84.417388,16.940044 C83.817228,16.826524 83.696668,16.397084 83.712068,15.876124 C85.512988,11.344124 85.928788,6.552084 86.352508,1.760484 C86.600668,1.255364 86.923628,0.965404 87.482428,1.376804 C87.931228,1.959364 89.208988,1.879284 88.858748,3.099404" id="Fill-39" fill="#3A6397"></path>
                <path d="M36.101912,70.814524 C38.402232,73.316804 38.182232,76.577204 38.657432,79.601324 C38.855872,80.864564 38.891952,82.067964 40.116912,82.807164 C39.634232,83.359364 38.969392,83.542844 38.297512,83.712684 C36.693272,79.562164 36.220272,75.218484 36.101912,70.814524" id="Fill-41" fill="#FB5D02"></path>
                <path d="M87.482428,1.377024 C87.120748,1.389344 86.776668,1.441264 86.572948,1.795904 C84.549828,2.188384 82.504268,1.978944 80.471028,1.983344 C78.782308,1.987304 77.116908,2.132944 75.454588,2.380664 C73.963868,2.288704 72.519788,3.002384 71.011028,2.648624 C70.654188,2.498144 70.318028,2.328744 70.383588,1.846944 C75.418948,0.425744 80.495228,-0.573056 85.758068,0.368104 C86.458108,0.493064 87.251868,0.452144 87.482428,1.377024" id="Fill-43" fill="#91A9C3"></path>
                <path d="M8.830096,80.904428 C8.827896,80.232988 8.732416,79.550108 9.840336,79.892428 C10.785016,80.184148 11.781616,80.307348 12.755776,80.504908 C13.532816,80.878908 14.379816,81.283268 15.135296,80.659348 C15.617976,80.260708 15.464856,79.629748 14.986136,79.172148 C16.258616,77.532708 17.825016,77.828388 19.449056,78.488388 C19.985856,78.630068 20.558736,78.665268 21.032176,79.003628 C21.221816,79.174788 21.252616,79.372788 21.125016,79.594108 C19.779496,80.481148 18.110136,80.302508 16.642296,81.056668 C15.533936,81.626028 14.384656,82.244668 13.216896,82.760788 C12.198296,81.879908 11.004136,81.594788 9.686336,81.723268 C9.251616,81.605788 8.918096,81.383148 8.830096,80.904428" id="Fill-45" fill="#F27908"></path>
                <path d="M70.383456,1.846856 C70.533936,1.983256 70.684856,2.119656 70.835336,2.255616 C71.084376,2.678896 70.800576,3.097336 70.837976,3.516656 C71.412176,4.626336 73.221456,5.034216 72.684216,6.766936 C72.639776,6.822816 72.591376,6.925776 72.548256,6.923576 C70.366296,6.799936 68.766456,8.408576 66.778096,8.862216 C66.237776,8.845496 65.722536,8.772896 65.422016,8.239176 C65.572056,6.930176 66.703296,6.361696 67.492216,5.544176 C68.042656,4.973936 68.810896,4.584976 68.888336,3.670216 C68.932776,3.200736 68.760296,2.707936 69.033536,2.263536 C69.448016,2.010536 69.858536,1.742576 70.383456,1.846856" id="Fill-47" fill="#A2B3BD"></path>
                <path d="M37.800488,25.03732 C38.634728,24.27612 39.295168,23.3112 40.373168,22.8338 C41.021728,22.82852 41.532128,22.35068 42.170128,22.30492 C43.748848,21.84644 44.629728,20.41644 45.946648,19.59804 C46.758888,19.09292 47.495008,18.17684 48.598528,19.04892 C48.874848,19.56108 48.865168,20.08424 48.666288,20.61576 C46.816088,22.39512 44.692648,23.76308 42.335128,24.77376 C40.477008,23.9954 39.913808,25.91996 38.713488,26.5144 C38.209248,26.14656 37.987048,25.60272 37.800488,25.03732" id="Fill-49" fill="#A9B7C1"></path>
                <path d="M9.674852,46.646292 C9.259052,46.813932 8.966892,47.104332 8.803652,47.522772 C6.753252,47.242932 4.419932,46.109492 3.514412,49.278372 C3.386812,49.295532 3.259652,49.314892 3.132492,49.336452 C2.891372,49.132292 2.853972,48.895572 3.021172,48.627612 C3.436092,47.216972 4.226332,46.036452 5.247572,44.999372 C6.181692,45.255892 6.325572,44.116292 7.040572,43.983412 C7.350332,43.743172 7.646892,43.775732 7.932012,44.028292 C8.696292,44.778932 9.911132,45.229492 9.674852,46.646292" id="Fill-51" fill="#FE821B"></path>
                <path d="M21.115072,79.164184 C20.535592,79.164624 19.955672,79.165064 19.375752,79.165504 C19.260032,79.052424 19.211192,78.930984 19.228792,78.801184 C19.246832,78.666984 19.272792,78.600104 19.303152,78.599224 C21.885952,76.719104 23.945152,74.154784 26.881272,72.740624 C27.576032,72.406224 28.237792,71.819264 29.123072,72.135184 C29.253312,72.455944 29.281032,72.762184 29.001192,73.026624 C28.290592,74.429784 26.967952,75.054584 25.637392,75.669704 C24.281752,77.031064 23.434752,79.050224 21.115072,79.164184" id="Fill-53" fill="#F9CA0E"></path>
                <path d="M22.555368,54.738596 C21.275408,52.084956 23.958528,51.538036 25.009688,50.123436 C26.090768,49.658356 26.501728,50.309996 26.781128,51.182956 C26.638568,53.196396 25.118808,54.116876 23.668568,55.094556 C23.214928,55.238436 22.828168,55.165396 22.555368,54.738596" id="Fill-55" fill="#231F20"></path>
                <path d="M37.264216,69.45796 L36.039696,70.0678 C35.676696,69.92788 35.313696,69.78796 34.951136,69.64936 C35.775256,67.96592 37.625016,67.58752 38.964816,66.56496 C39.971976,65.79628 40.793456,64.97084 41.335096,63.8462 C41.415616,63.64556 41.533976,63.6306 41.684896,63.77492 C42.216416,65.56088 40.991896,66.5962 39.994856,67.72832 C38.839856,67.91884 38.188216,68.90312 37.264216,69.45796" id="Fill-57" fill="#633A37"></path>
                <path d="M39.182132,61.605852 C38.192132,62.408852 38.145932,64.126612 36.539052,64.332092 C35.967492,63.854692 35.157452,63.800572 34.625052,63.250572 C35.683252,61.758972 36.528932,60.075092 38.291132,59.222812 C39.468132,59.687892 40.517532,60.202692 39.182132,61.605852" id="Fill-59" fill="#E21B04"></path>
                <g id="Group-63" transform="translate(3.080000, 78.332760)">
                    <mask id="mask-2" fill="white">
                        <use xlink:href="#path-1"></use>
                    </mask>
                    <g id="Clip-62"></g>
                    <path d="M2.518824,0.302896 C3.485504,1.035496 2.947384,1.857856 2.659624,2.664816 C2.932424,3.512256 2.635424,4.645256 3.846304,5.021896 C3.963784,5.115616 4.020544,5.224296 4.0192465,5.346616 C4.017464,5.475976 4.002064,5.540216 3.973024,5.540216 C2.812744,6.020696 1.945504,7.086376 0.053504,7.480176 C1.845624,5.079976 0.823064,2.317216 2.518824,0.302896" id="Fill-61" fill="#F17B2D" mask="url(#mask-2)"></path>
                </g>
                <path d="M41.684852,63.77492 C41.566052,63.78768 41.449892,63.811 41.335492,63.84576 C41.132212,63.07576 40.860292,62.31016 41.188092,61.50628 C42.708732,59.58612 45.069772,60.02568 47.056812,59.41584 C47.191452,60.84012 46.068132,61.22468 45.113332,61.70164 C44.009812,62.25208 42.761972,62.5196 41.835332,63.41016 C41.808492,63.54128 41.758332,63.66272 41.684852,63.77492" id="Fill-64" fill="#B50300"></path>
                <path d="M12.735316,40.90482 C12.413676,41.2621 12.092036,41.6185 11.382756,42.40434 C11.660836,39.3151 13.458676,37.18462 13.544916,34.62162 C13.844556,33.94226 14.379596,33.48642 14.988996,33.10054 C15.128476,34.86494 14.297756,36.30198 13.504436,37.78434 C13.068836,38.5979 12.711556,39.50386 12.772276,40.48638 C12.876116,40.58934 12.905596,40.6857 12.859836,40.77546 C12.816276,40.8617 12.774476,40.90482 12.735316,40.90482" id="Fill-66" fill="#C82F28"></path>
                <path d="M37.800488,25.03732 C38.985408,24.9238 38.692368,25.77872 38.712168,26.42904 C38.841968,26.77708 38.625928,26.94296 38.368088,27.08904 C37.617888,27.3482 37.101768,27.9092 36.588728,28.47724 C35.907168,28.98808 35.206688,29.42764 34.301608,29.07168 L33.675488,28.53752 C34.752168,27.01952 36.292168,26.04712 37.800488,25.03732" id="Fill-68" fill="#9E2727"></path>
                <path d="M7.052892,83.873152 C7.035292,83.757432 7.025612,83.640832 7.023852,83.523792 C6.439972,82.256152 8.014292,82.399152 8.236932,81.658632 C8.382572,81.415312 8.581452,81.217312 8.772412,81.012712 C8.772412,81.012712 8.829612,80.905352 8.830052,80.904912 C9.110332,81.073872 9.390172,81.242392 9.670012,81.411352 C10.487532,82.615632 12.035892,82.354272 13.076052,83.112392 C12.120812,84.186872 10.881772,84.103272 9.658132,83.871832 C8.775932,83.705072 7.921012,83.778992 7.052892,83.873152" id="Fill-70" fill="#F09D24"></path>
                <path d="M26.513652,51.478988 C26.357452,50.644308 25.841332,50.208268 25.009732,50.123348 C24.966612,49.251708 25.493732,49.204188 26.135252,49.363028 C26.495612,49.452788 26.849812,50.217948 27.139772,49.689948 C27.416972,49.184388 27.855212,48.354108 26.935172,47.843708 C26.806252,47.733708 26.763572,47.624148 26.807572,47.515468 C26.851132,47.406348 26.894692,47.352228 26.938252,47.351348 C27.345252,47.130468 27.750932,47.149388 28.156172,47.355748 C28.323372,47.491708 28.457572,47.656268 28.563612,47.843708 C28.983812,48.778708 28.651612,49.727348 28.616412,50.672908 C28.496732,51.361068 28.200612,51.914588 27.483412,52.142508 C26.967732,52.203228 26.643892,51.982348 26.513652,51.478988" id="Fill-72" fill="#6A6A72"></path>
                <path d="M22.555368,54.738596 C22.834328,54.792716 23.113288,54.846836 23.392248,54.900516 C23.848528,55.327756 24.040808,55.826276 23.813328,56.440516 C22.530728,57.855556 21.013608,58.660756 19.037568,58.268276 C18.677648,56.858956 20.236568,57.039796 20.677448,56.293556 C21.303568,55.774796 21.929248,55.256916 22.555368,54.738596" id="Fill-74" fill="#F8D32B"></path>
                <path d="M7.40696,72.953496 C8.8264,75.049656 7.117,75.505936 5.73936,76.136016 C4.70976,74.244896 5.35392,73.230256 7.40696,72.953496" id="Fill-76" fill="#F6670E"></path>
                <path d="M34.267156,66.417956 C33.714956,67.007556 33.162316,67.597596 32.610116,68.187196 C32.459636,68.346036 32.277916,68.412036 32.059236,68.371996 C31.473156,68.101836 30.910396,67.804836 30.648596,67.156276 C30.981676,65.812956 31.867396,65.059676 33.191796,64.770156 C34.064756,64.983556 34.853236,65.253716 34.267156,66.417956" id="Fill-78" fill="#F7DF25"></path>
                <path d="M34.267156,66.417956 C34.276836,65.542356 33.776996,65.178036 32.967836,65.124796 C32.895676,63.840876 33.857956,63.614276 34.782396,63.348516 C35.704196,63.076156 36.493116,63.040516 36.538876,64.332356 C36.000756,65.266476 35.276516,65.997316 34.267156,66.417956" id="Fill-80" fill="#F98F0C"></path>
                <path d="M13.076052,83.112172 C11.717332,82.992492 9.932252,83.726412 9.670452,81.411572 C11.144892,81.091692 12.636492,80.728252 13.216852,82.760612 C13.223892,82.899652 13.176812,83.016692 13.076052,83.112172" id="Fill-82" fill="#FCC713"></path>
                <path d="M20.677448,56.293644 C20.377368,57.184204 19.446768,57.443804 18.890608,58.078724 C18.851008,58.401684 18.676768,58.644124 18.436528,58.848284 C17.644968,59.199844 17.366888,60.349124 16.280528,60.247924 C15.642088,60.246604 15.003208,60.244844 14.363888,60.243964 C16.185928,58.476484 18.321688,57.209284 20.677448,56.293644" id="Fill-84" fill="#F1A32E"></path>
                <path d="M39.182132,61.605852 C39.980292,60.381332 38.912412,60.034612 38.201372,59.519812 C38.314892,58.768732 38.794052,58.396052 39.503772,58.261412 C40.468252,58.385052 41.084692,58.898092 41.292812,59.866532 C41.119012,60.269132 40.944772,60.671732 40.770092,61.073012 C40.083252,60.783492 39.869412,61.898892 39.182132,61.605852" id="Fill-86" fill="#E99827"></path>
                <path d="M21.115072,79.164184 C23.062512,78.568864 23.859352,76.485024 25.636952,75.669704 C25.087392,78.075184 23.355552,79.121944 21.124752,79.594944 C21.115952,79.451064 21.112872,79.307624 21.115072,79.164184" id="Fill-88" fill="#F68A11"></path>
                <path d="M7.604388,67.389916 C6.964628,67.381556 6.523308,67.054196 6.432668,66.393756 C6.334988,65.680956 6.859468,65.240516 7.419588,65.204876 C8.046148,65.164396 8.741788,65.439836 8.751468,66.280676 C8.759828,66.980276 8.256468,67.265396 7.604388,67.389916" id="Fill-90" fill="#F3AE31"></path>
                <path d="M32.042472,68.165064 C32.231672,68.172544 32.420432,68.180024 32.609632,68.187064 C31.772312,70.072024 30.207232,71.414904 29.001192,73.026184 C28.991072,72.755144 28.980952,72.483224 28.970832,72.211744 C29.473312,70.466704 30.028152,68.762144 32.042472,68.165064" id="Fill-92" fill="#F5BB4F"></path>
                <path d="M42.212104,22.46068 C41.650224,22.836 41.257744,24.046 40.373344,22.83424 C40.140584,21.38092 41.738664,21.8856 42.175584,21.1486 C42.359064,21.307 42.543424,21.46584 42.727344,21.62468 C42.826784,22.0704 42.616904,22.3256 42.212104,22.46068" id="Fill-94" fill="#8E8983"></path>
                <path d="M3.021128,48.627612 C3.058088,48.863452 3.094608,49.099732 3.132008,49.336012 C3.066008,50.412252 1.707288,50.817052 1.771968,51.960612 C1.485528,52.283132 1.199088,52.604772 0.912648,52.926852 C0.690448,52.740732 0.664488,52.530412 0.835648,52.296332 C1.445488,51.002732 1.847208,49.585052 3.021128,48.627612" id="Fill-96" fill="#F07A4C"></path>
                <path d="M19.34218,81.300164 C19.8935,81.349444 20.1839,81.602444 20.10382,82.140124 C20.02066,82.699804 19.67614,83.059284 19.11778,83.118684 C18.52026,83.182484 18.40498,82.750404 18.44062,82.283564 C18.48418,81.717724 18.7957,81.368804 19.34218,81.300164" id="Fill-98" fill="#F4C816"></path>
                <path d="M69.033404,2.263448 C69.180364,2.722368 69.326884,3.181728 69.473404,3.641088 C68.810324,4.090768 68.109844,4.334088 67.310804,4.030488 C67.151524,3.866368 66.991804,3.702248 66.832524,3.537688 C67.572604,3.124088 67.976524,2.129248 69.033404,2.263448" id="Fill-100" fill="#969598"></path>
                <path d="M0.835516,52.296244 C0.861036,52.505684 0.886996,52.714684 0.912516,52.925444 C0.841676,53.520324 0.858836,54.069884 1.583516,54.261284 C1.044516,54.636604 0.431156,54.700844 0.134156,54.094084 C-0.226204,53.357524 0.183876,52.735804 0.835516,52.296244" id="Fill-102" fill="#EE9872"></path>
                <path d="M26.897596,47.507416 C26.888796,47.621816 26.900676,47.734456 26.934116,47.844456 C25.985916,47.909576 25.034636,47.994936 24.141876,47.537776 C24.171796,47.395656 24.193356,47.251776 24.206116,47.106576 C25.238796,46.327776 26.109116,46.642816 26.897596,47.507416" id="Fill-104" fill="#D25006"></path>
                <path d="M41.835244,63.410116 C41.668484,62.509876 42.083844,62.233556 42.941404,61.953716 C44.483604,61.450796 46.206644,61.095716 47.057164,59.415356 C49.506204,58.110756 52.398764,57.757876 54.596124,55.909436 C54.983764,55.660396 55.330484,55.275396 55.868604,55.527956 C55.930644,56.635876 55.213004,57.156836 54.394164,57.733676 C50.848204,60.232876 47.146924,62.521756 43.882564,65.409916 C43.020164,66.173316 42.313084,66.307956 42.221124,64.816796 C42.190764,64.320916 42.317044,63.782356 41.835244,63.410116" id="Fill-106" fill="#D40300"></path>
                <path d="M63.764976,47.519868 C61.573776,48.480828 59.819056,50.193748 57.571536,51.070668 C54.044056,52.446988 50.541656,53.409268 47.052896,50.991908 C46.875136,50.535188 47.118016,50.198588 47.371896,49.862868 C47.744136,49.480068 48.117696,49.098588 48.713016,49.114868 C50.746696,49.851428 52.706896,49.650788 54.691736,48.822268 C57.195776,47.777268 59.653176,46.656148 61.957456,45.211188 C63.361056,45.352868 63.964736,46.122428 63.764976,47.519868" id="Fill-108" fill="#1D476C"></path>
                <path d="M41.292768,59.866488 C40.702288,59.415928 40.111808,58.965368 39.521768,58.514808 C39.284168,57.975368 39.554768,57.504128 39.714048,57.015728 C40.777968,55.184888 41.247448,52.947928 43.269248,51.764768 C44.114928,51.945608 44.734888,52.617048 45.566928,52.832208 C45.463528,53.092248 45.359688,53.351408 45.256288,53.611448 C44.460768,55.139568 44.627088,57.222968 42.674368,58.082728 C42.002488,58.513928 42.229968,59.641208 41.292768,59.866488" id="Fill-110" fill="#F21C17"></path>
                <path d="M42.674412,58.08286 C43.711052,56.69422 43.946452,54.8427 45.256772,53.61158 C46.300012,55.57178 47.933732,56.47246 50.146052,56.3321 C47.843532,57.7181 45.373372,58.38866 42.674412,58.08286" id="Fill-112" fill="#1B2741"></path>
                <path d="M45.566884,52.832076 C44.474364,53.278236 43.914684,52.691716 43.523964,51.777396 C43.265684,50.015636 44.304084,49.158516 45.749924,48.583876 C46.595604,48.830276 47.556564,48.956556 47.460644,50.200436 C47.324244,50.464436 47.188284,50.728876 47.052764,50.991996 C46.557764,51.605356 46.062324,52.218276 45.566884,52.832076" id="Fill-114" fill="#F47876"></path>
                <path d="M63.764976,47.519868 C63.355336,46.649108 62.939096,45.784068 62.002776,45.338788 C61.282056,45.199748 60.883856,44.611908 60.373896,44.176308 C59.822136,43.509268 58.943016,43.014708 59.173576,41.929228 C59.281816,41.750148 59.432736,41.624308 59.632056,41.557868 C59.836656,41.527948 60.038616,41.538508 60.238376,41.591748 C60.524816,41.707908 60.772536,41.884348 61.008816,42.079268 C61.682016,42.668868 62.511416,43.075868 63.055696,43.818588 C63.333776,44.221188 63.523416,44.675268 63.791816,45.084028 C64.150856,45.666148 64.833296,45.983388 65.081016,46.655268 C65.249096,47.248388 66.096536,47.533508 65.834296,48.320228 C64.911176,48.654188 64.435976,47.834468 63.764976,47.519868" id="Fill-116" fill="#1F2A30"></path>
                <path d="M63.364092,45.30438 L62.865132,44.0297 C62.866012,43.61786 62.865572,43.20558 63.105372,42.84126 C69.981692,39.6913 74.491252,33.9999 78.766292,28.10126 C79.959132,26.45522 81.335012,24.91038 82.216332,23.04918 C82.538852,22.3685 83.249452,21.71818 82.596052,20.8549 C82.496612,20.68198 82.444252,20.49542 82.432372,20.29742 C82.598252,19.4051 83.520052,19.26166 84.016812,18.6945 C84.172132,18.57394 84.349012,18.50178 84.542612,18.46834 C85.061812,19.12174 85.373332,19.8473 85.321412,20.70002 C84.250012,23.99694 82.196972,26.76058 80.291332,29.56734 C76.412732,35.27986 71.949372,40.4965 66.270292,44.53878 C65.437372,45.1319 64.622932,46.16854 63.364092,45.30438" id="Fill-118" fill="#596160"></path>
                <path d="M63.364092,45.30438 C64.370372,45.52482 65.024212,44.80542 65.707532,44.32406 C70.813292,40.7253 74.903092,36.12422 78.630332,31.1597 C81.124692,27.83726 83.110852,24.1989 85.321412,20.70002 C86.029812,21.5303 85.352652,22.26862 85.015172,22.87142 C80.785892,30.43018 75.618092,37.26602 69.240292,43.16598 C67.907532,44.39842 66.115412,45.0747 65.080972,46.65474 C64.451772,46.27766 63.631612,46.14126 63.364092,45.30438" id="Fill-120" fill="#464E4F"></path>
                <path d="M84.432084,16.744112 C86.220244,14.842872 86.520764,12.340152 87.008724,9.966792 C87.264804,8.721152 87.512084,7.574512 88.385044,6.628952 C88.963204,9.971192 86.898724,12.784112 86.489964,15.937152 C86.389644,16.707152 85.591924,17.232952 84.869444,17.630712 C84.722484,17.477592 84.575084,17.324472 84.428124,17.171352 C84.329564,17.075432 84.297004,16.980392 84.331324,16.885352 C84.365204,16.791192 84.398644,16.744112 84.432084,16.744112" id="Fill-122" fill="#1F5C96"></path>
                <path d="M84.432084,16.744112 C84.430324,16.886672 84.429004,17.028792 84.428124,17.171352 C84.465524,17.603872 84.503364,18.036392 84.5416474,18.468472 C84.542524,18.468472 84.374004,18.498832 84.374004,18.498832 C83.349244,18.515552 83.352764,17.542272 82.915404,16.991832 C82.748204,16.660952 82.594204,16.323032 82.461324,15.975872 C82.403244,15.798112 82.379044,15.615072 82.382124,15.428072 C82.412484,15.242832 82.485964,15.075632 82.605644,14.929112 C83.007364,14.751792 83.318884,14.941872 83.620724,15.176392 C83.825324,15.376152 83.954244,15.611992 83.961724,15.904592 C83.989884,16.256592 84.084924,16.570752 84.432084,16.744112" id="Fill-124" fill="#5F757A"></path>
                <path d="M16.28066,60.248056 C17.04318,59.722696 17.24734,58.515336 18.42214,58.492896 C20.5887,58.193696 22.73678,57.637976 24.95218,58.024296 C25.66982,58.201616 26.25898,58.627096 26.86354,59.023096 C27.73738,59.806296 29.15946,60.206696 28.85894,61.826776 C28.77226,62.027416 28.63718,62.191096 28.45942,62.318696 C27.55434,62.656616 26.88334,63.280536 26.21234,63.972216 C24.49854,65.738376 23.24058,65.537736 21.97822,63.378656 C21.55142,62.648256 21.20382,61.818416 20.25034,62.832176 C19.75226,63.710416 19.90978,64.654656 19.97138,65.585696 C20.00922,66.158136 20.11702,66.717376 19.91198,67.294656 C18.8925,70.166536 18.90042,70.170496 21.71598,71.277096 C21.9175,71.356296 22.12298,71.422736 22.31482,71.525696 C22.93346,72.355976 22.12078,72.804336 21.79958,73.364016 C21.2003,74.408576 20.17158,75.160096 19.74918,76.332256 C19.6559,76.520576 19.5393,76.691736 19.40246,76.851016 C18.48594,77.605176 17.58658,78.050896 16.7981,76.692616 C16.66082,76.419816 16.56226,76.128976 16.43334,75.851776 C15.54762,73.991896 14.91094,72.147856 16.31102,70.210096 C17.20862,68.967096 17.39254,67.933536 15.56214,67.163976 C13.90378,66.466576 14.93998,64.938456 14.92282,63.753096 C15.23346,62.529896 16.63046,61.727336 16.28066,60.248056" id="Fill-126" fill="#FEF56E"></path>
                <path d="M14.922644,63.753008 C15.439204,64.779088 13.724084,67.095688 16.788684,66.721688 C17.654604,66.616528 17.736444,69.392488 16.816844,70.506128 C15.867764,71.655408 16.038924,74.614848 17.116484,75.694608 C16.619284,76.174208 16.023964,76.378368 15.348564,76.243288 C14.659524,76.104688 14.069484,76.154848 13.691524,76.844768 C13.284964,77.586168 12.650044,77.888448 11.909084,77.466048 C11.219164,77.072688 10.958684,76.421488 11.417604,75.647088 C11.748924,75.023168 12.398804,74.581848 12.459084,73.708448 C10.971444,73.592288 9.379084,73.447528 10.543764,71.239168 C11.168124,72.003008 11.851884,72.457528 12.773684,71.664648 C13.178924,68.943248 14.000404,66.334048 14.922644,63.753008" id="Fill-128" fill="#FEEF4C"></path>
                <path d="M11.417428,75.64722 C11.578028,76.33978 11.630828,77.21626 12.502028,77.30954 C13.363988,77.40194 13.075348,76.49862 13.295788,76.03134 C13.629308,75.32602 14.248828,74.97666 14.854268,75.49058 C15.629108,76.14838 16.381068,75.51874 17.116748,75.69386 C17.121148,75.98998 17.126428,76.28566 17.131268,76.5809 C16.099028,76.9791 15.418788,78.21374 14.073268,77.86746 C13.415908,77.86614 12.758548,77.86702 12.101188,77.86306 C11.482988,77.85954 10.910548,77.72842 10.694508,77.06314 C10.473628,76.38158 10.865228,75.96094 11.417428,75.64722" id="Fill-130" fill="#FEE136"></path>
                <path d="M14.073356,77.867416 C15.231876,77.768856 15.695196,76.017656 17.131356,76.580856 C17.907076,77.910096 18.618116,76.678096 19.356436,76.524536 C19.712396,77.249656 19.363916,77.980936 19.376676,78.709136 C19.376236,78.861376 19.375796,79.013176 19.375796,79.165416 C17.910596,78.031976 16.448036,78.577576 14.985916,79.172456 C14.375196,78.952016 14.081276,78.509816 14.073356,77.867416" id="Fill-132" fill="#F5A204"></path>
                <path d="M12.773552,71.664868 C12.677632,72.448948 12.381512,73.104988 11.452672,72.930308 C10.543192,72.759148 10.570032,71.955268 10.544072,71.238948 C11.669152,69.379948 12.200232,70.633068 12.773552,71.664868" id="Fill-134" fill="#FEF053"></path>
                <path d="M8.734264,78.703988 C6.740184,78.334388 6.655264,78.066428 7.908824,76.089508 C9.464664,76.556348 8.618984,77.781748 8.734264,78.703988" id="Fill-136" fill="#FDE341"></path>
                <path d="M26.817252,32.595508 C27.261652,32.586268 27.706492,32.576588 28.150892,32.567348 C28.286852,32.838388 28.355052,33.152988 28.202372,33.399828 C26.357012,36.389188 24.677092,39.510548 21.757252,41.666108 C20.611052,41.639708 19.437132,41.731228 18.466492,40.925148 C15.326652,39.727468 15.120732,38.180868 17.391132,35.566828 C19.120772,33.574948 21.038292,32.675148 23.667732,32.972148 C24.684132,33.086988 25.854532,33.402468 26.817252,32.595508" id="Fill-138" fill="#FB0502"></path>
                <path d="M18.466272,40.925016 C19.670112,40.829976 20.838312,41.024016 21.988472,41.361056 C22.666072,41.273936 22.754512,41.795336 22.911152,42.249856 C23.027752,42.984656 23.009712,43.704936 22.663872,44.387816 C22.273592,44.913176 21.727992,45.118216 21.097032,45.148576 C18.509832,44.631576 15.978072,43.937696 13.635512,42.673576 C13.360072,42.071656 12.694352,41.668176 12.735712,40.905216 C12.746272,40.765296 12.758152,40.625816 12.772232,40.486336 C14.696352,40.298456 16.534672,41.213656 18.466272,40.925016" id="Fill-140" fill="#F82B02"></path>
                <path d="M65.445908,7.983668 C65.853788,8.318948 66.326788,8.437308 66.845548,8.401668 C67.183908,8.718468 67.896708,8.569308 67.927948,9.270228 C67.321628,10.494748 68.437028,11.341308 68.619188,12.395108 C68.836548,13.554068 68.756908,14.720508 68.732708,15.886948 C68.614348,16.479628 68.566828,17.122028 67.799468,17.275148 C66.901868,16.519668 67.205028,15.456628 67.112188,14.503588 C67.029028,13.648668 66.876788,12.824988 66.436788,12.078308 C65.357468,10.523348 63.687668,10.412908 62.027548,10.283988 C59.940188,10.186308 58.256308,11.251988 56.530628,12.192268 C55.209748,12.516988 54.749068,14.359708 53.116228,14.133988 C52.903708,13.861628 52.836388,13.549228 52.856628,13.211308 C52.939348,12.620388 53.282108,12.212508 53.777108,11.913308 C54.814188,11.637868 55.726308,11.174988 56.311508,10.221948 C58.124748,8.850468 60.210788,8.057588 62.382628,7.525188 C63.407388,7.273948 64.537308,7.098388 65.445908,7.983668" id="Fill-142" fill="#D4161D"></path>
                <path d="M65.445908,7.983668 C62.134908,7.642228 59.288548,9.195428 56.311948,10.221948 C56.622588,8.972788 57.879228,8.659948 58.732828,8.185188 C61.504828,6.643428 64.438748,5.392948 67.310628,4.030268 C67.968428,3.551108 68.708948,3.528668 69.473668,3.639988 C69.000668,5.894988 66.773388,6.521988 65.445908,7.983668" id="Fill-144" fill="#BFC9CE"></path>
                <path d="M53.776888,11.913352 C53.568768,12.308032 53.361088,12.702712 53.152968,13.097392 C52.629808,14.010392 51.846608,14.731552 51.294848,15.623432 C50.644088,16.324352 50.266128,17.219752 49.655848,17.950152 C49.257648,18.310512 49.170088,19.043112 48.424728,18.992072 C46.196128,19.374872 44.988768,21.258952 43.309288,22.449592 C43.000408,22.668712 42.579328,23.788512 42.212368,22.460592 C42.383528,22.181632 42.555128,21.903112 42.726728,21.624592 C45.931248,17.842352 49.326288,14.277472 53.776888,11.913352" id="Fill-146" fill="#CBD2D6"></path>
                <path d="M34.30152,29.071856 L36.4716,28.139936 C36.95164,28.660016 36.72152,29.190656 36.49976,29.722176 C33.86328,33.482856 31.86964,37.567376 30.35516,41.899176 C30.04672,42.781816 29.76336,43.693496 29.15924,44.447216 C27.54708,44.689656 26.40088,43.963216 25.52044,42.688976 C27.32972,38.701696 30.02648,35.231856 32.08392,31.394616 C32.64052,30.357096 33.94732,30.199576 34.30152,29.071856" id="Fill-148" fill="#A40B07"></path>
                <path d="M22.43956,42.25276 C22.4246,41.88712 22.33792,41.55756 21.98856,41.36176 C24.02092,38.41464 26.52364,35.79752 28.15076,32.56704 C28.67832,31.83488 29.50332,32.32284 30.20952,32.02452 C28.84596,35.6268 26.64156,38.66412 24.62768,41.8088 C23.97648,42.34208 23.3178,42.83928 22.43956,42.25276" id="Fill-150" fill="#E00700"></path>
                <path d="M25.52066,42.688888 C26.6629,43.277168 27.80558,43.865008 28.94782,44.452848 C29.6813,45.742048 29.03934,46.664288 28.1303,47.515248 C27.7189,47.512608 27.3075,47.510408 26.89654,47.507768 C25.99234,47.426808 25.15546,46.886488 24.20594,47.106488 C24.20594,47.106488 24.16414,47.073488 24.16414,47.073488 C23.74746,46.589488 23.63262,46.018368 23.67574,45.399728 C23.76594,44.667128 23.9547,43.984248 24.63758,43.560968 C24.93194,43.270568 25.2263,42.979728 25.52066,42.688888" id="Fill-152" fill="#A32A03"></path>
                <path d="M24.637448,43.561144 C24.481688,44.143704 24.325928,44.725824 24.170168,45.308824 C23.295448,45.609344 22.770528,45.211144 22.430848,44.440264 L22.439208,42.252584 C23.169168,42.104304 23.898248,41.956904 24.627768,41.809064 C24.630848,42.392944 24.634368,42.977264 24.637448,43.561144" id="Fill-154" fill="#D42500"></path>
                <path d="M13.635688,42.6734 C16.266448,42.94004 18.664448,43.99164 21.107328,44.891 C21.747968,45.53384 21.707928,46.3122 21.548648,47.11344 C20.919888,48.33928 20.183768,47.47336 19.551488,47.16492 C17.439488,46.13488 15.221888,44.97152 12.952368,44.9988 C11.108768,45.02124 9.666008,43.93576 7.931968,44.02772 C7.634968,44.01364 7.337528,43.99868 7.040088,43.98416 C8.101368,41.98436 9.824848,41.58924 10.952128,43.2168 C11.566808,44.10472 11.622688,43.20052 11.705848,43.07248 C12.232968,42.25672 12.954128,42.60036 13.635688,42.6734" id="Fill-156" fill="#F85608"></path>
                <path d="M21.548604,47.113352 C20.830084,46.485912 21.209804,45.640672 21.107284,44.890912 C21.548604,44.740872 21.989484,44.590832 22.430804,44.440792 C23.010724,44.729872 23.590644,45.019392 24.170124,45.308472 C24.168364,45.896752 24.166604,46.485032 24.164404,47.073312 C23.292324,47.086512 22.420684,47.100152 21.548604,47.113352" id="Fill-158" fill="#D25006"></path>
                <path d="M8.786052,81.771096 C8.932572,83.092856 7.005812,82.331656 7.023852,83.524056 C4.533452,83.729536 5.100612,82.381376 5.739492,80.997136 C6.023292,80.974256 6.306652,80.951376 6.590452,80.928056 C7.235052,81.436256 8.085132,81.410296 8.786052,81.771096" id="Fill-160" fill="#F9BD0C"></path>
                <path d="M8.786052,81.771096 C7.851932,82.017936 6.768652,82.652416 6.590452,80.928496 C7.352092,80.060816 8.045092,80.990096 8.772412,81.011656 C8.776812,81.265536 8.781652,81.518096 8.786052,81.771096" id="Fill-162" fill="#FEEF45"></path>
                <path d="M83.961592,15.904724 C83.823872,15.740604 83.685712,15.576484 83.547992,15.412804 C83.224152,14.442164 83.955872,13.641804 83.974352,12.725724 C84.006032,12.521564 84.054872,12.320924 84.108552,12.122044 C84.597832,9.527364 84.028912,6.859204 84.655912,4.272004 C84.739072,3.931444 84.741272,3.464604 84.342632,3.308404 C83.847192,3.114364 83.554152,3.551724 83.271232,3.865884 C81.512112,5.817724 79.938672,7.936324 78.003992,9.732844 C77.545072,9.972204 77.180312,9.764964 76.828752,9.489084 C76.447272,8.791244 75.444952,8.456844 75.614352,7.432524 C77.051832,7.056324 78.612512,6.888684 79.249192,5.194684 C79.427832,4.720364 79.702832,4.260124 79.345552,3.773044 C78.990032,3.288604 78.470832,3.343604 77.966152,3.446564 C76.415592,3.762484 75.172592,4.543484 74.318992,5.902204 C73.224712,6.183364 72.684832,5.611804 72.395752,4.654804 C72.803192,3.200164 74.328672,2.835844 75.176992,1.808884 C78.975512,1.230724 82.774032,0.957484 86.573432,1.796124 C87.005072,4.970284 86.505672,8.105724 85.721152,11.128524 C85.306232,12.728804 85.388512,14.635324 83.961592,15.904724" id="Fill-164" fill="#7AADDB"></path>
                <path d="M75.177036,1.80906 C75.024356,3.42782 73.422756,3.59986 72.520756,4.47062 C71.440556,5.00874 71.108356,3.82514 70.384556,3.54222 C70.534596,3.11322 70.684636,2.68422 70.835116,2.25566 C72.282716,2.10694 73.729876,1.95778 75.177036,1.80906" id="Fill-166" fill="#A1D0F0"></path>
                <path d="M67.718112,9.24352 C67.427272,8.9628 67.136432,8.68208 66.845592,8.40136 C66.916872,8.39124 66.997832,8.40004 67.056792,8.36836 C68.776312,7.43336 70.380552,6.13624 72.551952,6.63036 C74.382792,6.35448 75.419872,7.11524 75.615232,8.97688 C73.566592,9.96424 72.181912,11.5544 71.370112,13.66464 C71.196312,13.78168 71.008432,13.82128 70.802952,13.77376 C70.182552,13.2242 70.107752,12.36004 69.619792,11.73392 C69.137552,10.78836 68.353472,10.07248 67.718112,9.24352" id="Fill-168" fill="#8FA3AC"></path>
                <path d="M75.665172,8.792784 C74.958092,7.596864 73.870852,6.946984 72.552172,6.630184 C72.519612,5.116584 70.692292,4.862704 70.384292,3.542264 C71.096652,3.851584 71.809012,4.160904 72.520932,4.470664 C72.932772,5.150904 73.444932,5.700464 74.284892,5.821904 C75.143772,6.063024 75.457052,6.756464 75.689372,7.516784 C76.123212,8.107264 76.999692,8.363784 77.015972,9.270624 C76.361692,9.688184 75.934012,9.464664 75.665172,8.792784" id="Fill-170" fill="#738A98"></path>
                <path d="M48.424728,18.992248 C48.904328,18.671048 48.667168,17.878608 49.300768,17.658608 C50.366888,19.419048 49.013008,21.212048 49.377768,22.980848 C49.098368,24.808168 47.962728,26.007608 46.465408,26.938648 C45.477608,27.411648 44.776688,25.938528 43.763368,26.537368 C43.212488,26.370608 42.980168,25.942488 42.846408,25.432528 C42.786128,24.535808 43.469008,24.516008 44.081048,24.272248 C45.879768,23.556368 47.649008,22.751168 48.356968,20.705608 C48.379408,20.134488 48.401848,19.563368 48.424728,18.992248" id="Fill-172" fill="#788E9D"></path>
                <path d="M48.356836,20.705432 C48.322076,22.615472 46.148036,24.706792 43.909756,24.822512 C43.292436,24.854632 43.170556,25.057912 43.111596,25.529592 C42.953636,25.653672 42.777196,25.691072 42.582276,25.641792 C42.251396,25.403752 42.001036,25.133592 42.206516,24.684792 C44.197076,23.266672 46.147156,21.784752 48.356836,20.705432" id="Fill-174" fill="#8DA1AE"></path>
                <path d="M42.206692,24.684968 C42.358052,24.968768 42.509412,25.252568 42.660772,25.536368 C41.633372,26.632408 40.337572,27.426168 39.339212,28.572808 C38.842892,29.143048 38.035492,29.673248 37.471412,28.482608 C37.328852,27.695888 37.658412,27.148528 38.336012,26.778488 C38.461412,26.661888 38.586812,26.545728 38.712212,26.428688 C39.150892,26.187128 39.141212,25.706208 39.311052,25.318568 C39.982932,23.785168 40.909572,23.379048 42.206692,24.684968" id="Fill-176" fill="#BDE7F7"></path>
                <path d="M19.376764,78.709136 C18.294804,77.991056 19.334084,77.253176 19.356524,76.524976 C19.356524,76.524536 19.374564,76.515736 19.374564,76.515736 C21.754524,73.541776 25.038244,71.598296 27.858644,69.127256 C28.685404,68.402576 29.344084,67.279256 30.677284,67.271336 C31.284924,67.336896 31.828764,67.499256 32.043044,68.164976 C30.565964,69.169496 30.247844,71.053576 28.971404,72.210776 C25.205884,73.540016 22.924924,77.060456 19.376764,78.709136" id="Fill-178" fill="#FCF840"></path>
                <path d="M26.859536,59.450996 C26.245736,59.393796 25.856776,58.985036 25.473976,58.567036 C24.697816,57.957636 23.700776,57.525996 23.671296,56.318636 C23.578016,55.846516 23.484296,55.373516 23.391456,54.900956 C24.575936,53.890716 25.805736,52.923156 26.512816,51.478636 C26.747776,51.629116 26.981856,51.779156 27.216376,51.929196 C28.856256,53.036236 29.912256,54.633876 30.889496,56.299716 C29.651336,57.483756 28.627016,58.942796 26.859536,59.450996" id="Fill-180" fill="#274A5A"></path>
                <path d="M30.677328,67.271292 C26.924128,70.370652 23.438448,73.796492 19.374608,76.515692 C19.521568,74.401492 21.634888,73.492452 22.319528,71.707812 C21.957408,69.785892 23.645248,68.751012 24.242328,67.244012 C25.078328,65.014092 26.709848,63.447692 28.566208,62.069612 C28.656408,62.054212 28.725048,62.007132 28.772568,61.928812 C28.966608,61.843452 29.167688,61.814852 29.377128,61.849612 C32.153528,63.544052 33.326568,63.093052 34.491688,59.826492 C34.735448,59.143172 35.197448,58.556212 35.801568,58.478332 C37.301088,58.284292 38.576648,57.421892 40.054608,57.221252 C39.877288,57.652452 39.699968,58.083212 39.522208,58.514852 C39.082208,58.848812 38.643088,59.183212 38.202208,59.518932 C37.061288,60.796252 35.921248,62.073132 34.782088,63.349132 C34.345168,64.111652 33.291368,64.244532 32.967968,65.124092 C32.204568,65.839972 31.440728,66.555852 30.677328,67.271292" id="Fill-182" fill="#771202"></path>
                <path d="M38.33588,26.77862 C38.08728,27.31718 37.61208,27.77918 37.7696,28.45502 C37.64112,29.1313 37.32564,29.63554 36.58204,29.74686 C36.36512,29.7319 36.18164,29.64742 36.03644,29.48286 C36.18164,29.03538 36.32684,28.5879 36.47204,28.14042 C36.7202,27.1755 37.39296,26.79226 38.33588,26.77862" id="Fill-184" fill="#52141B"></path>
                <path d="M36.036616,29.48264 C36.214816,29.48264 36.393016,29.48264 36.570776,29.48264 C36.921456,29.82936 36.895056,30.25264 36.817176,30.68692 C36.632376,31.30204 36.308976,31.85996 36.073136,32.45616 C35.996576,32.66208 35.905056,32.85964 35.811336,33.05764 C35.471216,33.71236 35.182576,34.41504 35.175536,35.13312 C35.142096,38.65444 33.571736,41.73708 32.469096,44.95568 C31.993896,46.00112 31.458416,47.01444 31.273616,48.17956 C31.160976,48.88752 30.922056,49.68172 30.110696,49.84672 C29.085936,50.05528 29.115856,49.05472 28.788936,48.47568 C28.648136,48.22576 28.344976,48.11356 28.198456,47.8588 C28.180856,47.74308 28.158416,47.62912 28.130696,47.51516 C28.403056,46.49436 28.675856,45.47356 28.948216,44.45276 C30.584576,39.11908 32.740576,34.03048 36.036616,29.48264" id="Fill-186" fill="#241A31"></path>
                <path d="M28.198236,47.858888 C29.359396,47.764288 29.468076,48.731408 29.806876,49.687528 C31.252716,48.295368 30.568956,46.064568 32.084756,44.938608 C32.480756,45.235168 32.568756,45.669888 32.623316,46.121328 C32.662916,46.546808 32.650596,46.972728 32.609236,47.397328 C32.653676,48.987048 30.620876,49.865288 31.166916,51.624408 C31.405836,52.044168 31.740676,52.382968 32.071996,52.725288 C32.698996,53.563488 33.360316,53.353168 34.145716,52.906128 C37.470796,51.010608 40.788836,49.104968 44.019316,47.050608 C44.682836,46.628648 45.341076,46.092288 46.209196,46.585968 C46.456476,47.273688 46.034076,47.718528 45.572956,48.053808 C42.074516,50.600968 38.775836,53.440288 34.891076,55.429968 C33.975436,55.960168 33.041316,55.950048 32.265596,55.250008 C30.730436,53.864448 28.911036,52.715168 28.158636,50.629128 C28.171836,49.705568 28.185036,48.782448 28.198236,47.858888" id="Fill-188" fill="#5D6B7A"></path>
                <path d="M28.158504,50.629084 C29.298104,51.749324 30.427144,52.880564 31.580384,53.986284 C32.462584,54.832404 33.284064,55.920084 34.750584,55.050644 C35.147024,56.870484 34.134584,57.892164 32.697984,58.674924 C31.621744,58.257804 30.768144,57.648404 30.716664,56.354364 C29.258504,55.110044 28.227584,53.527804 27.216464,51.929284 C27.827624,51.711484 28.097344,51.245964 28.158504,50.629084" id="Fill-190" fill="#0F1215"></path>
                <path d="M23.671296,56.318548 C24.527976,56.862388 24.906376,57.789908 25.473536,58.566508 C23.123496,58.542748 20.773456,58.518108 18.422536,58.493028 C18.578736,58.354868 18.734936,58.216708 18.891136,58.078548 C20.722416,58.139268 22.146696,57.092948 23.671296,56.318548" id="Fill-192" fill="#F6ED50"></path>
                <path d="M60.691884,44.006292 C61.281044,44.300652 61.698604,44.763972 62.002644,45.338612 C61.996484,46.065052 61.426684,46.294292 60.907484,46.534092 C57.717924,48.006332 54.748804,50.060252 51.049284,50.181252 C50.046084,50.214252 49.196004,50.009652 48.495084,49.280572 C48.408844,47.515732 49.593324,46.911172 51.013204,46.519132 C52.277324,47.523652 53.512844,47.102572 54.843844,46.574572 C56.826484,45.787852 58.427204,44.134332 60.691884,44.006292" id="Fill-194" fill="#2F587B"></path>
                <path d="M51.00414,46.601632 C49.94682,47.288032 49.15174,48.219952 48.49482,49.280792 C48.15074,49.587032 47.80578,49.893272 47.46082,50.200392 C46.85758,49.731352 46.25434,49.262752 45.65154,48.793712 C45.68806,47.262952 47.01554,46.462592 47.64122,45.264032 C48.31574,44.402072 49.12754,43.671672 49.8993,42.900792 C50.12766,42.688712 50.3767,42.506552 50.64554,42.348592 C51.5779,41.799912 52.47814,41.862832 53.3489,42.491592 C53.77526,42.875272 54.01286,43.329792 53.87822,43.921152 C52.9903,44.887832 52.29554,46.064392 51.00414,46.601632" id="Fill-196" fill="#EF1614"></path>
                <path d="M48.095564,45.298792 C47.281124,46.463472 46.466684,47.628592 45.651804,48.793712 C44.608124,49.550952 43.993444,50.613552 43.523964,51.778672 C41.870884,53.275112 41.269404,55.443872 40.054124,57.221472 C38.924644,57.806232 38.234724,59.291672 36.489684,58.681832 C36.049684,58.527832 34.752124,59.225232 34.992804,60.130752 C35.334684,61.418192 34.451164,61.643472 33.839564,62.342632 C31.992444,64.451992 30.557164,63.729072 29.099444,61.994152 C29.304044,60.007992 30.831284,59.272312 32.364244,58.541912 C33.719004,57.760032 34.309484,56.455872 34.750364,55.050072 C38.219764,52.617752 41.695764,50.194672 45.148004,47.738152 C45.540044,47.459192 45.800084,46.994552 46.121724,46.615712 C46.489124,45.741432 46.959044,45.020272 48.095564,45.298792" id="Fill-198" fill="#560103"></path>
                <path d="M83.136152,16.720264 C83.548872,17.313384 83.962032,17.906504 84.374312,18.499184 C84.617632,19.885184 83.126472,19.577184 82.651712,20.262704 C81.788432,22.961664 79.942632,25.087744 78.289112,27.264424 C73.889992,33.055704 68.844072,38.205904 62.391912,41.777824 C61.835312,42.085824 61.317872,42.592704 60.578232,42.333984 C60.459872,42.181304 60.341072,42.028624 60.223152,41.875944 C59.566232,40.460904 60.809672,40.047304 61.585392,39.593664 C66.022352,37.002944 69.790512,33.622864 73.343512,29.958984 C74.714112,28.544824 75.892872,26.983704 77.107272,25.447224 C78.479192,23.559624 80.020952,21.785984 81.011832,19.640984 C81.917352,18.811584 82.181352,17.514024 83.136152,16.720264" id="Fill-200" fill="#8E9692"></path>
                <path d="M60.578408,42.33394 C65.503328,39.59186 69.816648,36.07626 73.704488,32.00934 C77.129448,28.42686 79.671328,24.1791 82.651888,20.26266 C82.680048,20.3995 82.696768,20.53766 82.700728,20.67758 C83.307488,21.63502 82.615368,22.37818 82.192528,23.06986 C80.718968,25.4793 79.118248,27.80778 77.366168,30.0267 C76.552168,30.8737 75.626408,31.62346 75.023168,32.66098 C74.612208,33.21626 74.111928,33.69102 73.639368,34.19086 C72.297368,35.5069 70.976488,36.84362 69.659128,38.18518 C67.852488,39.6363 66.156728,41.25374 63.887648,42.00878 C63.346448,42.18874 62.969808,42.48618 63.310808,43.13386 C63.324448,43.51314 63.254048,43.85018 62.865088,44.0297 C62.103008,43.4643 61.340488,42.89934 60.578408,42.33394" id="Fill-202" fill="#7E8682"></path>
                <path d="M51.00414,46.601632 C51.6945,45.548712 52.44866,44.557392 53.5777,43.926432 C56.40822,43.665512 57.5993,42.845352 58.05426,40.841152 C58.69006,40.853032 59.4407,40.719272 59.24358,41.780992 C59.72626,42.522832 60.20894,43.264672 60.69206,44.006512 C58.38646,45.362592 56.08042,46.708552 53.54602,47.622872 C52.3347,48.059792 51.42214,48.013592 51.00414,46.601632" id="Fill-204" fill="#416B8E"></path>
                <path d="M77.395956,25.54222 C76.849916,27.1711 75.602516,28.3173 74.488436,29.50398 C70.712796,33.52602 66.715836,37.29946 61.848556,40.02922 C61.137076,40.4283 60.187996,40.75786 60.223196,41.8759 C60.089436,41.84994 59.968876,41.79626 59.860196,41.71442 C59.483996,41.3545 59.117476,40.98798 59.108676,40.41466 C59.142996,40.20522 59.223956,40.01646 59.355956,39.8497 C64.780276,37.0733 69.326796,33.16918 73.581156,28.86686 C74.730876,27.70438 75.316076,25.94614 77.102036,25.43662 C77.200156,25.47094 77.297836,25.50658 77.395956,25.54222" id="Fill-206" fill="#9DA5A0"></path>
                <path d="M59.370564,40.479428 C59.533804,40.891268 59.696604,41.302668 59.860284,41.714508 C59.655684,41.736948 59.451084,41.759828 59.244724,41.781828 C58.991284,41.274508 58.493204,41.135468 58.018444,40.962548 C57.624204,40.986748 57.286284,40.834948 56.961124,40.634308 C56.422124,40.236548 55.961004,39.752548 55.478764,39.289668 C54.666524,38.160188 53.351804,37.416588 52.934244,35.982188 C52.895524,35.653068 52.958884,35.353868 53.184604,35.099548 C53.852524,34.760748 54.415724,35.043228 54.967484,35.396108 C55.946484,36.624588 56.855964,37.921708 58.185204,38.825028 C58.735644,39.264588 59.003164,39.907428 59.370564,40.479428" id="Fill-208" fill="#CEB442"></path>
                <path d="M73.43512,33.893156 C73.72156,33.301356 74.16112,32.862676 74.7516,32.574476 C75.36408,31.593276 76.3686,30.939436 76.95292,29.935356 C78.87748,26.854916 81.51396,24.216676 82.70064,20.677756 C83.9454,20.620556 83.73816,21.198276 83.3536,22.007436 C81.8092,25.257276 79.51812,28.016956 77.43956,30.897636 C74.35956,35.166956 70.40088,38.620076 66.4048,42.018636 C65.46452,42.818556 64.2444,42.507036 63.31072,43.134036 C62.16056,42.723956 62.14868,42.089476 63.2412,41.748036 C65.68012,40.985516 67.40888,39.160396 69.47908,37.852716 C70.9786,36.713556 72.3008,35.397076 73.43512,33.893156" id="Fill-210" fill="#6E7673"></path>
                <path d="M82.560368,15.455924 C82.628128,15.578244 82.670368,15.709364 82.686208,15.848404 C83.216848,16.722244 82.718768,17.432404 82.195168,18.004404 C81.123768,19.175244 80.254328,20.536164 78.963368,21.504164 C76.065528,23.341164 73.681608,25.804284 71.073728,27.994164 C67.736768,30.794764 64.539728,33.772684 60.799288,36.058924 C60.302528,36.362524 59.815448,36.684604 59.218808,36.768644 C57.974928,36.697804 56.764048,36.544684 55.954448,35.420924 C54.087968,31.977484 54.232728,31.449044 57.864048,28.429324 C58.413168,28.120444 59.067448,28.093604 59.615688,27.776804 C60.252808,27.435364 60.929528,27.188964 61.606248,26.939924 C62.302768,26.752924 62.983448,26.371004 63.730128,26.745444 C64.071568,28.037284 62.980368,28.288084 62.236768,28.774724 C60.707768,29.775284 59.149288,30.742844 58.289968,32.453124 C58.068208,32.893564 57.696408,33.393844 58.134648,33.860684 C58.567608,34.320924 59.106168,34.040204 59.543528,33.801724 C61.149088,32.927444 62.643328,31.871004 64.042528,30.706764 C68.517768,26.983044 72.769048,22.992244 77.670648,19.787724 C79.372128,18.675404 80.642408,17.005164 81.990568,15.471764 C82.177128,15.343284 82.367208,15.338444 82.560368,15.455924" id="Fill-212" fill="#CCD3CC"></path>
                <path d="M78.713404,21.143716 C79.954644,19.316396 82.298964,18.316716 82.686164,15.848316 L83.136284,16.720396 C82.940924,17.984516 82.449444,19.078796 81.352964,19.825476 C80.303124,21.662916 78.712964,23.094236 77.572484,24.864796 C76.381404,25.833236 75.435404,27.021236 74.413724,28.157316 C70.995804,31.958916 67.186724,35.343396 62.752404,37.952156 C62.146964,38.308556 61.499724,38.734916 60.715204,38.404036 C60.434484,36.861396 61.709604,36.447796 62.644164,35.872716 C67.883244,32.648836 72.187764,28.401956 76.103764,23.719476 C76.830644,22.716716 77.709324,21.866636 78.713404,21.143716" id="Fill-214" fill="#AEB6AF"></path>
                <path d="M82.560368,15.455924 C82.448608,15.437444 82.335968,15.425124 82.222888,15.418524 C81.905208,15.435244 81.629328,15.326124 81.378528,15.138684 C80.752408,14.238444 80.061608,13.390124 79.283688,12.611324 C79.070728,12.236444 78.910568,11.851884 79.088768,11.413204 C79.253768,11.272404 79.444288,11.183524 79.655488,11.136884 C81.514048,11.404404 82.030168,13.046924 82.911928,14.317204 C82.930408,14.535444 82.883328,14.739604 82.773768,14.929244 C82.702488,15.104804 82.631208,15.280364 82.560368,15.455924" id="Fill-216" fill="#CCD092"></path>
                <path d="M82.773944,14.929332 C82.775264,14.776212 82.776584,14.623092 82.778344,14.470412 C82.845224,14.190132 82.931464,13.918212 83.102624,13.679732 C83.487624,13.303532 83.651304,12.595572 84.419984,12.784332 C84.548904,13.799412 83.921024,14.563692 83.547904,15.412892 C83.290064,15.251412 83.031784,15.090372 82.773944,14.929332" id="Fill-218" fill="#91C9F0"></path>
                <path d="M24.638064,67.319868 C23.865424,68.782428 23.092784,70.244988 22.319704,71.707988 C18.731064,71.663108 17.721704,70.152588 19.408664,67.250348 C19.863624,66.467588 19.176784,65.874468 19.322864,65.167388 C19.507664,64.274188 19.013984,63.264388 19.785744,62.467548 C20.783224,61.895108 21.070104,62.744308 21.381624,63.337868 C22.136224,64.778868 22.266464,66.807708 24.690424,66.571428 C24.845744,66.556468 24.833864,67.069068 24.638064,67.319868" id="Fill-220" fill="#FDF7A6"></path>
                <path d="M24.638064,67.319868 C24.626184,67.247708 24.613864,67.175548 24.601544,67.103388 C21.750344,67.624348 21.642104,65.325348 20.975504,63.588228 C20.763864,63.035588 20.507784,62.494388 19.785744,62.467548 C21.065264,61.035788 21.913144,61.125988 22.469744,63.096308 C23.028544,65.075868 24.395624,65.319628 25.793064,63.682388 C26.557784,62.786548 27.119224,61.719108 28.566384,62.068908 C28.654824,63.581628 27.003064,63.641468 26.432824,64.622228 C25.891184,65.554148 25.240864,66.423148 24.638064,67.319868" id="Fill-222" fill="#FCF58A"></path>
                <path d="M32.364068,58.54178 C31.405748,59.81602 29.769828,60.45006 29.099268,61.9949 C28.982668,62.0103 28.873108,61.98962 28.771028,61.9311 C28.695348,60.66962 27.405708,60.34666 26.858788,59.45038 C28.143148,58.4155 28.990148,56.83634 30.717148,56.3541 C31.146588,57.17338 32.206108,57.51834 32.364068,58.54178" id="Fill-224" fill="#7E8280"></path>
                <path d="M66.680856,11.473792 C68.344496,13.135672 67.563496,15.252952 67.744776,17.190712 C67.890856,17.372432 67.947616,17.578352 67.917696,17.808912 C67.228656,20.722152 65.294416,22.581592 62.741536,23.921832 C60.215496,25.051312 57.670096,25.995552 54.904256,24.708112 C54.758616,24.533432 54.658736,24.331912 54.602416,24.111032 C54.410136,22.934912 55.159016,22.196592 55.888536,21.480272 C58.489816,18.923872 60.907176,16.172112 63.845496,13.971232 C64.666976,13.356112 65.434336,12.693912 65.820656,11.684112 C65.970696,11.292072 66.300696,11.163152 66.680856,11.473792" id="Fill-226" fill="#050304"></path>
                <path d="M66.680856,11.473792 C65.765216,13.296272 64.080896,14.334672 62.617896,15.638392 C60.063696,17.914072 57.713656,20.420752 55.305096,22.857472 C55.073216,23.091992 55.029656,23.513512 54.898536,23.848352 C53.824056,24.506152 53.138096,23.701832 52.375136,23.181312 C52.229936,23.025552 52.137096,22.841192 52.092656,22.633072 C52.860016,20.590592 54.963216,19.857552 56.313576,18.367272 C58.517976,15.932752 61.049736,13.829552 63.885096,12.125432 C64.130176,11.978032 63.905776,12.216952 64.000816,11.957792 C64.111696,11.655512 63.754416,11.714032 63.584136,11.630872 C63.403736,11.571472 63.245776,11.481272 63.104096,11.360712 C62.733616,10.947112 62.277336,10.623712 61.905096,10.212312 C61.821056,10.020472 61.871656,9.866032 62.036656,9.744592 C63.804136,9.732712 65.480096,9.963712 66.680856,11.473792" id="Fill-228" fill="#0A1117"></path>
                <path d="M67.656248,17.605016 C67.643488,17.458056 67.672528,17.319896 67.744688,17.190976 C68.268288,16.842496 68.142008,16.270936 68.232648,15.773736 C68.447368,15.348696 68.472888,14.646016 69.155768,14.778896 C70.102648,14.962816 70.342448,14.136936 70.888928,13.748856 C70.996288,13.769096 71.103648,13.788016 71.211448,13.806056 C72.103768,14.734016 71.785208,15.841936 71.680048,16.919056 C71.529128,17.482696 71.376448,18.046776 71.322328,18.631976 C70.987488,19.680496 71.026648,20.989936 69.532408,21.240296 C69.017608,20.525736 68.948528,19.525176 67.923328,19.115976 C67.288848,18.862536 67.460008,18.166016 67.656248,17.605016" id="Fill-230" fill="#F77573"></path>
                <path d="M50.979632,15.234648 C51.595192,14.412288 52.053232,13.428888 53.152792,13.098008 C53.178752,13.466728 53.205152,13.835888 53.230672,14.205048 C53.528112,15.638568 52.065552,16.502728 52.059392,17.837688 C51.537552,19.511448 52.044872,21.120528 52.366952,22.741048 L52.330872,22.902528 C51.712232,24.227808 51.108112,23.274328 50.634672,22.826408 C49.393872,21.651608 49.598472,20.106768 49.702752,18.607688 C49.700552,17.322008 50.589352,16.372488 50.979632,15.234648" id="Fill-232" fill="#E03236"></path>
                <path d="M70.888796,13.748768 C70.540316,14.447488 71.518436,16.645288 69.237916,15.177008 C68.771516,14.876488 68.616636,15.643848 68.231636,15.774968 C68.205676,14.500288 68.179276,13.226488 68.152436,11.953128 C68.609596,11.332728 69.222076,11.241648 69.917716,11.435688 C70.691676,12.017808 70.692996,12.924208 70.888796,13.748768" id="Fill-234" fill="#F62826"></path>
                <path d="M51.491836,17.680432 C51.629116,16.299712 52.592276,15.333032 53.231156,14.204432 C54.271756,13.499112 54.940116,12.319472 56.187956,11.875952 C56.368796,11.752312 56.560636,11.738672 56.761276,11.818312 C56.839596,13.791272 54.616276,14.048672 54.013476,15.513432 C53.385596,16.108312 52.919636,16.820232 52.532436,17.590672 C52.394276,17.734992 52.228396,17.829592 52.032156,17.870072 C51.831076,17.864792 51.650236,17.804512 51.491836,17.680432" id="Fill-236" fill="#4C1A1B"></path>
                <path d="M69.917672,11.435556 C69.384392,11.796356 68.791712,11.953436 68.152392,11.9529969 C67.664872,11.105116 66.453992,10.372516 67.718112,9.243916 C69.004232,9.419036 69.470192,10.418276 69.917672,11.435556" id="Fill-238" fill="#F54C4D"></path>
                <path d="M56.808356,11.958716 C56.601996,11.930996 56.395636,11.903716 56.188836,11.875996 C57.993716,10.772036 59.754156,9.541796 62.036876,9.744636 C62.013996,9.888076 61.999036,10.032836 61.992436,10.178476 C61.365436,10.882036 60.383356,10.876316 59.647236,11.362516 C59.391156,11.520916 59.128916,11.666556 58.854356,11.791516 C58.184236,11.984236 57.532156,12.425116 56.808356,11.958716" id="Fill-240" fill="#45090A"></path>
                <path d="M50.979632,15.234648 C50.681312,16.326288 50.383872,17.418368 50.085552,18.510008 C49.589672,20.046048 50.095672,21.717608 49.446672,23.233848 C49.271552,23.444608 49.070032,23.473648 48.842552,23.321408 C48.587352,21.401248 49.197632,19.550608 49.300592,17.658608 C49.892392,16.873208 50.082472,15.808848 50.979632,15.234648" id="Fill-242" fill="#983739"></path>
                <path d="M77.872036,9.666536 C79.360116,6.906856 81.826316,4.936536 83.720516,2.500256 C84.153476,1.943216 85.436956,2.133736 85.231916,3.137376 C84.607996,6.192296 85.355116,9.344456 84.435076,12.353176 C84.381396,12.304336 84.299116,12.265176 84.277996,12.204896 C82.885396,8.263376 82.885836,8.262936 79.227236,10.310256 C78.637196,10.386376 78.170796,10.201576 77.872036,9.666536" id="Fill-244" fill="#91C9F0"></path>
                <path d="M75.68924,7.516608 C74.90252,7.215208 74.71948,6.414408 74.28564,5.821288 C74.65744,4.117608 77.75108,2.191288 79.24752,2.804208 C80.00212,3.113088 80.55608,3.583448 80.16184,4.653088 C79.34696,6.866728 77.90464,7.858488 75.68924,7.516608" id="Fill-246" fill="#5BA0D9"></path>
                <path d="M77.872036,9.666536 C78.284316,9.840776 78.697476,10.014576 79.110196,10.188816 C79.453836,10.330056 79.613556,10.626616 79.751716,10.942536 C79.800116,11.114576 79.771956,11.274296 79.670756,11.421696 C79.488156,11.446336 79.305556,11.470976 79.122956,11.495616 C76.180236,10.152296 74.773996,12.188616 73.317156,14.127696 C72.792676,14.826416 72.333756,15.544496 72.115076,16.412616 C71.997596,16.877256 71.855036,17.458936 71.114956,17.200656 C71.147076,16.068096 71.179196,14.935976 71.211316,13.804736 C71.416796,11.158576 72.988476,9.389336 75.664996,8.793136 C76.115116,8.951976 76.564796,9.111256 77.015356,9.270536 C77.301356,9.402536 77.586916,9.534536 77.872036,9.666536" id="Fill-248" fill="#ACBFC3"></path>
                <path d="M79.6213,11.035508 C79.2583,10.869188 79.1659,10.540068 79.1109,10.188508 C80.19858,9.235468 81.09178,7.585028 82.77874,8.124908 C84.79526,8.770388 84.44106,10.712988 84.4349,12.353308 C84.43006,12.496748 84.42522,12.640628 84.41994,12.784068 C83.9861,13.228028 83.55182,13.671988 83.11754,14.115948 C83.0665,14.066668 82.9675,14.013428 82.97102,13.967668 C83.1589,11.496188 81.99114,10.580988 79.6213,11.035508" id="Fill-250" fill="#AEE5FA"></path>
                <path d="M48.842376,23.321584 C48.959416,23.356784 49.077776,23.383624 49.198336,23.402984 C50.523176,24.346344 51.343776,25.884144 52.910616,26.542384 C55.097856,27.660424 57.628296,27.231424 59.867896,28.097344 C59.437576,28.814984 58.678576,28.536904 58.063016,28.692664 C57.196656,29.130024 56.277496,29.284464 55.316976,29.210984 C53.082656,28.549664 51.111456,29.103184 49.328136,30.520864 C47.308096,30.145104 46.563176,28.663624 46.172896,26.875464 C47.004936,25.647864 48.512816,24.927144 48.842376,23.321584" id="Fill-252" fill="#658090"></path>
                <path d="M36.454704,30.745264 C36.492984,30.324624 36.531704,29.903984 36.570424,29.482904 C36.970384,29.140584 37.369904,28.798264 37.769424,28.455504 C38.691224,29.197784 38.932784,28.288304 39.366184,27.808704 C40.284464,26.793624 41.153024,25.699344 42.660904,25.536544 C42.810944,25.534344 42.960984,25.531704 43.111464,25.529504 C43.408904,25.817704 43.706344,26.105904 44.003784,26.393664 C44.404624,26.640064 44.689304,26.925624 44.357104,27.423704 C42.486224,27.740944 41.222544,29.059624 39.833464,30.171944 C39.161144,30.710504 38.512584,31.304504 37.733344,31.667064 C36.870504,32.067904 36.122504,32.101344 36.454704,30.745264" id="Fill-254" fill="#8FC2E9"></path>
                <path d="M44.481052,27.305212 C44.321772,27.001612 44.162492,26.698012 44.003652,26.393972 C45.071532,25.001812 45.423532,26.834412 46.172852,26.875332 C47.263172,27.984132 47.731332,29.635452 49.231732,30.386972 C50.377492,30.668132 50.916932,31.711372 51.751612,32.385012 C52.363212,33.244772 53.402492,33.895972 53.136732,35.188692 L53.116052,35.971012 C52.956772,36.314652 52.675612,36.326972 52.360572,36.250412 C51.758652,35.857052 51.478372,35.199252 51.053332,34.661132 C50.568452,33.933812 49.732452,33.545292 49.255492,32.809172 C48.185852,31.393252 46.813492,30.265972 45.607452,28.980732 C45.173612,28.461972 44.570812,28.055412 44.481052,27.305212" id="Fill-256" fill="#526E7E"></path>
                <path d="M32.152252,46.20286 C32.129812,45.7809 32.107372,45.35938 32.084932,44.93786 C32.117052,44.64966 32.085812,44.33462 32.191852,44.07546 C33.510972,40.85334 34.539692,37.56346 34.816452,34.0615 C34.858252,33.5313 35.293852,33.0319 35.547292,32.51798 C35.805572,32.67902 36.010172,32.90562 36.038772,33.20262 C36.202452,34.88826 37.111492,34.55166 38.103252,33.97394 C39.611132,33.09702 41.075892,32.11318 42.828412,31.78406 C44.819412,31.41094 45.641332,32.30194 45.035892,34.21066 C44.366212,36.32222 43.134652,38.12182 41.720492,39.8035 C40.036172,41.57054 38.121732,43.0309 35.708332,43.57166 C34.075492,43.93686 33.559812,45.63658 32.152252,46.20286" id="Fill-258" fill="#3178AF"></path>
                <path d="M41.335316,39.617028 C42.537836,37.805988 43.863996,36.066668 44.582516,33.976668 C45.100836,32.470108 44.608476,31.841348 43.069796,32.231188 C41.586996,32.606508 40.247196,33.321508 38.941716,34.163228 C35.958076,36.087348 35.712116,35.929388 35.547556,32.518068 C35.536556,32.389148 35.567356,32.271228 35.639516,32.163868 C36.739076,32.834868 37.630516,32.684388 38.604676,31.759508 C39.852956,30.574148 41.439156,29.794908 42.765316,28.679068 C43.706916,27.887508 44.710556,27.813588 45.705396,28.626268 C47.200076,29.775988 48.551316,31.066948 49.636356,32.620588 C48.384556,36.264668 45.426436,38.609868 42.964196,41.325548 C42.537836,41.795468 41.981676,42.177388 41.486676,42.602868 C40.211996,43.545788 38.991876,44.570548 37.509956,45.194028 C36.784836,45.498948 36.077316,45.937628 35.256716,45.476508 C34.895476,44.334268 35.950596,44.249348 36.520836,43.865668 C38.315596,42.658308 40.049636,41.395508 41.335316,39.617028" id="Fill-260" fill="#438AC1"></path>
                <path d="M45.70522,28.626268 C44.49786,28.308588 43.47926,28.648268 42.52226,29.423988 C41.06102,30.608468 39.49594,31.669308 38.07562,32.898228 C36.76134,34.035628 36.07934,33.640508 35.63934,32.163428 C35.91126,31.690868 36.18274,31.218308 36.45466,30.745308 C36.64122,31.760388 37.08034,31.680748 37.7641,31.114468 C39.09422,30.013588 40.59418,29.088708 41.78658,27.860668 C42.67274,26.947668 43.4797,26.985948 44.4807,27.305388 C45.05974,27.587428 45.46586,28.029628 45.70522,28.626268" id="Fill-262" fill="#69A3D3"></path>
                <path d="M31.677008,52.797272 C31.370328,52.512592 31.063648,52.227472 30.756968,51.943232 C30.219728,50.054312 31.654568,49.037472 32.801208,48.277592 C34.411608,47.209272 36.171608,46.269432 38.062728,45.682032 C38.714368,45.570712 39.359408,45.334432 40.033488,45.547832 C41.352608,46.315632 42.551608,45.728232 43.774808,45.238512 C44.685168,44.874192 45.557688,44.128392 46.632168,44.817432 C46.834568,45.579072 46.267408,45.863312 45.765808,46.141832 C42.321488,48.057152 39.023248,50.226792 35.551648,52.086672 C34.406768,52.700032 33.170808,53.703232 31.677008,52.797272" id="Fill-264" fill="#89ADCC"></path>
                <path d="M31.677008,52.797272 C33.757768,52.660432 35.509408,51.689352 37.198568,50.585832 C40.268888,48.578992 43.692528,47.156032 46.600048,44.881672 C47.474768,43.670792 48.547048,42.854152 50.153048,43.103632 C49.841968,44.189112 48.657488,44.455752 48.093848,45.300552 C47.437808,45.737912 46.779568,46.177032 46.121768,46.616152 C43.422368,47.702072 41.082888,49.440952 38.658048,50.976112 C37.002768,52.023752 35.093608,52.570232 33.569008,53.906512 C32.689888,54.676952 32.036488,53.664952 31.677008,52.797272" id="Fill-266" fill="#7E95AB"></path>
                <path d="M38.257472,46.20242 C35.962872,47.34862 33.380512,47.97342 31.572112,50.00094 C31.055552,50.57998 30.711472,51.16166 30.757232,51.94266 C29.925632,51.06926 30.579472,50.39518 31.000552,49.62562 C31.377632,48.93614 32.067992,48.40462 32.113752,47.53958 C32.861752,46.41758 33.415712,45.02586 35.187592,45.32418 C37.698232,45.21858 39.270792,43.23462 41.341872,42.24946 C42.082832,41.95466 42.473992,40.88326 43.521192,41.26738 C43.432752,43.58618 41.173792,43.94258 39.904392,45.1781 C39.479792,45.59082 38.796032,45.83502 38.257472,46.20242" id="Fill-268" fill="#6297C3"></path>
                <path d="M35.187548,45.324136 C33.913748,45.717056 33.176308,46.853576 32.113708,47.539536 C32.126028,47.093816 32.138788,46.648976 32.151988,46.203256 C32.834428,44.478456 34.043108,43.380656 35.883188,42.979816 C38.087588,42.498896 39.644748,40.944376 41.335228,39.616896 C40.449068,41.675216 38.752428,42.969256 36.991548,44.195536 C36.409868,44.599896 35.789908,44.949256 35.187548,45.324136" id="Fill-270" fill="#4480B1"></path>
                <path d="M50.152916,43.103544 C48.968876,43.696664 47.784396,44.288904 46.599916,44.881584 C44.917796,44.885984 43.693716,46.191024 42.108836,46.464704 C41.294836,46.605064 40.337396,47.124704 40.019276,45.764224 C39.775516,45.104224 40.308356,44.849904 40.693356,44.571824 C43.816036,42.316384 46.658436,39.732704 49.479716,37.122184 C50.003756,36.637304 50.531316,36.068384 51.381396,36.401464 C51.846916,37.491344 50.900036,37.950264 50.367636,38.549104 C49.079316,39.998904 47.519956,41.204944 46.072356,43.226304 C47.723676,42.828104 48.841716,41.898384 50.158636,42.352464 C50.353996,42.436944 50.506236,42.571584 50.616236,42.753744 C50.461356,42.870344 50.307356,42.986944 50.152916,43.103544" id="Fill-272" fill="#8AB7DC"></path>
                <path d="M57.2363,40.398204 C57.57686,40.475204 57.88266,40.601924 58.01818,40.962284 C57.67146,41.579164 59.3153,42.217604 58.14358,42.671684 C56.68146,43.237524 55.62634,45.496484 53.5777,43.926124 C53.43118,43.533644 53.2851,43.141164 53.13858,42.749124 C54.19942,41.433964 55.09482,39.829724 57.2363,40.398204" id="Fill-274" fill="#5A81A2"></path>
                <path d="M57.2363,40.398204 C55.42614,40.407444 54.71246,42.328484 53.13858,42.749124 C52.29686,42.130044 51.45646,42.316164 50.6165,42.753524 C50.53686,42.730204 50.46558,42.691924 50.4031,42.638684 C51.60606,40.475644 53.41182,39.260804 55.91146,39.139804 C56.35322,39.559124 56.79454,39.978444 57.2363,40.398204" id="Fill-276" fill="#7D9FBE"></path>
                <path d="M77.392524,24.658348 C78.263724,22.679668 79.926044,21.349108 81.352964,19.825388 C80.546004,22.085228 79.057044,23.873388 77.396044,25.542308 L77.392084,25.539228 C77.123244,25.245308 77.145684,24.951828 77.392524,24.658348" id="Fill-278" fill="#9DA5A0"></path>
                <path d="M73.43512,33.893156 C72.65104,35.746876 71.32884,37.063356 69.47908,37.852716 C70.61956,36.354956 71.9444,35.041116 73.43512,33.893156" id="Fill-280" fill="#727A77"></path>
                <path d="M76.952964,29.935312 C76.747484,31.255752 75.695444,31.869552 74.751644,32.574432 C74.968124,31.263672 76.018404,30.647672 76.952964,29.935312" id="Fill-282" fill="#727A77"></path>
                <path d="M76.516396,23.786488 C76.344356,24.173248 76.266036,24.653288 75.986636,24.932248 C71.791676,29.123688 67.849276,33.614768 62.528796,36.496768 C61.743836,36.922248 61.125196,37.511848 60.686076,38.290208 C60.840516,39.318048 59.702236,39.383168 59.374436,40.051968 C59.368716,40.194528 59.367396,40.336648 59.370476,40.479208 C58.777796,40.228848 58.351436,39.803808 58.063676,39.233128 C57.747316,38.251488 58.757116,38.098808 59.116156,37.536928 C62.222556,34.920248 65.838916,32.999648 68.860396,30.241728 C70.791116,28.479088 72.625036,26.618768 74.570716,24.876368 C75.127316,24.378288 75.513196,23.511488 76.516396,23.786488" id="Fill-284" fill="#B3B8AF"></path>
                <path d="M59.374436,40.05188 C59.269276,39.061 60.262796,38.88764 60.686076,38.29012 C63.645076,37.31156 66.034276,35.42308 68.371556,33.45936 C70.987796,31.26156 73.538916,29.00216 75.616156,26.25348 C76.086956,25.63 76.794476,25.18516 77.392436,24.65848 C77.392436,24.95196 77.391996,25.24588 77.391996,25.53936 C76.385276,26.17868 75.766196,27.17924 74.981236,28.03284 C70.620396,32.77164 65.948476,37.1514 60.017276,39.9256 C59.824996,40.01492 59.589596,40.01184 59.374436,40.05188" id="Fill-286" fill="#A0A7A3"></path>
                <path d="M55.911592,39.139672 C53.899032,40.027152 52.050152,41.171592 50.404112,42.638992 C49.120632,42.549232 48.003912,43.031032 46.911832,43.625032 C46.480192,43.859992 45.932832,44.248512 45.552232,43.718752 C45.215632,43.251032 45.637592,42.704112 45.949552,42.366192 C47.224672,40.985472 48.575032,39.674712 49.876992,38.319072 C50.423472,37.749712 50.919352,37.131952 51.438552,36.535752 C51.464072,35.757392 51.930032,35.831752 52.451432,36.013032 C52.673632,35.998952 52.895832,35.985312 53.116712,35.971672 C54.048192,37.027232 54.980112,38.083672 55.911592,39.139672" id="Fill-288" fill="#96C5E9"></path>
                <path d="M53.136688,35.188692 C52.557648,34.332012 51.978168,33.475332 51.399128,32.618652 C51.776208,30.558572 53.425328,29.646012 54.982048,28.650292 C56.009008,28.663932 57.035968,28.678012 58.062928,28.692092 C57.980208,28.810452 57.916408,28.949932 57.812128,29.043652 C55.894168,30.760532 53.952008,32.466412 56.296328,35.227412 C55.956648,35.868932 55.485848,36.089372 54.820128,35.688972 L53.136688,35.188692 Z" id="Fill-290" fill="#A7B9BD"></path>
                <path d="M54.820172,35.68884 C55.312092,35.53484 55.804012,35.38084 56.295932,35.22728 C57.060212,36.2758 58.421132,35.91236 59.368892,36.52528 C59.762252,36.96176 59.672932,37.4 59.374612,37.83912 C58.937252,38.30332 58.499892,38.76752 58.062972,39.23304 C56.630332,38.37416 55.406252,37.323 54.820172,35.68884" id="Fill-292" fill="#DAD5AF"></path>
                <path d="M69.491884,21.094304 C70.487604,20.526704 70.448444,19.411744 70.848844,18.529544 C72.010444,16.959184 72.867124,15.158264 74.435724,13.895904 C75.182404,13.294864 75.860004,12.592184 76.951644,13.014584 C77.337964,13.271104 77.576444,13.604624 77.508244,14.094344 C75.031484,15.797144 73.412724,18.174904 71.889004,21.260624 C75.955924,19.841184 79.160004,17.910464 81.773604,15.014824 C81.923644,15.149464 82.073684,15.284104 82.223284,15.418744 C81.511804,17.644264 79.696364,19.088344 77.957044,20.217824 C72.608844,23.691624 68.152524,28.229344 63.130804,32.076704 C61.976684,32.961104 60.720044,33.719664 59.471324,34.469864 C58.829804,34.855304 58.018444,35.052864 57.430604,34.469864 C56.873124,33.917664 57.321924,33.248864 57.571844,32.642104 C58.465044,30.475544 60.302044,29.277424 62.221764,28.216584 C62.891004,27.846104 63.485884,27.519184 63.751644,26.775144 C63.738004,25.661504 64.690164,25.315224 65.359844,24.742784 C67.115004,23.954744 67.850684,22.010384 69.491884,21.094304" id="Fill-294" fill="#DFE6E1"></path>
                <path d="M59.374436,37.838988 C59.372676,37.401188 59.370476,36.963388 59.368276,36.525588 C65.905356,32.153748 71.597636,26.750108 77.543356,21.656228 C77.891836,21.357468 78.253516,21.155508 78.713316,21.143628 C77.980716,22.024508 77.248556,22.905828 76.516396,23.786708 C72.907956,26.941068 69.749636,30.599668 65.809876,33.381788 C63.678516,34.887028 61.520756,36.354428 59.374436,37.838988" id="Fill-296" fill="#C0C6BD"></path>
                <path d="M65.54262,25.099844 C64.94554,25.658644 64.34846,26.217004 63.75182,26.775364 L61.7111,27.301164 C59.3461,28.166644 57.2495,27.823004 55.49478,25.926164 C54.96942,25.695164 54.44186,25.435124 54.1849,24.901404 C53.87998,24.270004 54.03662,23.934724 54.80706,24.184644 C57.64638,25.368244 60.26306,24.249324 62.90614,23.403204 C65.1145,22.929324 65.49686,23.174844 65.54262,25.099844" id="Fill-298" fill="#EB0506"></path>
                <path d="M55.335368,25.546268 C56.206128,25.709508 57.634808,24.930268 57.426688,26.899268 C57.377408,27.369628 58.101208,27.276788 58.501168,27.286468 C59.569928,27.312428 60.639568,27.299228 61.709648,27.301428 C61.096288,27.566748 60.480728,27.832508 59.866928,28.097828 C57.268728,28.161188 54.665248,28.250948 52.316968,26.824468 C53.290248,26.321108 54.203688,25.675628 55.335368,25.546268" id="Fill-300" fill="#A91414"></path>
                <path d="M81.773604,15.014868 C81.375844,16.725148 79.960804,17.710308 78.716924,18.567428 C76.820084,19.874228 74.631084,20.762588 72.544164,21.784708 C71.816844,22.141108 70.913524,21.887668 71.405004,21.038028 C72.968324,18.332908 73.966244,15.052268 77.493724,14.031028 C78.140964,13.554508 78.650484,12.954348 79.066284,12.269708 C79.263404,12.159708 79.437204,12.183908 79.583284,12.361228 C80.527084,13.069628 81.290484,13.926308 81.773604,15.014868" id="Fill-302" fill="#F0F4F0"></path>
                <path d="M79.583504,12.361096 L79.103904,12.363736 C78.696024,13.481336 77.878944,13.575936 76.892904,13.249016 C74.673104,13.449656 73.866584,15.407656 72.568584,16.746136 C71.993944,17.338816 71.827624,18.323096 70.848624,18.529456 C70.799784,18.058216 70.658984,17.568496 71.116144,17.200216 C71.898024,15.360136 72.854144,13.664816 74.230464,12.151216 C75.772224,10.456336 77.200024,9.578096 79.122824,11.495176 C79.276384,11.783816 79.429944,12.072456 79.583504,12.361096" id="Fill-304" fill="#CAD9DA"></path>
                <path d="M79.6213,11.035508 C83.37846,9.930668 83.37846,9.930668 83.11754,14.115948 C83.00402,14.234308 82.89094,14.352668 82.77742,14.470588 C81.63254,13.565508 81.12038,12.015388 79.67014,11.421828 C79.6389,11.294668 79.62262,11.166188 79.6213,11.035508" id="Fill-306" fill="#DCF9FB"></path>
                <path d="M65.54262,25.099844 C65.4137,23.369324 64.02726,23.592404 62.90614,23.403204 C65.03706,21.918204 66.74382,20.086044 67.65682,17.604444 C67.79366,18.055004 67.60534,18.817084 68.2935,18.811804 C70.2823,18.796844 69.76794,19.984404 69.49206,21.094524 C68.41274,22.663564 67.50458,24.401124 65.54262,25.099844" id="Fill-308" fill="#F6191C"></path>
                <path d="M55.335368,25.546268 C54.531488,26.449588 53.672608,27.221788 52.317408,26.824908 C50.872888,26.052268 49.722288,25.013428 49.198688,23.402588 C49.234328,21.724428 49.421768,20.073548 50.085728,18.509788 C50.077808,20.007108 50.028088,21.511028 51.156248,22.724108 C51.512648,23.107348 51.832088,23.541628 52.331048,22.902748 C53.292888,22.930028 53.853448,24.048948 54.898888,23.848308 C54.938488,23.978988 54.908128,24.091628 54.808248,24.185348 C53.706488,25.133988 55.522368,24.951388 55.335368,25.546268" id="Fill-310" fill="#C53033"></path>
                <path d="M51.491836,17.680432 C51.644956,17.674272 51.798076,17.668552 51.951196,17.662832 C52.420236,18.201392 52.442236,18.854352 52.433436,19.514792 C52.353356,20.092512 52.343676,20.554512 53.016876,19.859752 C55.755876,17.030992 58.924756,14.710872 61.996836,12.276792 C62.337396,12.006632 62.636596,11.683232 63.052836,11.519112 C63.154916,11.506792 63.257876,11.495792 63.360836,11.485232 C63.934596,11.134112 64.510556,10.813792 65.454356,11.649352 C60.451116,14.695032 56.521036,18.843352 52.367436,22.740872 C51.110796,21.221112 51.006956,19.501592 51.491836,17.680432" id="Fill-312" fill="#1B242A"></path>
                <path d="M51.946444,19.753888 C51.947764,19.056928 51.949084,18.359528 51.950844,17.662568 C52.060844,17.613728 52.175684,17.585568 52.295364,17.578088 C54.523964,15.815008 56.778524,14.081848 58.936724,12.233408 C59.791204,11.501248 60.687924,10.926608 61.781324,10.660408 C62.336164,10.597048 62.857124,10.664368 63.290084,11.059048 C63.313404,11.201168 63.336724,11.342848 63.3600461,11.485408 C63.360484,11.485408 63.292724,11.440528 63.292724,11.440528 C60.223724,13.837648 57.009084,16.050408 54.133244,18.693488 C53.519444,19.257568 52.996284,20.064968 51.946444,19.753888" id="Fill-314" fill="#4B565E"></path>
                <path d="M63.290172,11.059136 C62.710692,11.052536 62.130332,11.046376 61.550852,11.039776 C60.812092,11.293656 60.072892,11.529936 59.342492,11.016456 C60.123932,10.414096 61.025052,10.191016 61.992612,10.177816 C62.617852,10.187936 63.107572,10.396936 63.290172,11.059136" id="Fill-316" fill="#2F393F"></path>
                <path d="M59.342624,11.016632 C60.078744,11.024112 60.814864,11.032032 61.550984,11.039512 C58.735864,12.902472 56.199704,15.120512 53.628784,17.291032 C53.201104,17.651832 52.934024,18.353632 52.295144,17.578352 C52.254224,16.563272 52.863184,15.921312 53.578184,15.340072 C55.535744,14.299032 56.963104,12.552672 58.833984,11.397232 C59.003384,11.270072 59.172784,11.143352 59.342624,11.016632" id="Fill-318" fill="#68747D"></path>
                <path d="M58.833896,11.3971 C57.427216,13.17118 55.998976,14.91666 53.578536,15.33994 C54.133376,13.71502 55.895136,13.24202 56.808136,11.95854 C57.483976,11.77154 58.158936,11.5841 58.833896,11.3971" id="Fill-320" fill="#88969F"></path>
                <path d="M54.98218,28.650116 C53.78802,29.973196 52.59386,31.295836 51.39926,32.618916 C50.67678,31.874876 49.9543,31.130836 49.23226,30.386796 C50.67942,28.254996 52.68186,27.959756 54.98218,28.650116" id="Fill-322" fill="#8AA2AC"></path>
                <path d="M52.451344,36.012812 C52.065904,36.094652 51.658464,36.132932 51.438464,36.535532 C49.467704,37.057372 48.628624,38.971812 47.108864,40.073572 C44.658944,41.850732 42.374024,43.855372 40.019584,45.764532 C39.432184,45.910172 38.844784,46.056252 38.257384,46.202332 C39.679464,44.223212 42.200664,43.443972 43.535184,41.369372 C43.356104,40.492452 44.173184,40.273772 44.619784,39.922652 C46.410144,38.515092 47.954104,36.871692 49.490584,35.208932 C49.987344,34.669932 50.349904,33.705892 51.401504,34.347412 C51.786944,34.880252 52.411304,35.262172 52.451344,36.012812" id="Fill-324" fill="#6DAADA"></path>
                <path d="M51.401592,34.347368 C50.264632,34.324048 50.134832,35.429328 49.555792,36.020248 C47.670832,37.943048 45.781912,39.855728 43.535272,41.369328 C42.803992,41.662808 42.073152,41.955848 41.341872,42.249328 C44.440792,39.326408 47.157792,36.075688 49.636752,32.619928 C50.046392,33.378488 51.106352,33.472208 51.401592,34.347368" id="Fill-326" fill="#539BD0"></path>
                <path d="M76.892816,13.24884 C77.370216,12.30416 78.681856,13.44464 79.103816,12.36356 C79.319856,13.64704 78.675696,14.0998 77.492976,14.0316 C77.293216,13.77024 77.093016,13.50976 76.892816,13.24884" id="Fill-328" fill="#9FA7A3"></path>
                <path d="M51.946444,19.753888 C55.044924,17.317168 58.160124,14.901568 61.228244,12.427008 C61.862724,11.915288 62.410964,11.369248 63.293164,11.440528 C62.641524,12.839288 61.307444,13.532288 60.155964,14.383688 C57.813844,16.115088 55.643764,18.029088 53.561244,20.061008 C53.171404,20.441168 52.008484,22.228888 51.946444,19.753888" id="Fill-330" fill="#2F393F"></path>
            </g>
            <rect id="Rectangle" fill-opacity="0" fill="#D8D8D8" x="0" y="0" width="99" height="99"></rect>
        </g>
    </g>
</svg>