<?xml version="1.0" encoding="UTF-8"?>
<svg width="100px" height="94px" viewBox="0 0 100 94" version="1.1" xmlns="http://www.w3.org/2000/svg" xmlns:xlink="http://www.w3.org/1999/xlink">
    <title>snapchat</title>
    <g id="Page-1" stroke="none" stroke-width="1" fill="none" fill-rule="evenodd">
        <g id="Artboard" transform="translate(0.000000, -3.000000)" fill-rule="nonzero">
            <g id="snapchat" transform="translate(0.000000, 3.000000)">
                <path d="M84.4875,78.2791667 C84.625,77.6708333 84.85,76.6916667 85.0541667,76.3125 C88.7125,75.7625 96.2333333,74.5 97.6708333,71.3166667 C98.3958333,69.6791667 97.3583333,68.3416667 96.0333333,68.1416667 L96.0333333,68.1375 C83.225,66.1166667 77.45,53.525 77.2125,52.9916667 C77.1916667,52.9583333 77.1791667,52.9208333 77.1583333,52.8875 C75.3041667,49.2708333 77.6833333,48.1041667 81.8666667,46.8291667 C90.2875,44.3208333 89.2916667,39.6666667 85.175,38.2583333 C81.3291667,36.7541667 78.8833333,40.4166667 75.8291667,39.075 C76.5875,26.9083333 77.8583333,18.5583333 68.8791667,10.4291667 C58.5208333,1.05833333 40.425,1.95 31.0916667,10.4458333 C22.3,18.45 23.3416667,26.5833333 24.15,39.0791667 C22.4416667,39.7958333 20,39.025 18.3125,38.2625 C14.0583333,36.3583333 6.78333333,42.6125 16.725,46.375 C21.0333333,47.9958333 25.1083333,48.4541667 22.8333333,52.8833333 C22.8125,52.9166667 22.7958333,52.9541667 22.7833333,52.9875 C19.6208333,59.9208333 12.6458333,66.7541667 3.95833333,68.1291667 C2.56666667,68.3458333 1.62083333,69.7583333 2.3125,71.3041667 L2.3125,71.3125 C3.73333333,74.4875 11.2833333,75.7625 14.9333333,76.3125 C15.2625,76.9041667 15.6416667,79.1083333 16.0583333,80.4458333 C17.2583333,84.3333333 21.4416667,80.4 29.45,81.6916667 C35.3833333,82.6416667 40.4083333,90.6166667 49.8916667,89.95 C55.5291667,90.2875 59.7208333,87.7958333 63.8166667,85.0291667 L63.8208333,85.0208333 C67.8083333,82.3291667 70.5708333,80.3 79.1541667,81.9208333 C83.3458333,82.7 83.7,81.7541667 84.4875,78.2791667 L84.4875,78.2791667 Z" id="Path" fill="#FFEB3B"></path>
                <path d="M13.2791667,79.4125 C14.4166667,84.4125 15.6375,86.4833333 22.1958333,85.4083333 C24.1041667,85.0916667 26.4875,84.6958333 29.4208333,85.1791667 C34.2875,85.9875 47.1541667,102.379167 65.45,87.9208333 C69.0208333,85.4208333 70.9708333,84.0375 77.9,85.3958333 C80.925,85.9833333 84.8041667,85.3625 86.7,79.4125 C104.779167,76.1583333 100.895833,66.1875 95.4791667,65.3166667 C86.0625,63.7791667 79.8166667,54.0583333 79.15,50.9583333 C79.8125,50.55 81.2625,50.0458333 82.1875,49.7291667 C97.4583333,44.4458333 88.9583333,31.5875 78.575,35.5541667 C79.2541667,24.7208333 79.45,16.0416667 70.5875,7.72083333 C61.1666667,-1.09583333 46.6125,-1.5 37.1083333,2.67083333 C20.5416667,9.9125 20.6708333,23.9416667 21.4083333,35.7208333 C14.8041667,33.1958333 10.325,36.8333333 9.60416667,40.5625 C8.5125,46.4416667 14.1291667,48.4166667 17.4791667,49.5958333 C18.65,50.0083333 20.6041667,50.6958333 20.9,50.9166667 C20.5375,51.3375 18.4375,60.675 6,64.8 C3.625,65.5875 1.37916667,66.3333333 0.404166667,68.5083333 C-0.175,69.8083333 -0.129166667,71.2666667 0.554166667,72.8375 C2.23333333,76.7375 7.69166667,78.4125 13.2791667,79.4125 L13.2791667,79.4125 Z M26.2583333,54.3416667 C29.0083333,48.8 25.4,45.7791667 19.5583333,43.7208333 C18.325,43.2875 16.0333333,42.4791667 15.7333333,41.7375 C15.8375,41.475 16.6583333,40.95 17.4375,40.95 C17.6791667,40.9666667 18.3708333,41.2333333 18.8291667,41.4041667 C38.5875,48.8875 15.275,19.0125 39.6125,8.37916667 C47.0666667,5.1125 58.9583333,5.37083333 66.3166667,12.2666667 C78.1125,23.3333333 68.8333333,39.4916667 73.95,41.8208333 C77.5916667,43.475 81.075,40.9291667 82.3333333,40.8916667 C83.3125,40.8916667 84.1666667,41.475 84.2583333,41.6833333 C84.275,42.4208333 81.6958333,43.3125 80.1541667,43.8458333 C73.0291667,46.3083333 70.8041667,49.2583333 74.8333333,56.6041667 C77.8708333,62.1458333 84.2958333,69.0416667 92.8041667,71.1333333 C86.8333333,74.5833333 82.3,71.5458333 80.975,76.7625 C80.2916667,79.5333333 79.8541667,79.4375 79.1,79.2916667 C57.9916667,75.1583333 59.4333333,97.0833333 37.9791667,82.7541667 C30.6583333,77.8666667 29.2291667,78.3875 19.7083333,79.4875 C19.3083333,77.9166667 19.05,76.2166667 18.4958333,75.1916667 C16.9916667,72.4083333 11.425,73.8166667 7.0625,71.0208333 C15.8166667,68.025 21.7375,64.5 26.2583333,54.3416667 Z" id="Shape" fill="#000000"></path>
            </g>
        </g>
    </g>
</svg>