
<svg width="440px" height="440px" viewBox="0 0 440 440" version="1.1" xmlns="http://www.w3.org/2000/svg" xmlns:xlink="http://www.w3.org/1999/xlink">
    <g id="Logo" stroke="none" stroke-width="1" fill="none" fill-rule="evenodd">
        <g id="emb.vn">
            <circle id="Oval-Copy" fill="url(#linearGradient-1)" cx="220" cy="220" r="220"></circle>
            <circle id="Oval" stroke="url(#linearGradient-2)" stroke-width="22" cx="220" cy="220" r="209"></circle>
            <g id="embvn-logo" transform="translate(41.000000, 40.000000)">
                <g id="embvn-iconic" transform="translate(117.565432, 103.488943)" stroke="#000000" stroke-linecap="round" stroke-linejoin="round" stroke-width="8.85">
                    <path d="M92.153314,61.5628765 L30.7158237,61.5628765 C13.9126701,61.5628765 2.31634378,72.4517446 0.496258126,86.8188942 C-1.99963992,106.518896 4.55881217,118.408155 28.4042381,126.28046 C39.1097208,129.820304 48.210149,137.546398 51.5200938,148.350618 L53.2326639,153.906634 L53.9622341,153.275618 C58.947691,148.988557 64.5870844,145.530485 70.6655517,143.033156 L85.4182291,136.961554 C110.653678,126.588272 125.506192,110.735927 122.480395,86.8188942 C120.660309,72.4517446 108.956468,61.5628765 92.153314,61.5628765 Z" id="Path"></path>
                    <path d="M61.1581001,38.2460778 C61.1581001,38.2460778 37.5430648,40.6008436 25.1787699,30.2814287 C12.8144749,19.9543185 15.6329198,0.231231012 15.6329198,0.231231012 C15.6329198,0.231231012 39.2479551,-2.1235348 51.6199297,8.19588009 C63.9842247,18.5229903 61.1581001,38.2460778 61.1581001,38.2460778 L61.1581001,38.2460778 Z" id="Path"></path>
                    <path d="M61.7110375,38.2460778 C61.7110375,38.2460778 85.3260729,40.6008436 97.6903678,30.2814287 C110.054663,19.9543185 107.236218,0.231231012 107.236218,0.231231012 C107.236218,0.231231012 83.6211825,-2.1235348 71.2568876,8.19588009 C58.8925927,18.5229903 61.7110375,38.2460778 61.7110375,38.2460778 Z" id="Path"></path>
                    <path d="M115.192373,73.1058462 C111.35253,80.8011593 91.124236,84.6488159 61.4345688,84.6488159 C31.7449016,84.6488159 11.5166079,80.8011593 7.67676481,73.1058462" id="Path"></path>
                </g>
                <path d="M199.441181,356.349023 L199.083589,352.148304 L186.617779,353.209617 L186.044862,346.479433 L195.710381,345.656531 L195.345099,341.365473 L185.679579,342.188376 L185.102817,335.413023 L197.568627,334.351709 L197.211035,330.15099 L180.228626,331.596838 L182.458773,357.79487 L199.441181,356.349023 Z M217.525402,353.277565 L212.512472,335.19192 L218.620025,339.237916 L221.328321,338.487137 L224.481393,331.87396 L229.494323,349.959606 L233.949906,348.724453 L226.926961,323.387075 L223.301339,324.39215 C223.301339,324.39215 218.887468,333.75397 218.858041,334.326629 L209.672495,328.170265 L206.046873,329.17534 L213.069818,354.512718 L217.525402,353.277565 Z M258.340999,338.724659 C261.667132,337.065337 262.988191,333.417373 261.409918,330.253277 L259.95305,327.332573 C259.042507,325.507133 257.684836,324.917948 256.671429,324.714275 C257.118276,323.782119 257.403531,322.221341 256.412052,320.23364 L255.218229,317.840286 C253.639956,314.67619 249.931253,313.537445 246.605119,315.196767 L235.247592,320.862746 L246.983471,344.390638 L258.340999,338.724659 Z M251.359892,325.033719 L244.139749,328.635662 L241.084374,322.510297 L248.710142,318.705997 C249.399707,318.361992 250.514285,318.768491 250.939204,319.620363 L252.254432,322.25711 C252.962632,323.676896 252.820145,324.305236 251.359892,325.033719 Z M256.824087,334.972695 L249.198318,338.776995 L245.981068,332.327108 L253.363461,328.644221 C254.661465,327.996681 255.249105,328.260779 255.997773,329.761696 L257.434407,332.641835 C257.859326,333.493707 257.513651,334.628689 256.824087,334.972695 Z M302.723767,307.379973 L302.918531,298.630638 C302.971893,296.739883 302.407262,295.643585 301.139684,294.347022 L290.048379,283.002103 L286.709956,286.266335 L297.674504,297.481599 C298.339982,298.162294 298.466018,298.356056 298.457348,299.125323 C298.457348,299.125323 298.457103,299.147062 298.456661,299.188066 L298.453022,299.542188 C298.44753,300.099538 298.438233,301.143215 298.433763,302.223333 L298.4324,302.605332 C298.427862,304.133519 298.434968,305.628848 298.478007,305.825446 L291.715679,305.717172 C290.984924,305.708935 290.776136,305.590857 290.186519,304.995459 L279.125578,293.682165 L275.787155,296.946397 L286.878461,308.291317 C288.146038,309.587879 289.229259,310.177112 291.120609,310.166372 L299.871522,310.168832 L302.723767,307.379973 Z M325.232862,281.690694 L321.89979,279.2603 L319.629795,282.373819 L305.052183,271.744185 L307.322178,268.630666 L303.989105,266.200273 L296.778533,276.090274 L300.111605,278.520668 L302.354894,275.443778 L316.932507,286.073412 L314.689217,289.150301 L318.02229,291.580695 L325.232862,281.690694 Z M340.624143,255.034771 L336.86814,253.12049 L331.18743,264.268087 L325.169748,261.20112 L329.574357,252.557693 L325.73758,250.602244 L321.332971,259.245671 L315.274902,256.158121 L320.955613,245.010523 L317.19961,243.096242 L309.460671,258.282824 L332.885204,270.221353 L340.624143,255.034771 Z M349.623602,231.567808 L328.504046,225.141846 L330.826209,217.508802 L326.793111,216.281667 L320.75021,236.144929 L324.783308,237.372063 L327.092277,229.782389 L348.211833,236.208351 L349.623602,231.567808 Z M355.431756,207.307036 L336.602916,205.188167 L348.679767,195.96372 L356.6077,196.855876 L357.12471,192.260969 L330.998569,189.320911 L330.481559,193.915818 L342.238322,195.238844 L329.224515,205.087748 L328.788605,208.961885 L354.914746,211.901943 L355.431756,207.307036 Z M357.664148,173.983724 L349.391226,174.592289 L348.599813,163.832245 L356.872735,163.22368 L356.536883,158.657443 L340.578733,159.831341 C338.725237,159.967686 337.573126,160.370621 336.3652,161.868579 L330.901941,168.543235 L331.194564,172.521738 L337.575597,178.325116 C338.98969,179.630195 340.188354,179.860204 342.041851,179.723859 L358,178.549961 L357.664148,173.983724 Z M344.621577,164.124888 L345.412991,174.884932 L341.932035,175.140995 C340.982683,175.21083 340.753322,175.182247 340.170932,174.67963 C340.170932,174.67963 338.980223,173.630848 337.742229,172.557134 L337.456219,172.309378 C336.312986,171.32031 335.204406,170.377106 335.029813,170.285054 L339.465975,165.095053 C339.968559,164.512624 340.19127,164.450786 341.140621,164.380951 L344.621577,164.124888 Z M353.608191,140.560041 L335.506333,145.509994 L339.573403,139.416225 L338.832156,136.705136 L332.230498,133.52873 L350.332356,128.578777 L349.112884,124.118599 L323.752794,131.053315 L324.745109,134.682676 C324.745109,134.682676 326.745823,135.634664 328.952552,136.660808 L329.381752,136.860107 C331.822998,137.992043 334.372781,139.145058 334.66331,139.161008 L328.475257,148.325575 L329.467572,151.954936 L354.827663,145.020219 L353.608191,140.560041 Z M337.294506,84.2705539 L304.978005,103.801654 L307.322517,107.681447 L339.639017,88.1503471 L337.294506,84.2705539 Z M298.989788,46.1099164 L296.067475,49.1484796 L305.084539,57.8217346 L300.402554,62.6899702 L293.411062,55.9650551 L290.425904,59.0689638 L297.417395,65.7938789 L292.703987,70.6947872 L283.686923,62.0215322 L280.76461,65.0600954 L293.048726,76.8758341 L311.273904,57.9256551 L298.989788,46.1099164 Z M284.759812,34.5197515 L274.44784,50.2000685 L273.472137,42.9388575 L271.124035,41.3944485 L264.070744,43.374777 L274.382716,27.69446 L270.51971,25.1536581 L256.072986,47.1212519 L259.216413,49.1887672 C259.216413,49.1887672 269.168541,46.3479279 269.618929,45.9930652 L271.032667,56.960632 L274.176094,59.0281473 L288.622818,37.0605535 L284.759812,34.5197515 Z M246.942595,13.3686413 C243.50496,11.9547534 239.888532,13.3593028 238.543705,16.6294682 L237.302326,19.6480823 C236.526464,21.5347162 236.975799,22.9449394 237.489023,23.8422578 C236.493041,24.1188449 235.129913,24.9306572 234.285085,26.9849918 L233.267844,29.4585784 C231.923017,32.7287438 233.504963,36.2713676 236.942598,37.6852555 L248.680862,42.5131654 L258.680859,18.1965512 L246.942595,13.3686413 Z M241.223536,27.6330106 L248.685718,30.7021819 L246.082271,37.0328867 L238.200865,33.79129 C237.488184,33.4981669 237.061168,32.3912226 237.423237,31.5107934 L238.543926,28.7856556 C239.147374,27.3182737 239.71433,27.0122794 241.223536,27.6330106 Z M245.114656,16.9792861 L252.996062,20.2208827 L250.254683,26.886989 L242.624811,23.7488476 C241.283296,23.1970865 241.095649,22.5807265 241.73358,21.0294942 L242.957718,18.0528052 C243.319787,17.1723761 244.401975,16.686163 245.114656,16.9792861 Z M223.554599,5.37968197 L221.33862,16.1239541 L212.814813,14.3657031 C211.394178,14.0726612 211.095351,13.5018672 211.434158,11.8591479 L213.210604,3.24597109 L208.682332,2.31190024 L206.786845,11.5022487 C206.374783,13.5001506 207.068994,14.8468026 207.74906,15.5888102 C206.856994,16.099099 205.633071,17.0963739 205.184381,19.271867 L204.607493,22.0689296 C203.893252,25.5319594 206.034996,28.6120886 209.675372,29.3630083 L222.638662,32.037015 L227.949687,6.28628015 L223.554599,5.37968197 Z M212.157721,18.6736815 L220.459553,20.3861447 L219.049385,27.2234088 L210.259209,25.4102124 C209.504496,25.2545339 208.879371,24.2461394 209.071667,23.3137852 L209.703496,20.2503357 C210.023989,18.696412 210.515112,18.3348518 212.157721,18.6736815 Z M180.780824,0.000822893068 C177.0642,-0.0525104157 174.307648,2.49214647 174.256919,6.0277103 L174.055307,20.0793101 C174.004579,23.614874 176.686989,26.2375796 180.403614,26.2909129 L188.29011,26.4040836 C192.006734,26.4574169 194.763286,23.91276 194.814014,20.3771962 L195.015627,6.32559634 C195.066355,2.79003251 192.383944,0.167326881 188.66732,0.113993573 L180.780824,0.000822893068 Z M180.403067,4.21161643 L188.924109,4.33402636 C189.739953,4.34573368 190.499417,5.12736218 190.48641,6.03391701 L190.278294,20.5387943 C190.265286,21.4453491 189.48371,22.2048638 188.667866,22.19329 L180.146825,22.0708801 C179.33098,22.0591728 178.571517,21.2775443 178.584524,20.3709895 L178.79264,5.86611221 C178.805647,4.95955738 179.587223,4.20004269 180.403067,4.21161643 Z M148.50485,2.18068112 L149.134313,6.25761662 L152.942183,5.66961719 L155.695219,23.5006098 L151.887348,24.0886092 L152.516811,28.1655447 L164.612399,26.2977819 L163.982936,22.2208464 L160.219864,22.8019281 L157.466829,4.97093551 L161.2299,4.38985373 L160.600437,0.312918225 L148.50485,2.18068112 Z M122.177384,9.14383429 C118.650229,10.3166539 116.884582,13.6267825 118.000116,16.9821069 L122.433648,30.3173707 C123.549181,33.6726951 126.945224,35.2665022 130.472379,34.0936826 L143.290576,29.8314845 L134.995581,4.88163614 L122.177384,9.14383429 Z M123.292373,13.2159268 L132.024232,10.3124831 L137.659108,27.2611732 L128.927249,30.1646169 C128.152996,30.4220651 127.178627,29.933922 126.892593,29.0735824 L122.316044,15.3081488 C122.03001,14.4478092 122.51812,13.473375 123.292373,13.2159268 Z M88.3069578,24.3328285 L90.3360877,28.028232 L101.302353,22.0058924 L104.553325,27.9264851 L96.0504957,32.5959803 L98.1232628,36.3708548 L106.626092,31.7013596 L109.898882,37.6616879 L98.9326166,43.6840274 L100.961747,47.3794309 L115.901296,39.1750843 L103.246508,16.1284818 L88.3069578,24.3328285 Z M73.0910007,34.3369788 L79.9996037,42.8584449 L73.2392265,48.3400199 C72.1124969,49.2536157 71.4815768,49.1232252 70.4253028,47.8203564 L64.8870012,40.9890984 L61.2955508,43.9011851 L67.2049757,51.1902078 C68.4896333,52.7747779 69.9712962,53.0907601 70.9762049,53.0346271 C70.805849,54.048165 70.802017,55.6270042 72.2008664,57.352425 L73.999387,59.5708232 C76.2261268,62.3174114 79.9659776,62.6115415 82.8532221,60.2704522 L93.1346291,51.9338903 L76.5768202,31.5105418 L73.0910007,34.3369788 Z M76.1558808,51.5776868 L82.7402066,46.2388612 L87.1365903,51.6616124 L80.1649513,57.3144866 C79.5663762,57.7998343 78.3901799,57.6446913 77.790673,56.9052252 L75.8208647,54.475551 C74.8216866,53.2431075 74.8530998,52.634032 76.1558808,51.5776868 Z M43.1902211,62.3293255 L50.2743467,68.343552 L50.9080774,76.4929955 C51.0301506,78.3805596 51.5902692,79.3317988 53.0070944,80.5346441 L58.3633844,85.0819861 L61.3262916,81.5915233 L56.1082283,77.161532 C55.3825374,76.5454405 55.2788673,76.4574275 55.245551,75.6561077 L54.6680107,68.9815103 L61.3180439,68.5023868 C62.0761818,68.4098009 62.2063154,68.4852225 62.8438691,69.0248185 L68.1615129,73.5392674 L71.0950844,70.0833636 L65.7387943,65.5360216 C64.3219692,64.3331764 63.2924791,63.9348818 61.4102631,64.1208599 L53.2665895,64.8185301 L46.1824639,58.8043036 L43.1902211,62.3293255 Z M11.9278233,100.18787 L46.1809927,116.078844 L48.0885442,111.966542 L13.8353748,96.0755677 L11.9278233,100.18787 Z M1.76026977,153.300968 L5.91492674,154.015412 L8.03506868,141.684631 L14.6914546,142.829278 L13.0475764,152.3901 L17.2915808,153.119908 L18.935459,143.559086 L25.6365186,144.711415 L23.5163767,157.042195 L27.6710337,157.756639 L30.559343,140.958184 L4.64857908,136.502513 L1.76026977,153.300968 Z M0.0410271946,179.916993 C0.0627283712,183.634187 2.66233643,186.338999 6.19796579,186.318472 L9.14432359,186.301151 C12.7252815,186.280243 15.2019453,183.455125 15.2714306,179.828065 C15.2757214,179.26893 15.253247,178.654545 15.2251914,178.018785 L15.2094622,177.670091 C15.2067909,177.61169 15.2041052,177.553163 15.2014212,177.494536 L15.1854639,177.141772 C15.18285,177.082846 15.1802696,177.02387 15.1777386,176.96487 L15.1632721,176.610787 C15.0565867,173.838075 15.1292741,171.124924 17.0337613,171.113804 L20.4787335,171.09369 C21.3853052,171.088396 22.1603901,171.854535 22.1651537,172.670504 L22.2064389,179.742239 C22.2112026,180.558209 21.4451157,181.333346 20.5385441,181.338639 L18.5894151,181.35002 L18.6158799,185.883183 L20.338366,185.873126 C23.8739954,185.852482 26.4418456,183.117498 26.420281,179.400304 L26.3825644,172.963212 C26.3608632,169.246017 23.7612551,166.541205 20.2256258,166.561849 L17.279268,166.579053 C13.69831,166.599961 11.2667102,169.379483 11.152161,173.052139 C11.1338542,173.916324 11.1824815,174.912454 11.2190737,175.91549 L11.2313603,176.269586 L11.2313603,176.269586 L11.241876,176.623034 C11.3121732,179.268407 11.1679469,181.756018 9.34450164,181.766665 L5.94485803,181.786515 C5.0382864,181.791808 4.26320149,181.025669 4.25843782,180.2097 L4.21397687,172.593985 C4.2092132,171.778016 4.97530006,171.002879 5.88187169,170.997586 L7.78567211,170.98647 L7.75920726,166.453306 L6.08204975,166.463099 C2.54642039,166.483743 -0.0214298503,169.218727 0.000134810263,172.935921 L0.0410271946,179.916993 Z M2.9946455,210.859024 L24.6933631,206.798118 L26.1608607,214.640483 L30.3045584,213.864992 L26.4857293,193.45702 L22.3420317,194.232511 L23.8011913,202.030317 L2.10247364,206.091223 L2.9946455,210.859024 Z M9.14914656,236.23724 C9.2379415,236.49433 9.46852005,236.606523 9.72559294,236.517722 L14.0958321,235.008107 C14.352905,234.919306 14.4650903,234.688712 14.3762953,234.431621 L12.8667813,230.061088 C12.7779864,229.803998 12.5474078,229.691805 12.2903349,229.780606 L7.92009582,231.290221 C7.66302293,231.379022 7.55083763,231.609616 7.63963257,231.866707 L9.14914656,236.23724 Z M35.6810943,285.790082 L39.1408227,283.381224 L31.0082371,271.699204 C35.102276,269.566783 45.0266452,279.062235 50.8300605,275.02157 L52.3181158,273.985502 C55.2570248,271.939268 55.4966982,268.237233 53.4247019,265.260922 L49.954108,260.275601 C47.8044118,257.187678 43.9472261,256.724766 41.0827198,258.719196 L39.7806715,259.625756 L42.4224668,263.420552 L44.0593275,262.280878 C44.8033551,261.762844 45.8760778,261.954981 46.342277,262.624651 L50.0718704,267.98201 C50.5380696,268.65168 50.3459453,269.724475 49.6019177,270.242509 L48.262668,271.17497 C44.9145437,273.506123 34.3492699,263.407404 27.5414172,268.147415 L24.7513137,270.090042 L35.6810943,285.790082 Z M53.700699,306.159635 C56.3495019,308.767489 60.1003046,308.834309 62.5807788,306.314547 L72.4390736,296.300105 C74.9195478,293.780342 74.7940535,290.030792 72.1452506,287.422938 L67.1060646,282.461656 C64.4572617,279.853802 60.706459,279.786981 58.2259848,282.306744 L48.36769,292.321186 C45.8872158,294.840948 46.0127101,298.590499 48.661513,301.198353 L53.700699,306.159635 Z M56.8843048,303.377924 L51.3928841,297.971399 C50.8114396,297.398943 50.8029137,296.309111 51.4389327,295.663018 L61.615237,285.32553 C62.251256,284.679437 63.3410143,284.670911 63.9224588,285.243366 L69.4138795,290.649892 C69.995324,291.222348 70.0038499,292.31218 69.3678309,292.958273 L59.1915266,303.295761 C58.5555076,303.941854 57.4657493,303.95038 56.8843048,303.377924 Z M59.7511091,296.976383 C60.2033437,297.421626 60.8766804,297.448414 61.2900928,297.028454 L63.102747,295.187088 C63.5161594,294.767128 63.4788416,294.094247 63.026607,293.649004 L61.120761,291.772622 C60.6685264,291.327378 59.9951896,291.300591 59.5817773,291.720551 L57.7691231,293.561916 C57.3557107,293.981877 57.3930284,294.654757 57.8452631,295.100001 L59.7511091,296.976383 Z M84.4058113,330.511928 L86.7598441,327.014541 L74.952259,319.065981 C77.9976383,315.596825 90.6846901,320.85867 94.6333903,314.992086 L95.6458776,313.487834 C97.6455399,310.516936 96.5298195,306.978925 93.5215176,304.953814 L88.4826118,301.561754 C85.3614985,299.460701 81.5981038,300.424613 79.6490659,303.320299 L78.7631396,304.63652 L82.5987246,307.218536 L83.7124605,305.563859 C84.2187041,304.811732 85.2882754,304.602761 85.9651433,305.058411 L91.3800868,308.703611 C92.0569548,309.159261 92.2659118,310.228904 91.7596682,310.98103 L90.8484297,312.334857 C88.5703335,315.719425 75.0675612,310.127041 70.4354321,317.008995 L68.5370185,319.829468 L84.4058113,330.511928 Z M107.862726,343.026235 L109.534045,339.354153 L105.655927,337.58882 L114.87635,317.33048 L111.534567,315.809289 L103.955023,318.784229 L105.404977,322.382899 L107.952642,321.60011 L101.53027,335.710808 L97.7346657,333.983036 L96.0633468,337.655118 L107.862726,343.026235 Z M145.344841,360 L151.955344,322.821295 L147.492415,322.027664 L140.881911,359.206369 L145.344841,360 Z" id="embvn-information" fill="#000000" fill-rule="nonzero"></path>
            </g>
        </g>
    </g>
</svg>