<svg width="351" height="77" xmlns="http://www.w3.org/2000/svg"><title>PHONG</title><path d="M33.8606 75.0724v-1.4302H24.462v-33.202h3.882c21.4537 0 32.3848-8.0706 32.3848-19.3082 0-12.2592-11.3398-19.104-30.648-19.104-1.6906 0-5.2992.0582-8.936.1238l-1.2107.0221c-4.0218.074-7.8192.1505-8.7995.1597L.25 2.3346v1.4302h9.3987v69.8774H.25v1.4302h33.6106zM27.1181 39.01h-2.6562V3.7648c1.941-.3065 2.9626-.3065 3.882-.3065 12.1571 0 15.7327 6.5383 15.7327 18.2867 0 12.4635-4.495 17.265-16.9585 17.265zm63.85 36.0624v-1.4302h-9.3988V38.7035h29.5242v34.9387h-9.3987v1.4302h33.6107v-1.4302h-9.3988V3.7648h9.3988V2.3346h-33.6107v1.4302h9.3987v33.5085H81.5693V3.7648h9.3987V2.3346H57.3574v1.4302h9.3987v69.8774h-9.3987v1.4302H90.968zm81.3193 1.5324c20.1255 0 38.2078-17.3671 38.2078-38.0035C210.4952 16.4326 192.4129.7 172.2874.7c-18.6953 0-38.31 16.1413-38.31 38.2078 0 20.5342 17.5715 37.697 38.31 37.697zm0-1.4302c-17.163 0-21.658-10.7268-21.658-36.2668 0-18.593 2.4519-27.0724 7.5599-31.976 3.4734-3.3713 8.1728-4.8016 13.9959-4.8016 11.544 0 17.1629 5.2102 19.7169 13.7916 1.328 4.2908 1.941 11.5441 1.941 22.0666 0 20.8406-2.1453 28.4004-8.4793 33.5084-2.9626 2.4519-7.3555 3.6778-13.0764 3.6778zm57.2095-.1022v-1.4302h-9.3987V9.588h.2043l45.972 65.4845h2.7583V3.7648h9.3988V2.3346h-20.432v1.4302h9.3987v47.1979h-.2043L233.1747 2.3346h-24.1098v1.4302h9.3988v69.8774h-9.3988v1.4302h20.432zm85.61 1.5324c12.1571 0 17.163-6.2317 23.2925-6.2317 1.6346 0 3.0648.7151 3.3713 2.3497h1.8389V49.328h6.6404V47.898h-31.5674v1.4302h10.5225v5.0059c0 16.652-5.2102 20.8406-13.996 20.8406-8.5814 0-13.8937-2.554-17.265-8.3771-3.0648-5.3123-4.3929-13.2808-4.3929-24.0076V32.4717c0-17.878 4.8015-30.3415 21.8623-30.3415 11.9527 0 18.491 8.0707 21.9643 21.045h1.5324V2.3346h-1.7367c-.715 1.6345-1.2259 2.1453-3.167 2.1453C330.9419 4.48 322.5648.7 315.107.7c-8.0707 0-16.6521 3.167-23.4968 8.5814-8.6836 6.8448-14.711 17.3672-14.711 29.6264 0 20.2277 17.3671 37.697 38.2078 37.697z"/></svg>