<?xml version="1.0" encoding="UTF-8"?>
<svg width="292px" height="400px" viewBox="0 0 292 400" version="1.1" xmlns="http://www.w3.org/2000/svg" xmlns:xlink="http://www.w3.org/1999/xlink">
    <title>PHONG</title>
    <g id="Phong" stroke="none" stroke-width="1" fill="none" fill-rule="evenodd">
        <g id="android-chrome-512x512" transform="translate(-136.000000, -56.000000)" fill="#000000">
            <g id="PHONG.VN" transform="translate(11.000000, 11.000000)">
                <g id="PHONG" transform="translate(125.000000, 45.000000)">
                    <path d="M0.296727217,27.8816803 C65.5802068,66.9141124 130.862004,105.945195 196.392421,145.125351 C193.490746,146.808659 190.852492,148.350988 188.202801,149.873081 C179.073879,155.116933 169.928809,160.332792 160.827475,165.623862 C159.852512,166.190473 159.220367,165.951687 158.399824,165.481534 C146.690851,158.769889 134.966739,152.083202 123.252719,145.379651 C97.0071121,130.360744 70.7655419,115.335428 44.5209439,100.315508 C44.1475109,100.10168 43.7515374,99.9269745 43.1863416,99.6440061 L43.1863416,104.006575 C43.1873509,202.241451 43.1849959,300.475651 43.2193114,398.710527 C43.2199843,400.273092 42.8489063,400.212721 41.6899185,399.592484 C28.2153814,392.383705 14.7267144,385.201233 1.22459033,378.044393 C0.305137868,377.55704 -0.0592115694,376.977613 0.00773721928,375.946583 C0.0904980334,374.659228 0.0242220969,373.362768 0.0242220969,372.070355 C0.0228763926,257.762944 0.0211942622,143.455871 0.0232128187,29.1484612 C0.0232128187,28.7720694 -0.101264829,28.3659981 0.296727217,27.8816803" id="3"></path>
                    <path d="M50.444566,111.963821 C53.6967968,113.814414 56.8417078,115.598227 59.9808995,117.391484 C68.2976884,122.141575 76.5963104,126.924044 84.9464055,131.614776 C86.0535837,132.236699 86.3294531,132.909213 86.3284438,134.102806 C86.2964834,176.593253 86.3008569,219.0837 86.3001841,261.574147 L86.3001841,264.595399 C154.838922,225.313726 223.203055,186.132221 291.652304,146.901812 C292.133394,147.558137 291.975273,148.255271 291.974601,148.875845 C291.960134,163.711616 291.91438,178.547387 291.910007,193.383158 C291.90967,194.286364 291.641875,194.765622 290.846564,195.224308 C268.386759,208.181493 245.94344,221.167008 223.501129,234.15421 C200.426337,247.507686 177.356929,260.871616 154.281464,274.225092 C134.11373,285.895935 113.940614,297.558008 93.770525,309.224803 C91.7832562,310.374552 89.8467877,311.624807 87.7986258,312.651115 C86.5498122,313.276411 86.2712514,314.094287 86.2739428,315.406262 C86.3139775,334.740185 86.3001841,354.074782 86.3018662,373.409041 C86.3018662,374.186445 86.3493023,374.854237 85.5082371,375.414103 C73.853765,383.171955 62.2302442,390.977025 50.444566,398.873832 L50.444566,111.963821 Z" id="2"></path>
                    <path d="M210.530491,145.262181 C141.71151,104.115412 73.1280267,63.1086096 4.25858159,21.9314866 C6.5102813,20.7271004 8.5399398,19.6383974 10.5722897,18.5554279 C21.8348254,12.5527214 33.1128366,6.57767095 44.342739,0.513581577 C45.6527821,-0.19400794 46.5792995,-0.168038258 47.8371966,0.576650805 C59.7389418,7.62522722 71.6790396,14.6090481 83.6073625,21.6127677 C101.280497,31.9898479 118.953631,42.3669281 136.62542,52.7456947 C166.035451,70.0189059 195.441781,87.2975134 224.854167,104.565666 C245.329731,116.586593 265.81236,128.594367 286.290951,140.609223 C286.572203,140.774148 286.842017,140.958296 287.243373,141.213946 C281.438342,144.547509 275.770908,147.805861 270.099437,151.057467 C246.341701,164.678059 222.585646,178.300675 198.823873,191.914185 C171.187144,207.747597 143.545705,223.572914 115.904938,239.399917 C108.908958,243.405656 101.89683,247.383065 94.922717,251.426578 C93.8115017,252.071098 93.3798671,252.293358 93.3862592,250.651872 C93.4370595,237.894687 93.4306674,225.137503 93.4030805,212.379643 C93.4007255,211.355696 93.7199938,210.817078 94.6350727,210.305104 C118.333262,197.048425 142.011938,183.756332 165.689605,170.462553 C180.579823,162.103014 195.46264,153.730658 210.530491,145.262181" id="1"></path>
                </g>
            </g>
        </g>
    </g>
</svg>