
<svg width="490px" height="490px" viewBox="0 0 490 490" version="1.1" xmlns="http://www.w3.org/2000/svg" xmlns:xlink="http://www.w3.org/1999/xlink">
    <g id="Logo-/-Label" stroke="none" stroke-width="1" fill="none" fill-rule="evenodd">
        <g id="android-chrome-512x512" transform="translate(-11.000000, -11.000000)">
            <g id="change-vn" transform="translate(11.000000, 11.000000)">
                <g id="EMB.VN" fill="#FFFFFF">
                    <path d="M148.705342,-6.00787378e-15 L341.294658,6.00787378e-15 C393.002745,-3.49074768e-15 411.753347,5.38388545 430.657051,15.4936968 C449.560755,25.6035082 464.396492,40.4392455 474.506303,59.3429492 C484.616115,78.2466529 490,96.9972547 490,148.705342 L490,341.294658 C490,393.002745 484.616115,411.753347 474.506303,430.657051 C464.396492,449.560755 449.560755,464.396492 430.657051,474.506303 C411.753347,484.616115 393.002745,490 341.294658,490 L148.705342,490 C96.9972547,490 78.2466529,484.616115 59.3429492,474.506303 C40.4392455,464.396492 25.6035082,449.560755 15.4936968,430.657051 C5.38388545,411.753347 2.32716512e-15,393.002745 -4.00524919e-15,341.294658 L4.00524919e-15,148.705342 C-2.32716512e-15,96.9972547 5.38388545,78.2466529 15.4936968,59.3429492 C25.6035082,40.4392455 40.4392455,25.6035082 59.3429492,15.4936968 C78.2466529,5.38388545 96.9972547,3.49074768e-15 148.705342,-6.00787378e-15 Z" id="Rectangle"></path>
                </g>
                <g id="Group-12" transform="translate(92.000000, 92.000000)">
                    <g id="Group-3">
                        <mask id="mask-2" fill="white">
                            <use xlink:href="#path-1"></use>
                        </mask>
                        <g id="Clip-2"></g>
                        <path d="M254.292629,134.645478 C238.245714,134.647284 222.196994,134.488358 206.153688,134.768284 C202.440144,134.833299 201.373717,133.493269 200.550891,130.278644 C194.338193,106.02809 181.483338,86.7240853 158.830356,74.6800767 C155.273798,72.789227 152.404733,72.8885553 148.949224,74.7161961 C125.523939,87.1195925 112.254063,107.077358 107.048243,132.375374 C100.599163,163.71797 106.920128,192.252283 128.43992,216.687046 C134.295339,223.333013 141.448152,228.353607 149.295677,232.476635 C152.583373,234.203141 155.360411,234.278992 158.736525,232.527202 C181.396725,220.754089 194.00798,201.421189 200.393905,177.483067 C201.418829,173.638159 202.669308,172.242144 206.944034,172.272846 C238.866442,172.509428 270.792459,172.449831 302.716672,172.332443 C306.172181,172.319801 307.40642,172.885069 306.819976,176.726366 C302.752761,203.382471 294.394579,228.445711 278.605699,250.521879 C252.905012,286.451636 218.849752,307.236535 173.514916,306.850058 C156.121886,306.701968 138.65307,307.579669 121.352066,306.2577 C86.6526198,303.604731 58.8804315,286.93383 37.1404975,260.416784 C8.38849645,225.344862 -2.70522154,184.553436 0.548189903,139.752759 C3.2259839,102.883898 16.0068565,69.8635569 40.9424597,42.2033328 C65.7824275,14.6478549 96.607734,-0.350719217 134.261054,0.219967047 C152.660964,0.499892272 171.100571,-0.854584621 189.453564,0.985697984 C218.180303,3.86621884 242.184814,16.7301374 262.298944,36.9389326 C288.250449,63.0117098 301.624984,95.1651853 306.901176,131.098554 C307.361309,134.235523 306.215488,134.712299 303.445667,134.694239 C287.061321,134.587687 270.676975,134.641866 254.292629,134.645478" id="Fill-1" fill="#000000" mask="url(#mask-2)"></path>
                    </g>
                    <path d="M245.899441,121.558341 C234.973536,121.558341 224.013347,121.428312 213.058571,121.635998 C209.725764,121.699207 209.776289,119.38576 209.115862,117.458791 C202.183191,97.3005632 190.733997,80.3858558 172.906097,68.3292055 C141.449235,47.0585004 101.9626,51.6041248 75.7692999,79.1650206 C55.9438803,100.023965 46.7917434,125.210011 46.8458767,153.516772 C46.9216634,191.996558 57.8692214,227.164196 81.8268164,257.793433 C91.9984638,270.798217 104.10267,281.673764 118.33612,290.143759 C119.74539,290.981729 121.44698,291.483788 122.370855,293.064011 C102.393862,292.896056 76.864597,281.874226 58.7299409,265.152758 C32.0981609,240.595189 17.4514938,209.853981 13.0089542,174.205955 C8.74325002,140.004511 14.0266603,107.345364 31.0389526,77.1044098 C49.1393243,44.9310687 74.9428648,22.2137822 112.177554,15.1181293 C144.363411,8.98686388 173.084737,17.8162473 198.146651,38.173132 C224.307471,59.4239714 239.163454,87.6025087 246.043796,120.245402 C246.108756,120.556029 245.977032,120.908192 245.899441,121.558341" id="Fill-4" fill="#FEFEFE"></path>
                    <path d="M133.461866,67.8668774 C111.72915,85.0849876 99.0691752,107.155737 94.7691866,133.784753 C89.2133054,168.192078 96.2867235,199.738748 120.269581,225.853062 C153.812379,262.378789 205.20834,260.608939 237.015264,222.540915 C245.205632,212.736308 251.322696,201.754209 255.213075,189.612678 C256.165822,186.634635 257.22503,185.294606 260.649863,185.393934 C270.269351,185.67386 279.903274,185.547442 289.52998,185.451725 C291.94613,185.428248 293.351791,185.635934 292.637231,188.668157 C283.820721,226.017405 265.727567,257.327493 232.291231,277.7819 C190.594153,303.291215 141.110902,298.034039 105.251198,264.824071 C78.2567251,239.822234 63.9077913,208.445325 59.5915627,172.208553 C57.2241329,152.321221 58.1895101,132.798694 66.6721985,114.298345 C77.8687698,89.8870597 95.4169818,73.0373672 122.940157,68.6199665 C126.39747,68.065534 129.952224,68.1034593 133.461866,67.8668774" id="Fill-6" fill="#FEFEFE"></path>
                    <path d="M185.517532,13.3112571 C229.813008,19.0722988 259.631436,43.6136141 279.561513,81.5895343 C285.442194,92.7919612 289.437232,104.727612 292.31171,117.067799 C293.127318,120.571379 292.800714,121.757901 288.856201,121.635095 C280.084801,121.3642 271.295358,121.37323 262.527567,121.645931 C259.093711,121.752483 258.000219,120.546096 257.359641,117.34953 C251.670231,88.8910677 239.587678,63.5244245 220.130365,41.8166748 C211.063037,31.7032473 200.667639,23.1971325 188.942366,16.3109719 C187.821806,15.6535991 186.419754,15.310465 185.517532,13.3112571" id="Fill-8" fill="#FEFEFE"></path>
                    <path d="M243.837684,185.490373 C236.056924,212.348747 208.901855,240.787344 173.540178,238.809807 C179.377553,234.034825 184.821558,229.675215 189.375973,224.409009 C198.280902,214.109567 204.993431,202.536916 209.020949,189.52852 C209.97189,186.458373 211.276503,185.313388 214.607505,185.401881 C224.208949,185.654716 233.821219,185.490373 243.837684,185.490373" id="Fill-10" fill="#FEFEFE"></path>
                </g>
            </g>
        </g>
    </g>
</svg>