<?xml version="1.0" encoding="UTF-8"?>
<svg width="240px" height="240px" viewBox="0 0 240 240" version="1.1" xmlns="http://www.w3.org/2000/svg" xmlns:xlink="http://www.w3.org/1999/xlink">
    <title>Mouth/ 1</title>
    <g id="Mouth/-1" stroke="none" stroke-width="1" fill="none" fill-rule="evenodd" stroke-linecap="round" stroke-linejoin="round">
        <path d="M64,116 C81.0226532,122.666667 97.8511322,126 114.485437,126 C131.119742,126 147.624596,122.666667 164,116" id="Path" stroke="#000000" stroke-width="12" transform="translate(114.000000, 121.000000) rotate(-30.000000) translate(-114.000000, -121.000000) "></path>
        <g id="Group" transform="translate(140.000000, 137.000000) rotate(60.000000) translate(-140.000000, -137.000000) translate(84.000000, 14.000000)" stroke="#000000" stroke-width="12">
            <line x1="11" y1="1" x2="32.0942368" y2="37.3184963" id="Line" transform="translate(21.547118, 19.159248) rotate(-60.000000) translate(-21.547118, -19.159248) "></line>
            <line x1="34.9514802" y1="11.5476362" x2="67.0054352" y2="66.9420761" id="Line" transform="translate(50.978458, 39.244856) rotate(-60.000000) translate(-50.978458, -39.244856) "></line>
            <line x1="52.1485752" y1="35.1511598" x2="80.5733055" y2="83.4008719" id="Line" transform="translate(66.360940, 59.276016) rotate(-59.496934) translate(-66.360940, -59.276016) "></line>
            <line x1="70.7791137" y1="56.7797548" x2="96.7085118" y2="101.853764" id="Line" transform="translate(83.743813, 79.316759) rotate(-60.000000) translate(-83.743813, -79.316759) "></line>
            <line x1="85.4074124" y1="85.6214257" x2="101.817188" y2="113.09358" id="Line" transform="translate(93.612300, 99.357503) rotate(-59.149118) translate(-93.612300, -99.357503) "></line>
            <line x1="86.9882936" y1="105.553997" x2="103.0493" y2="133.231498" id="Line" transform="translate(95.018797, 119.392747) rotate(-60.000000) translate(-95.018797, -119.392747) "></line>
            <line x1="83.1856529" y1="130.838787" x2="93.4278321" y2="148.017197" id="Line" transform="translate(88.306742, 139.427992) rotate(-59.195591) translate(-88.306742, -139.427992) "></line>
            <line x1="75.1570367" y1="145.659107" x2="91.4564606" y2="173.196877" id="Line" transform="translate(83.306749, 159.427992) rotate(-59.378991) translate(-83.306749, -159.427992) "></line>
            <line x1="64.5101243" y1="166.323122" x2="79.106343" y2="192.532861" id="Line" transform="translate(71.808234, 179.427992) rotate(-60.886541) translate(-71.808234, -179.427992) "></line>
            <line x1="61.2529174" y1="190.68373" x2="70.9560916" y2="208.172253" id="Line" transform="translate(66.104505, 199.427992) rotate(-60.977129) translate(-66.104505, -199.427992) "></line>
            <line x1="46.7888158" y1="210.68373" x2="56.49199" y2="228.172253" id="Line" transform="translate(51.640403, 219.427992) rotate(-60.977129) translate(-51.640403, -219.427992) "></line>
            <line x1="32.9031624" y1="233.413135" x2="39.9576626" y2="245.505861" id="Line" transform="translate(36.430413, 239.459498) rotate(-60.000000) translate(-36.430413, -239.459498) "></line>
        </g>
    </g>
</svg>