<?xml version="1.0" encoding="UTF-8"?>
<svg width="240px" height="240px" viewBox="0 0 240 240" version="1.1" xmlns="http://www.w3.org/2000/svg" xmlns:xlink="http://www.w3.org/1999/xlink">
    <title>Mouth/ 3</title>
    <g id="Mouth/-3" stroke="none" stroke-width="1" fill="none" fill-rule="evenodd" stroke-linecap="round" stroke-linejoin="round">
        <path d="M64,116 C81.0226532,122.666667 97.8511322,126 114.485437,126 C131.119742,126 147.624596,122.666667 164,116" id="Path" stroke="#000000" stroke-width="12" transform="translate(114.000000, 121.000000) rotate(-30.000000) translate(-114.000000, -121.000000) "></path>
        <g id="Group" transform="translate(93.000000, 88.000000) rotate(-30.000000) translate(-93.000000, -88.000000) translate(33.000000, 72.000000)" fill="#000000" stroke="#000000" stroke-width="2">
            <path d="M119.435023,7.22942603 C117.295489,19.3823151 108.951302,27.1948866 94.4024653,30.6671406 C79.853628,34.1393946 66.8024653,30.6671406 55.2489769,20.2503786 L55.2489769,9.18256891 C62.5729469,1.5586883 70.917133,-0.828486334 80.281535,2.02104502 C86.7001397,3.9741879 90.5513025,9.83361654 101.46293,13.0888547 C104.939821,14.1261066 110.930519,12.1729637 119.435023,7.22942603 Z" id="Path"></path>
            <path d="M64.5513025,7.22942603 C62.4117676,19.3823151 54.0675815,27.1948866 39.5187443,30.6671406 C24.9699071,34.1393946 11.9187443,30.6671406 0.365255953,20.2503786 L0.365255953,9.18256891 C7.68922598,1.5586883 16.033412,-0.828486334 25.3978141,2.02104502 C31.8164187,3.9741879 35.6675815,9.83361654 46.5792094,13.0888547 C50.0561,14.1261066 56.0467976,12.1729637 64.5513025,7.22942603 Z" id="Path" transform="translate(32.458279, 16.413680) scale(-1, 1) translate(-32.458279, -16.413680) "></path>
        </g>
    </g>
</svg>