<?xml version="1.0" encoding="UTF-8"?>
<svg width="240px" height="240px" viewBox="0 0 240 240" version="1.1" xmlns="http://www.w3.org/2000/svg" xmlns:xlink="http://www.w3.org/1999/xlink">
    <title>Mouth/ 4</title>
    <g id="Mouth/-4" stroke="none" stroke-width="1" fill="none" fill-rule="evenodd" stroke-linecap="round" stroke-linejoin="round">
        <path d="M64,116 C81.0226532,122.666667 97.8511322,126 114.485437,126 C131.119742,126 147.624596,122.666667 164,116" id="Path" stroke="#000000" stroke-width="12" transform="translate(114.000000, 121.000000) rotate(-30.000000) translate(-114.000000, -121.000000) "></path>
        <path d="M-21,152 C15,168 41.6666667,177.666667 59,181 C76.3333333,184.333333 90.3333333,181.333333 101,172 C102.333333,166.222222 103,161.888889 103,159 C103,156.111111 102.333333,152.444444 101,148 L124,136 C128.169991,142.084995 132.169991,146.084995 136,148 C139.830009,149.915005 146.496676,151.248338 156,152 C183.333333,144 204.666667,131 220,113 C243,86 212,62.285768 212,6 C212,-18 239,-56 239,5 C239,45.6666667 268.666667,57.6666667 328,41 C289.333333,140.333333 233.333333,199 160,217 C86.6666667,235 26.3333333,213.333333 -21,152 Z" id="Path" stroke="#000000" stroke-width="2" fill="#000000"></path>
        <path d="M113.546883,67.8256062 C151.676473,67.8256062 177.707251,73.8256062 191.639216,85.8256062 C205.571181,97.8256062 214.244072,124.599109 217.657888,166.146114 L217.657888,166.146114 L204.958644,181.806368 C196.079025,133.152527 187.972909,106.15894 180.640296,100.825606 C173.477954,95.6161188 151.973762,91.3607283 116.12772,88.0594349 L116.468045,88.0288001 C79.0717167,91.3621335 56.7072459,95.6954668 49.3746325,101.0288 C42.0420191,106.362133 34.7094057,121.362133 27.3767923,146.0288 L19.6775483,139.0288 C18.2110256,115.695467 24.443747,98.0288001 38.3757124,86.0288001 C51.9487904,74.3379201 77.0053782,68.3419016 113.545476,68.0407445 Z" id="Combined-Shape" stroke="#000000" stroke-width="4" fill="#000000" transform="translate(118.562967, 124.815987) rotate(-30.000000) translate(-118.562967, -124.815987) "></path>
    </g>
</svg>