<?xml version="1.0" encoding="UTF-8"?>
<svg width="240px" height="240px" viewBox="0 0 240 240" version="1.1" xmlns="http://www.w3.org/2000/svg" xmlns:xlink="http://www.w3.org/1999/xlink">
    <title>Mouth/ 5</title>
    <g id="Mouth/-5" stroke="none" stroke-width="1" fill="none" fill-rule="evenodd" stroke-linecap="round" stroke-linejoin="round">
        <path d="M64,116 C81.0226532,122.666667 97.8511322,126 114.485437,126 C131.119742,126 147.624596,122.666667 164,116" id="Path" stroke="#000000" stroke-width="12" transform="translate(114.000000, 121.000000) rotate(-30.000000) translate(-114.000000, -121.000000) "></path>
        <g id="Group" transform="translate(96.000000, 91.500000) rotate(-30.000000) translate(-96.000000, -91.500000) translate(17.000000, 67.000000)" stroke="#000000" stroke-width="2">
            <g transform="translate(84.630402, 1.215670)" id="Line">
                <line x1="0.301652893" y1="18.8465347" x2="0.301652893" y2="0.232673267"></line>
                <line x1="12.3677686" y1="19.0792079" x2="12.3677686" y2="0.465346535"></line>
                <line x1="24.4338843" y1="19.0792079" x2="24.4338843" y2="2.32673267"></line>
                <line x1="36.5" y1="23.7326733" x2="36.5" y2="6.98019802"></line>
                <line x1="48.5661157" y1="28.3861386" x2="48.5661157" y2="13.4950495"></line>
                <line x1="60.6322314" y1="37.6930693" x2="60.6322314" y2="22.8019802"></line>
                <line x1="72.6983471" y1="47" x2="72.6983471" y2="35.8316832"></line>
            </g>
            <g transform="translate(36.958356, 24.457494) scale(-1, 1) translate(-36.958356, -24.457494) translate(0.458356, 0.957494)" id="Line">
                <line x1="0.301652893" y1="18.8465347" x2="0.301652893" y2="0.232673267"></line>
                <line x1="12.3677686" y1="19.0792079" x2="12.3677686" y2="0.465346535"></line>
                <line x1="24.4338843" y1="19.0792079" x2="24.4338843" y2="2.32673267"></line>
                <line x1="36.5" y1="23.7326733" x2="36.5" y2="6.98019802"></line>
                <line x1="48.5661157" y1="28.3861386" x2="48.5661157" y2="13.4950495"></line>
                <line x1="60.6322314" y1="37.6930693" x2="60.6322314" y2="22.8019802"></line>
                <line x1="72.6983471" y1="47" x2="72.6983471" y2="35.8316832"></line>
            </g>
        </g>
    </g>
</svg>