<?xml version="1.0" encoding="UTF-8"?>
<svg width="240px" height="240px" viewBox="0 0 240 240" version="1.1" xmlns="http://www.w3.org/2000/svg" xmlns:xlink="http://www.w3.org/1999/xlink">
    <title>Mouth/ 7</title>
    <g id="Mouth/-7" stroke="none" stroke-width="1" fill="none" fill-rule="evenodd">
        <g id="Group" transform="translate(117.000000, 125.000000) rotate(-30.000000) translate(-117.000000, -125.000000) translate(52.000000, 105.000000)">
            <path d="M5,6 C25,28.6666667 45,40 65,40 C85,40 105,28.6666667 125,6 C102.333333,2 87.3333333,0 80,0 C72.6666667,0 67.6666667,2 65,6 C62.3333333,2 57.3333333,0 50,0 C42.6666667,0 27.6666667,2 5,6 Z" id="Path" fill="#F27960"></path>
            <path d="M0,3 C27.3333333,16.3333333 49,23 65,23 C81,23 102.666667,16.3333333 130,3" id="Path" stroke="#9D473C" stroke-width="4" stroke-linecap="round" stroke-linejoin="round"></path>
        </g>
    </g>
</svg>