<?xml version="1.0" encoding="UTF-8"?>
<svg width="428px" height="144px" viewBox="0 0 428 144" version="1.1" xmlns="http://www.w3.org/2000/svg" xmlns:xlink="http://www.w3.org/1999/xlink">
    <title>Eyewear/ 1</title>
    <g id="Eyewear/-1" stroke="none" stroke-width="1" fill="none" fill-rule="evenodd" stroke-linecap="round" stroke-linejoin="round">
        <path d="M197.629857,24 L271.484699,24 C284.739533,24 295.484699,34.745166 295.484699,48 C295.484699,49.6446088 295.315654,51.2848623 294.980229,52.8949021 L284.980229,100.894902 C282.661632,112.024164 272.852916,120 261.484699,120 L202.629857,120 C190.337695,120 180.032558,110.712557 178.759015,98.486546 L173.759015,50.486546 C172.385734,37.3030441 181.959809,25.5024396 195.143311,24.1291582 C195.969367,24.0431107 196.799332,24 197.629857,24 Z" id="Rectangle" stroke="#000000" stroke-width="12" fill-opacity="0.2" fill="#7FF5FF"></path>
        <path d="M50.629857,24 L124.484699,24 C137.739533,24 148.484699,34.745166 148.484699,48 C148.484699,49.6446088 148.315654,51.2848623 147.980229,52.8949021 L137.980229,100.894902 C135.661632,112.024164 125.852916,120 114.484699,120 L55.629857,120 C43.3376946,120 33.032558,110.712557 31.7590152,98.486546 L26.7590152,50.486546 C25.3857338,37.3030441 34.9598091,25.5024396 48.143311,24.1291582 C48.9693666,24.0431107 49.7993319,24 50.629857,24 Z" id="Rectangle" stroke="#000000" stroke-width="12" fill-opacity="0.2" fill="#7FF5FF" transform="translate(89.000000, 72.000000) scale(-1, 1) translate(-89.000000, -72.000000) "></path>
        <line x1="295" y1="59" x2="404" y2="59" id="Path" stroke="#000000" stroke-width="12"></line>
        <line x1="153" y1="59" x2="173" y2="59" id="Path" stroke="#000000" stroke-width="12"></line>
    </g>
</svg>