<?xml version="1.0" encoding="UTF-8"?>
<svg width="428px" height="144px" viewBox="0 0 428 144" version="1.1" xmlns="http://www.w3.org/2000/svg" xmlns:xlink="http://www.w3.org/1999/xlink">
    <title>Eyewear/ 2</title>
    <g id="Eyewear/-2" stroke="none" stroke-width="1" fill="none" fill-rule="evenodd" fill-opacity="0.2" stroke-linecap="round" stroke-linejoin="round">
        <path d="M270.473891,40 C284.086655,40 295.121982,51.0353262 295.121982,64.6480909 C295.121982,67.1413692 294.743683,69.6202158 294,72 L289.262938,87.1585998 C286.131874,97.1780046 276.852657,104 266.355418,104 L216.388269,104 C197.744254,104 181.878205,90.4205117 179,72 C176.636543,56.8738764 186.982729,42.6957702 202.108852,40.3323134 C203.524592,40.1111041 204.955352,40 206.388269,40 L270.473891,40 Z M121.611731,40 C123.044648,40 124.475408,40.1111041 125.891148,40.3323134 C141.017271,42.6957702 151.363457,56.8738764 149,72 C146.121795,90.4205117 130.255746,104 111.611731,104 L111.611731,104 L61.6445819,104 C51.1473426,104 41.8681264,97.1780046 38.7370624,87.1585998 L38.7370624,87.1585998 L34,72 C33.2563174,69.6202158 32.8780184,67.1413692 32.8780184,64.6480909 C32.8780184,51.0353262 43.9133445,40 57.5261092,40 L57.5261092,40 Z M154,61 L174,61 M298,61 L393,61" id="Combined-Shape" stroke="#000000" stroke-width="12" fill="#FFFFFF"></path>
    </g>
</svg>