<?xml version="1.0" encoding="UTF-8"?>
<svg width="428px" height="144px" viewBox="0 0 428 144" version="1.1" xmlns="http://www.w3.org/2000/svg" xmlns:xlink="http://www.w3.org/1999/xlink">
    <title>Eyewear/ 4</title>
    <g id="Eyewear/-4" stroke="none" stroke-width="1" fill="none" fill-rule="evenodd">
        <path d="M39,38 C55.1935015,34 71.1935015,32 87,32 C102.806499,32 118.473165,34 134,38 C149.333333,43.3333333 160,46 166,46 C172,46 182.666667,43.3333333 198,38 C213.666667,34 229.333333,32 245,32 C260.666667,32 276.333333,34 292,38 L287.948751,52.0024346 L282.937806,57.9956665 L279.427686,76.9311189 C275.122979,100.152995 254.865982,117 231.248488,117 C229.498992,117 227.749496,117 226,117 C226,117 226,117 226,117 C205.474059,117 187.562067,103.079099 182.494802,83.1884716 C178.386676,67.0628239 172.888409,59 166,59 C159.111591,59 153.613324,67.0628239 149.505198,83.1884716 C144.437933,103.079099 126.525941,117 106,117 C106,117 106,117 106,117 C103.640183,117 101.280366,117 98.9205497,117 C75.784733,117 55.9409697,100.496376 51.7244497,77.7480362 L48.0661285,58.0112074 L48.0661285,58.0112074 L43.0522124,52.0062388 L39,38 Z" id="Path" fill="#000000"></path>
        <path d="M103.431818,108 C137.318182,108 144,84.4676325 144,66.7945205 C144,49.1214086 125.837006,44 103.431818,44 C81.02663,44 60,47.9452055 60,66.7945205 C60,85.6438356 69.5454545,108 103.431818,108 Z" id="Oval" fill="#595959" transform="translate(102.000000, 76.000000) scale(-1, 1) translate(-102.000000, -76.000000) "></path>
        <path d="M231.431818,108 C265.318182,108 272,84.4676325 272,66.7945205 C272,49.1214086 253.837006,44 231.431818,44 C209.02663,44 188,47.9452055 188,66.7945205 C188,85.6438356 197.545455,108 231.431818,108 Z" id="Oval" fill="#595959"></path>
        <polyline id="Path" stroke="#000000" stroke-width="12" stroke-linecap="round" stroke-linejoin="round" points="282 44 401 44 282 51"></polyline>
    </g>
</svg>