<?xml version="1.0" encoding="UTF-8"?>
<svg width="428px" height="144px" viewBox="0 0 428 144" version="1.1" xmlns="http://www.w3.org/2000/svg" xmlns:xlink="http://www.w3.org/1999/xlink">
    <title>Eyewear/ 5</title>
    <g id="Eyewear/-5" stroke="none" stroke-width="1" fill="none" fill-rule="evenodd">
        <g id="Group" transform="translate(24.000000, 17.183457)">
            <path d="M46.5,115.816543 C64,115.816543 91.9524682,104.639448 109,85.8165433 C124.75539,68.4203476 132,51.8165433 127,28.8165433 C120.286834,-2.06401923 70,-2.18345675 46.5,1.81654325 C23,5.81654325 3.69482223e-13,24.3363125 3.69482223e-13,55.8165433 C3.69482223e-13,87.296774 19,115.816543 46.5,115.816543 Z" id="Oval" fill="#000000"></path>
            <path d="M242.064649,115.816543 C224.564649,115.816543 196.61218,104.639448 179.564649,85.8165433 C163.809259,68.4203476 156.564649,51.8165433 161.564649,28.8165433 C168.277814,-2.06401923 218.564649,-2.18345675 242.064649,1.81654325 C265.564649,5.81654325 288.564649,24.3363125 288.564649,55.8165433 C288.564649,87.296774 269.564649,115.816543 242.064649,115.816543 Z" id="Oval" fill="#000000"></path>
            <path d="M119,27.8165433 C128,24.4832099 136.666667,22.8165433 145,22.8165433 C153.333333,22.8165433 161.666667,24.4832099 170,27.8165433" id="Path" stroke="#000000" stroke-width="8" stroke-linecap="round" stroke-linejoin="round"></path>
            <polyline id="Path" stroke="#000000" stroke-width="6" stroke-linecap="round" stroke-linejoin="round" points="98 10.3165433 145 10.3165433 192 10.3165433"></polyline>
            <line x1="268" y1="27.8165433" x2="363" y2="27.8165433" id="Path" stroke="#000000" stroke-width="12" stroke-linecap="round" stroke-linejoin="round"></line>
        </g>
        <path d="M49,68.200612 C55,58.200612 65,50.200612 69,45.200612 C73,40.200612 73,36.200612 64,34.200612 C58.9834005,33.0858121 48.7582924,36.6899846 42,43.200612 C36.6336189,48.3703362 34,55.4895949 34,62.700612 C34,78.9930121 43,78.200612 49,68.200612 Z" id="Oval" fill="#FFFFFF"></path>
        <path d="M206,68.200612 C212,58.200612 222,50.200612 226,45.200612 C230,40.200612 230,36.200612 221,34.200612 C215.9834,33.0858121 205.758292,36.6899846 199,43.200612 C193.633619,48.3703362 191,55.4895949 191,62.700612 C191,78.9930121 200,78.200612 206,68.200612 Z" id="Oval" fill="#FFFFFF"></path>
    </g>
</svg>