<?xml version="1.0" encoding="UTF-8"?>
<svg width="428px" height="144px" viewBox="0 0 428 144" version="1.1" xmlns="http://www.w3.org/2000/svg" xmlns:xlink="http://www.w3.org/1999/xlink">
    <title>Eyewear/ 8</title>
    <g id="Eyewear/-8" stroke="none" stroke-width="1" fill="none" fill-rule="evenodd">
        <path d="M221.128381,17.8904763 C242.128381,4.23601459 292.070769,2.5862348 299.128381,11.6839028 C303.320847,17.088234 304.041282,28.7917969 303.038928,40.185215 L399.397055,44.5938611 C405.329691,44.86528 410,49.7541411 410,55.6929825 C410,61.6318239 405.329691,66.5206849 399.397055,66.7921039 L294.713537,71.5810168 C283.45765,93.6409889 259.257054,116 229.128381,116 C209.942898,116 188.947459,93.9536673 184.128381,70.0256936 C182.997024,64.408216 175.46583,65.9405292 169.499346,65.1855108 C163.533806,65.9404551 156.002949,64.4083518 154.871619,70.0256936 C150.052541,93.9536673 129.057102,116 109.871619,116 C74.8716195,116 47.8716195,85.826294 39.8716195,61 C35.5956019,47.7302914 32.8140076,20.7815708 39.8716195,11.6839028 C46.9292313,2.5862348 96.8716195,4.23601459 117.871619,17.8904763 C132.195427,27.2039943 144.871619,34.0275674 154.871619,47.682029 C155.715573,48.8344028 158.043265,51.8175745 160.871619,52.6472878 C162.13581,53.018145 163.563883,53.1755499 165.033607,53.228922 C166.281227,53.0886887 167.834595,53.1320454 169.499517,53.1846222 C171.165096,53.1320532 172.718958,53.0886544 173.967627,53.2277639 C175.436121,53.1755494 176.864192,53.0181445 178.128381,52.6472878 C180.956735,51.8175745 183.284427,48.8344028 184.128381,47.682029 C194.128381,34.0275674 206.804573,27.2039943 221.128381,17.8904763 Z" id="Combined-Shape" stroke="#80F2C2" stroke-width="4" fill="#80F2C2" stroke-linecap="round" stroke-linejoin="round"></path>
        <path d="M238.128381,111.217391 C254.439846,109.444406 275.286662,94.0997612 282.128381,77.7391304 C285.128381,70.5652174 287.128381,60.4021739 287.128381,56.2173913 C287.128381,42.9583402 286.128381,37.0869565 277.128381,27.5217391 C268.128381,17.9565217 259.705418,19.1521739 246.128381,19.1521739 C234.369129,19.1521739 215.666454,25.8870236 207.128381,32.3043478 C195.616506,40.956819 188.128381,51.4043666 188.128381,66.3804348 C188.128381,92.463883 216.128381,113.608696 238.128381,111.217391 Z" id="Oval" fill="#000000"></path>
        <path d="M101.871619,111.217391 C118.183085,109.444406 139.029901,94.0997612 145.871619,77.7391304 C148.871619,70.5652174 150.871619,60.4021739 150.871619,56.2173913 C150.871619,42.9583402 149.871619,37.0869565 140.871619,27.5217391 C131.871619,17.9565217 123.448657,19.1521739 109.871619,19.1521739 C98.1123679,19.1521739 79.4096928,25.8870236 70.8716195,32.3043478 C59.3597446,40.956819 51.8716195,51.4043666 51.8716195,66.3804348 C51.8716195,92.463883 79.8716195,113.608696 101.871619,111.217391 Z" id="Oval" fill="#000000" transform="translate(101.371619, 65.253237) scale(-1, 1) translate(-101.371619, -65.253237) "></path>
    </g>
</svg>