<?xml version="1.0" encoding="UTF-8"?>
<svg width="428px" height="144px" viewBox="0 0 428 144" version="1.1" xmlns="http://www.w3.org/2000/svg" xmlns:xlink="http://www.w3.org/1999/xlink">
    <title>Eyewear/ 9</title>
    <g id="Eyewear/-9" stroke="none" stroke-width="1" fill="none" fill-rule="evenodd">
        <path d="M139,-49 C171.32386,25.5663447 202.367575,72.1828891 232.131148,90.849633 C261.89472,109.516377 324.851004,119.566499 421,121" id="Path" stroke="#000000" stroke-width="12" stroke-linecap="round" stroke-linejoin="round"></path>
        <path d="M254.187648,129 C295.559751,129 321,84 321,58.2857143 C321,32.5714286 304.803066,24 254.187648,24 C203.57223,24 189.399913,30.4285714 185.350679,49.7142857 C181.301446,69 212.815545,129 254.187648,129 Z" id="Oval" stroke="#000000" stroke-width="12" fill="#000000" stroke-linecap="round" stroke-linejoin="round"></path>
        <g id="Group" transform="translate(253.000000, 75.000000) rotate(6.000000) translate(-253.000000, -75.000000) translate(225.000000, 47.000000)">
            <circle id="Oval" fill="#FFFFFF" cx="28" cy="28" r="28"></circle>
            <ellipse id="Oval" fill="#000000" cx="16" cy="21" rx="6" ry="7"></ellipse>
            <ellipse id="Oval" fill="#000000" transform="translate(28.000000, 31.000000) rotate(-90.000000) translate(-28.000000, -31.000000) " cx="28" cy="31" rx="4" ry="5"></ellipse>
            <ellipse id="Oval" fill="#000000" cx="40" cy="21" rx="6" ry="7"></ellipse>
            <path d="M13,37 C15.8703704,43 21.037037,46 28.5,46 C35.962963,46 41.1296296,43 44,37" id="Path" stroke="#000000" stroke-width="6" stroke-linecap="round" stroke-linejoin="round"></path>
        </g>
    </g>
</svg>