<?xml version="1.0" encoding="UTF-8"?>
<svg width="1080px" height="540px" viewBox="0 0 1080 540" version="1.1" xmlns="http://www.w3.org/2000/svg" xmlns:xlink="http://www.w3.org/1999/xlink">
    <title>Top/ 11</title>
    <defs>
        <path d="M400.003959,0.08241772 C538.020127,35.6072179 640,160.894271 640,310 C640,486.73112 496.73112,630 320,630 C143.26888,630 0,486.73112 0,310 C0,160.893911 101.980365,35.6066133 239.99704,0.0821605557 L240,14 C240,58.18278 275.81722,94 320,94 C364.18278,94 400,58.18278 400,14 L400,14 Z" id="path-1"></path>
    </defs>
    <g id="Top/-11" stroke="none" stroke-width="1" fill="none" fill-rule="evenodd">
        <g id="Group" transform="translate(220.000000, 230.000000)">
            <mask id="mask-2" fill="white">
                <use xlink:href="#path-1"></use>
            </mask>
            <use id="Mask" fill="#0D253E" xlink:href="#path-1"></use>
            <g mask="url(#mask-2)">
                <g transform="translate(-57.000000, 0.000000)">
                    <g transform="translate(525.000000, 55.000000)">
                        <path d="M43.0860504,44.0598287 C29.0860504,13.3931621 35.705098,2.22346509 56.3717647,0.223465088 C77.0384314,-1.77653491 83.7527171,9.39316206 71.0860504,44.0598287 C87.2765266,23.502253 100.371765,20.8901318 110.371765,36.2234651 C120.371765,51.5567984 107.943193,60.502253 73.0860504,63.0598287 C107.276527,74.502253 115.038431,87.5567984 96.3717647,102.223465 C77.705098,116.890132 64.6098599,107.16892 57.0860504,73.0598287 C49.9431933,104.502253 38.0384314,114.223465 21.3717647,102.223465 C4.70509804,90.2234651 10.6098599,76.502253 39.0860504,61.0598287 C6.60985994,63.8355863 -5.62823529,55.5567984 2.37176471,36.2234651 C10.3717647,16.8901318 23.9431933,19.502253 43.0860504,44.0598287 Z" id="Path" fill="#FFE8E9"></path>
                        <circle id="Oval" fill="#F3A5A8" cx="57.0860504" cy="54.0598287" r="15"></circle>
                    </g>
                    <g transform="translate(320.000000, 14.000000)">
                        <path d="M43.0860504,44.0598287 C29.0860504,13.3931621 35.705098,2.22346509 56.3717647,0.223465088 C77.0384314,-1.77653491 83.7527171,9.39316206 71.0860504,44.0598287 C87.2765266,23.502253 100.371765,20.8901318 110.371765,36.2234651 C120.371765,51.5567984 107.943193,60.502253 73.0860504,63.0598287 C107.276527,74.502253 115.038431,87.5567984 96.3717647,102.223465 C77.705098,116.890132 64.6098599,107.16892 57.0860504,73.0598287 C49.9431933,104.502253 38.0384314,114.223465 21.3717647,102.223465 C4.70509804,90.2234651 10.6098599,76.502253 39.0860504,61.0598287 C6.60985994,63.8355863 -5.62823529,55.5567984 2.37176471,36.2234651 C10.3717647,16.8901318 23.9431933,19.502253 43.0860504,44.0598287 Z" id="Path" fill="#FFE8E9"></path>
                        <circle id="Oval" fill="#F3A5A8" cx="57.0860504" cy="54.0598287" r="15"></circle>
                    </g>
                    <g transform="translate(468.000000, 231.000000)">
                        <path d="M43.0860504,44.0598287 C29.0860504,13.3931621 35.705098,2.22346509 56.3717647,0.223465088 C77.0384314,-1.77653491 83.7527171,9.39316206 71.0860504,44.0598287 C87.2765266,23.502253 100.371765,20.8901318 110.371765,36.2234651 C120.371765,51.5567984 107.943193,60.502253 73.0860504,63.0598287 C107.276527,74.502253 115.038431,87.5567984 96.3717647,102.223465 C77.705098,116.890132 64.6098599,107.16892 57.0860504,73.0598287 C49.9431933,104.502253 38.0384314,114.223465 21.3717647,102.223465 C4.70509804,90.2234651 10.6098599,76.502253 39.0860504,61.0598287 C6.60985994,63.8355863 -5.62823529,55.5567984 2.37176471,36.2234651 C10.3717647,16.8901318 23.9431933,19.502253 43.0860504,44.0598287 Z" id="Path" fill="#FFE8E9"></path>
                        <circle id="Oval" fill="#F3A5A8" cx="57.0860504" cy="54.0598287" r="15"></circle>
                    </g>
                    <g transform="translate(180.000000, 139.000000)">
                        <path d="M43.0860504,44.0598287 C29.0860504,13.3931621 35.705098,2.22346509 56.3717647,0.223465088 C77.0384314,-1.77653491 83.7527171,9.39316206 71.0860504,44.0598287 C87.2765266,23.502253 100.371765,20.8901318 110.371765,36.2234651 C120.371765,51.5567984 107.943193,60.502253 73.0860504,63.0598287 C107.276527,74.502253 115.038431,87.5567984 96.3717647,102.223465 C77.705098,116.890132 64.6098599,107.16892 57.0860504,73.0598287 C49.9431933,104.502253 38.0384314,114.223465 21.3717647,102.223465 C4.70509804,90.2234651 10.6098599,76.502253 39.0860504,61.0598287 C6.60985994,63.8355863 -5.62823529,55.5567984 2.37176471,36.2234651 C10.3717647,16.8901318 23.9431933,19.502253 43.0860504,44.0598287 Z" id="Path" fill="#FFE8E9"></path>
                        <circle id="Oval" fill="#F3A5A8" cx="57.0860504" cy="54.0598287" r="15"></circle>
                    </g>
                    <g transform="translate(0.000000, 248.000000)">
                        <path d="M43.0860504,44.0598287 C29.0860504,13.3931621 35.705098,2.22346509 56.3717647,0.223465088 C77.0384314,-1.77653491 83.7527171,9.39316206 71.0860504,44.0598287 C87.2765266,23.502253 100.371765,20.8901318 110.371765,36.2234651 C120.371765,51.5567984 107.943193,60.502253 73.0860504,63.0598287 C107.276527,74.502253 115.038431,87.5567984 96.3717647,102.223465 C77.705098,116.890132 64.6098599,107.16892 57.0860504,73.0598287 C49.9431933,104.502253 38.0384314,114.223465 21.3717647,102.223465 C4.70509804,90.2234651 10.6098599,76.502253 39.0860504,61.0598287 C6.60985994,63.8355863 -5.62823529,55.5567984 2.37176471,36.2234651 C10.3717647,16.8901318 23.9431933,19.502253 43.0860504,44.0598287 Z" id="Path" fill="#FFE8E9"></path>
                        <circle id="Oval" fill="#F3A5A8" cx="57.0860504" cy="54.0598287" r="15"></circle>
                    </g>
                    <g transform="translate(66.000000, 0.000000)">
                        <path d="M43.0860504,44.0598287 C29.0860504,13.3931621 35.705098,2.22346509 56.3717647,0.223465088 C77.0384314,-1.77653491 83.7527171,9.39316206 71.0860504,44.0598287 C87.2765266,23.502253 100.371765,20.8901318 110.371765,36.2234651 C120.371765,51.5567984 107.943193,60.502253 73.0860504,63.0598287 C107.276527,74.502253 115.038431,87.5567984 96.3717647,102.223465 C77.705098,116.890132 64.6098599,107.16892 57.0860504,73.0598287 C49.9431933,104.502253 38.0384314,114.223465 21.3717647,102.223465 C4.70509804,90.2234651 10.6098599,76.502253 39.0860504,61.0598287 C6.60985994,63.8355863 -5.62823529,55.5567984 2.37176471,36.2234651 C10.3717647,16.8901318 23.9431933,19.502253 43.0860504,44.0598287 Z" id="Path" fill="#FFE8E9"></path>
                        <circle id="Oval" fill="#F3A5A8" cx="57.0860504" cy="54.0598287" r="15"></circle>
                    </g>
                    <g transform="translate(237.000000, 285.000000)">
                        <path d="M43.0860504,44.0598287 C29.0860504,13.3931621 35.705098,2.22346509 56.3717647,0.223465088 C77.0384314,-1.77653491 83.7527171,9.39316206 71.0860504,44.0598287 C87.2765266,23.502253 100.371765,20.8901318 110.371765,36.2234651 C120.371765,51.5567984 107.943193,60.502253 73.0860504,63.0598287 C107.276527,74.502253 115.038431,87.5567984 96.3717647,102.223465 C77.705098,116.890132 64.6098599,107.16892 57.0860504,73.0598287 C49.9431933,104.502253 38.0384314,114.223465 21.3717647,102.223465 C4.70509804,90.2234651 10.6098599,76.502253 39.0860504,61.0598287 C6.60985994,63.8355863 -5.62823529,55.5567984 2.37176471,36.2234651 C10.3717647,16.8901318 23.9431933,19.502253 43.0860504,44.0598287 Z" id="Path" fill="#FFE8E9"></path>
                    </g>
                    <g transform="translate(665.000000, 206.000000)">
                        <path d="M43.0860504,44.0598287 C29.0860504,13.3931621 35.705098,2.22346509 56.3717647,0.223465088 C77.0384314,-1.77653491 83.7527171,9.39316206 71.0860504,44.0598287 C87.2765266,23.502253 100.371765,20.8901318 110.371765,36.2234651 C120.371765,51.5567984 107.943193,60.502253 73.0860504,63.0598287 C107.276527,74.502253 115.038431,87.5567984 96.3717647,102.223465 C77.705098,116.890132 64.6098599,107.16892 57.0860504,73.0598287 C49.9431933,104.502253 38.0384314,114.223465 21.3717647,102.223465 C4.70509804,90.2234651 10.6098599,76.502253 39.0860504,61.0598287 C6.60985994,63.8355863 -5.62823529,55.5567984 2.37176471,36.2234651 C10.3717647,16.8901318 23.9431933,19.502253 43.0860504,44.0598287 Z" id="Path" fill="#FFE8E9"></path>
                        <circle id="Oval" fill="#F3A5A8" cx="57.0860504" cy="54.0598287" r="15"></circle>
                    </g>
                </g>
            </g>
        </g>
    </g>
</svg>