<?xml version="1.0" encoding="UTF-8"?>
<svg width="1080px" height="540px" viewBox="0 0 1080 540" version="1.1" xmlns="http://www.w3.org/2000/svg" xmlns:xlink="http://www.w3.org/1999/xlink">
    <title>Top/ 14</title>
    <g id="Top/-14" stroke="none" stroke-width="1" fill="none" fill-rule="evenodd" stroke-linecap="round" stroke-linejoin="round">
        <path d="M620.003959,230.082418 C758.020127,265.607218 860,390.894271 860,540 C860,716.73112 716.73112,860 540,860 C363.26888,860 220,716.73112 220,540 C220,390.893911 321.980365,265.606613 459.99704,230.082161 L460,244 C460,288.18278 495.81722,324 540,324 C584.18278,324 620,288.18278 620,244 L620,244 Z" id="Combined-Shape" stroke="#000000" stroke-width="12" fill="#0F234A"></path>
        <g id="Group" transform="translate(460.000000, 220.000000)" fill="#0E514A" stroke="#000000" stroke-width="12">
            <path d="M0,0 C26.6666667,40 53.3333333,60 80,60 C106.666667,60 133.333333,40 160,0 L107,320 L53,320 L0,0 Z" id="Rectangle"></path>
        </g>
        <g id="Group" transform="translate(407.000000, 198.000000)" fill="#0F234A" stroke="#000000" stroke-width="12">
            <polygon id="Path" points="199.5 0 259 41.5779817 266 75.5963303 220.5 75.5963303 266 94.4954128 133 412"></polygon>
            <polygon id="Path" transform="translate(66.500000, 206.000000) scale(-1, 1) translate(-66.500000, -206.000000) " points="66.5 0 126 41.5779817 133 75.5963303 87.5 75.5963303 133 94.4954128 0 412"></polygon>
        </g>
    </g>
</svg>