<?xml version="1.0" encoding="UTF-8"?>
<svg width="1080px" height="540px" viewBox="0 0 1080 540" version="1.1" xmlns="http://www.w3.org/2000/svg" xmlns:xlink="http://www.w3.org/1999/xlink">
    <title>Top/ 15</title>
    <g id="Top/-15" stroke="none" stroke-width="1" fill="none" fill-rule="evenodd">
        <g id="Group" transform="translate(220.000000, 230.082161)" fill="#E8CAA8">
            <path d="M400.003959,0.000257164248 C538.020127,35.5250574 640,160.812111 640,309.917839 C640,486.648959 496.73112,629.917839 320,629.917839 C143.26888,629.917839 0,486.648959 0,309.917839 C0,160.811751 101.980365,35.5244527 239.99704,-5.48006085e-13 L240,13.9178394 C240,58.1006194 275.81722,93.9178394 320,93.9178394 C364.18278,93.9178394 400,58.1006194 400,13.9178394 L400,13.9178394 Z" id="Combined-Shape"></path>
        </g>
        <path d="M644.705882,399 L660.705882,408 L688.705882,408 L704.705882,399 C728.705882,449.666667 718.705882,475 674.705882,475 C630.705882,475 620.705882,449.666667 644.705882,399 Z" id="Path-2" fill="#000000"></path>
        <polygon id="Path-3" fill="#E8CAA8" points="645.705882 405 640.705882 418 653.705882 411"></polygon>
        <polygon id="Path-3" fill="#E8CAA8" transform="translate(702.205882, 411.500000) scale(-1, 1) translate(-702.205882, -411.500000) " points="700.705882 405 695.705882 418 708.705882 411"></polygon>
    </g>
</svg>