<?xml version="1.0" encoding="UTF-8"?>
<svg width="1080px" height="540px" viewBox="0 0 1080 540" version="1.1" xmlns="http://www.w3.org/2000/svg" xmlns:xlink="http://www.w3.org/1999/xlink">
    <title>Top/ 16</title>
    <g id="Top/-16" stroke="none" stroke-width="1" fill="none" fill-rule="evenodd">
        <g id="Group" transform="translate(220.000000, 230.082161)" fill="#237944">
            <path d="M400.003959,0.000257164248 C538.020127,35.5250574 640,160.812111 640,309.917839 C640,486.648959 496.73112,629.917839 320,629.917839 C143.26888,629.917839 0,486.648959 0,309.917839 C0,160.811751 101.980365,35.5244527 239.99704,-5.48006085e-13 L240,13.9178394 C240,58.1006194 275.81722,93.9178394 320,93.9178394 C364.18278,93.9178394 400,58.1006194 400,13.9178394 L400,13.9178394 Z" id="Combined-Shape"></path>
        </g>
        <path d="M662.8,393.142857 C663.933044,392.576335 666.510352,393.694787 670.531923,396.498212 C671.01262,396.324303 671.501887,396.158491 672,396 C694,389 710,405 707,421 C704,437 686.986885,425.086507 683,428 C679.013115,430.913493 679.931019,435.723063 681,439 C681.374778,440.148872 681.754229,441.267853 682.134609,442.357827 L682.962215,442.340849 C687.40335,442.2673 690.017939,442.520883 690.806824,443.101238 C691.940344,443.935131 691.580772,446.818422 689.728106,451.751111 L689.58988,452.115697 L685.455476,451.33867 L686.499407,454.089226 C689.902168,463.137786 691.795355,469.445574 688,474 C686.549558,475.74053 684.310198,477.212828 681.281921,478.416894 L681.729682,479.668758 C683.778855,485.484382 684.536111,488.927778 684,490 C683.361702,491.276596 679.973291,491.636487 673.834767,491.079674 L673,491 L672.275242,480.831747 C670.182871,481.202732 667.905249,481.510732 665.442378,481.755747 L665.698056,482.541584 C667.006986,486.632393 667.440924,489.118153 667,490 C666.361702,491.276596 662.973291,491.636487 656.834767,491.079674 L656,491 L655.384814,482.377912 C645.179689,482.685811 632.718084,482.226507 618,481 C621.365024,479.415222 624.433172,477.789967 627.204444,476.124235 C625.544759,472.620196 625.219574,470.521207 626.228429,469.826152 C627.032167,469.272414 628.824127,469.589871 631.604311,470.778525 C630.481164,468.077644 630.356142,466.427117 631.228429,465.826152 C632.196105,465.159467 634.596255,465.75562 638.428878,467.614611 L638.486004,467.557835 C635.611351,464.749968 634.535801,462.837623 635.259353,461.820801 C635.841433,461.002792 637.721357,460.693368 640.899124,460.892529 C639.236125,458.979254 638.689221,457.622019 639.259353,456.820801 C639.768998,456.104587 641.27357,455.778255 643.773071,455.841805 C641.436841,453.422036 640.599137,451.748616 641.259353,450.820801 C641.844815,449.998039 643.743245,449.689789 646.954643,449.896052 C644.287422,448.937713 643.021408,447.941947 643.156261,446.908576 C643.29172,445.87055 644.932615,444.658305 648.078944,443.27184 C644.644432,442.198828 643.003683,441.077772 643.156261,439.908576 C643.279623,438.963251 644.65154,437.873435 647.27201,436.639128 C645.072457,435.759546 644.033452,434.849655 644.156261,433.908576 C644.310144,432.729373 646.406801,431.325339 650.446232,429.696475 C647.606702,426.259954 646.630549,424.056702 647.518472,423.085494 C647.94604,422.61782 648.862075,422.414246 650.266577,422.474772 C647.565674,419.165979 646.6496,417.035865 647.518472,416.085494 C648.065974,415.486636 649.414411,415.32082 651.563782,415.588044 L651.165545,415.057 C649.329523,412.548995 648.780931,410.892215 649.518472,410.085494 C650.124026,409.423139 651.709366,409.290525 654.274493,409.687651 L654.045396,409.004621 C652.738838,405.001751 652.656705,402.714505 653.8,402.142857 C654.528151,401.778782 655.852782,402.110599 657.773892,403.138309 C656.733403,399.670166 656.741962,397.671876 657.8,397.142857 C658.630801,396.727456 660.238113,397.217984 662.621934,398.61444 C661.737052,395.468725 661.796317,393.644698 662.8,393.142857 Z" id="Path" fill="#000000"></path>
    </g>
</svg>