<?xml version="1.0" encoding="UTF-8"?>
<svg width="1080px" height="540px" viewBox="0 0 1080 540" version="1.1" xmlns="http://www.w3.org/2000/svg" xmlns:xlink="http://www.w3.org/1999/xlink">
    <title>Top/ 17</title>
    <g id="Top/-17" stroke="none" stroke-width="1" fill="none" fill-rule="evenodd">
        <g id="Group" transform="translate(220.000000, 230.082161)" fill="#FFB2DE">
            <path d="M400.003959,0.000257164248 C538.020127,35.5250574 640,160.812111 640,309.917839 C640,486.648959 496.73112,629.917839 320,629.917839 C143.26888,629.917839 0,486.648959 0,309.917839 C0,160.811751 101.980365,35.5244527 239.99704,-5.48006085e-13 L240,13.9178394 C240,58.1006194 275.81722,93.9178394 320,93.9178394 C364.18278,93.9178394 400,58.1006194 400,13.9178394 L400,13.9178394 Z" id="Combined-Shape"></path>
        </g>
        <path d="M620,408.044503 L626.646154,408.044503 C635.987694,406.415153 642.633847,406.692055 646.584615,408.875209 C650.535383,411.058364 654.412306,416.596407 658.215385,425.489339 C663.112757,433.364573 670.58968,441.671638 680.646154,450.410533 C690.702628,459.149427 706.487243,471.05622 728,486.13091 C725.230769,487.792323 722.738462,488.346128 720.523077,487.792323 C717.2,486.961617 703.738577,475.816775 693.107692,471.178194 C686.020436,468.085807 680.481974,467.2551 676.492308,468.686075 C672.061538,471.455096 668.738462,473.116509 666.523077,473.670314 C663.2,474.50102 639.107692,474.50102 632.461538,455.394771 C628.030769,442.657272 626.257196,432.283152 627.140819,424.272411 C627.780848,421.749589 627.615959,419.38621 626.646154,417.182274 C625.676349,414.978338 623.460964,411.932414 620,408.044503 Z" id="Path-4" fill="#000000"></path>
    </g>
</svg>