<?xml version="1.0" encoding="UTF-8"?>
<svg width="1080px" height="540px" viewBox="0 0 1080 540" version="1.1" xmlns="http://www.w3.org/2000/svg" xmlns:xlink="http://www.w3.org/1999/xlink">
    <title>Top/ 20</title>
    <g id="Top/-20" stroke="none" stroke-width="1" fill="none" fill-rule="evenodd">
        <path d="M620.003959,230.082418 C758.020127,265.607218 860,390.894271 860,540 C860,716.73112 716.73112,860 540,860 C363.26888,860 220,716.73112 220,540 C220,390.893911 321.980365,265.606613 459.99704,230.082161 L460,244 C460,288.18278 495.81722,324 540,324 C584.18278,324 620,288.18278 620,244 L620,244 Z" id="Combined-Shape" stroke="#000000" stroke-width="12" fill="#CDEDF2" stroke-linecap="round" stroke-linejoin="round"></path>
        <g id="Group" transform="translate(432.000000, 214.000000)" stroke="#000000" stroke-width="12">
            <polygon id="Path" fill="#CDEDF2" stroke-linecap="round" stroke-linejoin="round" points="30.3030303 0 7.10542736e-15 53.3671875 15.1515152 138 100 99.7265625"></polygon>
            <polygon id="Path" fill="#CDEDF2" stroke-linecap="round" stroke-linejoin="round" transform="translate(166.000000, 69.000000) scale(-1, 1) translate(-166.000000, -69.000000) " points="146.30303 0 116 53.3671875 131.151515 138 216 99.7265625"></polygon>
            <polyline id="Path" stroke-linecap="square" points="118 104 95 104 95 320"></polyline>
            <circle id="Oval" fill="#000000" stroke-linecap="round" stroke-linejoin="round" cx="129" cy="146" r="10"></circle>
            <circle id="Oval" fill="#000000" stroke-linecap="round" stroke-linejoin="round" cx="129" cy="206" r="10"></circle>
            <circle id="Oval" fill="#000000" stroke-linecap="round" stroke-linejoin="round" cx="129" cy="266" r="10"></circle>
            <circle id="Oval" fill="#000000" stroke-linecap="round" stroke-linejoin="round" cx="129" cy="326" r="10"></circle>
        </g>
    </g>
</svg>