<?xml version="1.0" encoding="UTF-8"?>
<svg width="1080px" height="540px" viewBox="0 0 1080 540" version="1.1" xmlns="http://www.w3.org/2000/svg" xmlns:xlink="http://www.w3.org/1999/xlink">
    <title>Top/ 6</title>
    <g id="Top/-6" stroke="none" stroke-width="1" fill="none" fill-rule="evenodd">
        <g id="Group" transform="translate(220.000000, 230.000000)">
            <path d="M400.003959,0.08241772 C538.020127,35.6072179 640,160.894271 640,310 C640,486.73112 496.73112,630 320,630 C143.26888,630 0,486.73112 0,310 C0,160.893911 101.980365,35.6066133 239.99704,0.0821605557 L240,14 C240,58.18278 275.81722,94 320,94 C364.18278,94 400,58.18278 400,14 L400,14 Z" id="Combined-Shape" fill="#373A3F"></path>
            <path d="M252.00911,1.30756318 C252.609604,44.3735015 282.820191,79.0697674 320,79.0697674 C357.555363,79.0697674 388,43.6690267 388,-9.02389274e-13 L388,-9.02389274e-13 L406,-2.98427949e-13 C406,55.228475 367.496488,100 320,100 C272.978476,100 234.77097,56.1194283 234.011522,1.65368285 L234,-2.98427949e-13 L252,-9.02389274e-13 Z" id="Combined-Shape" fill="#94262C"></path>
            <path d="M252.00911,1.30756318 C252.609604,44.3735015 282.820191,79.0697674 320,79.0697674 C357.555363,79.0697674 388,43.6690267 388,-3.19744231e-13 L388,-3.19744231e-13 L400,-2.20268248e-13 C400,51.3753256 364.18278,93.0232558 320,93.0232558 C276.259048,93.0232558 240.717181,52.2041194 240.010718,1.53830963 L240,-2.20268248e-13 L252,-3.19744231e-13 Z" id="Combined-Shape" fill="#ECC72B"></path>
            <path d="M252.00911,1.30756318 C252.609604,44.3735015 282.820191,79.0697674 320,79.0697674 C357.555363,79.0697674 388,43.6690267 388,7.81597009e-14 L388,7.81597009e-14 L394,-3.26849658e-13 C394,47.5221761 360.869071,86.0465116 320,86.0465116 C279.539619,86.0465116 246.663392,48.2888104 246.009914,1.42293641 L246,-3.26849658e-13 L252,7.81597009e-14 Z" id="Combined-Shape" fill="#94262C"></path>
            <path d="M440.571429,186 C455.238095,197.333333 465.238095,210 470.571429,224 C475.904762,238 476.571429,253.333333 472.571429,270 L440.571429,270 L408.571429,270 C404.571429,253.333333 405.238095,238 410.571429,224 C415.904762,210 425.904762,197.333333 440.571429,186 Z" id="Triangle" fill="#ECC72B" transform="translate(440.571429, 228.000000) rotate(-180.000000) translate(-440.571429, -228.000000) "></path>
        </g>
    </g>
</svg>