<?xml version="1.0" encoding="UTF-8"?>
<svg width="1080px" height="540px" viewBox="0 0 1080 540" version="1.1" xmlns="http://www.w3.org/2000/svg" xmlns:xlink="http://www.w3.org/1999/xlink">
    <title>Top/ 8</title>
    <g id="Top/-8" stroke="none" stroke-width="1" fill="none" fill-rule="evenodd" stroke-linecap="round" stroke-linejoin="round">
        <path d="M620.003959,230.082418 C758.020127,265.607218 860,390.894271 860,540 C860,716.73112 716.73112,860 540,860 C363.26888,860 220,716.73112 220,540 C220,390.893911 321.980365,265.606613 459.99704,230.082161 L460,244 C460,288.18278 495.81722,324 540,324 C584.18278,324 620,288.18278 620,244 L620,244 Z" id="Combined-Shape" stroke="#000000" stroke-width="12" fill="#FFF148"></path>
        <g id="Group" transform="translate(398.000000, 184.000000)" stroke="#000000" stroke-width="12">
            <path d="M25.238035,17.8472337 L84.2622814,59.5865974 C118.865187,84.0562578 165.134813,84.0562578 199.737719,59.5865974 L258.761965,17.8472337 C265.976815,12.7452079 275.961615,14.4579899 281.063641,21.6728395 C282.97412,24.3744756 284,27.6019824 284,30.9108745 L284,83.4802693 C283.999997,87.3883476 282.569656,91.1612929 279.978863,94.0871893 C233.985909,146.029063 187.992954,172 142,172 C96.0070446,172 50.0140891,146.029062 4.0211337,94.0871857 C1.43034171,91.1612882 4.78601606e-16,87.3883427 0,83.480264 L0,30.9108745 C6.02326136e-15,22.0743185 7.163444,14.9108745 16,14.9108745 C19.3088921,14.9108745 22.5363989,15.9367549 25.238035,17.8472337 Z" id="Rectangle" fill="#FFF148"></path>
            <path d="M0,48.716763 C9.98994237,63.8096415 18.0042793,73.751838 24.0430108,78.5433526 C30.0817422,83.3348672 39.4007386,87.1460425 52,89.9768786 C62.4790527,93.2670763 70.8661495,97.4096582 77.1612903,102.404624 C83.4564312,107.39959 92.4026677,117.01038 104,131.236994" id="Path"></path>
            <path d="M180,48.716763 C189.989942,63.8096415 198.004279,73.751838 204.043011,78.5433526 C210.081742,83.3348672 219.400739,87.1460425 232,89.9768786 C242.479053,93.2670763 250.866149,97.4096582 257.16129,102.404624 C263.456431,107.39959 272.402668,117.01038 284,131.236994" id="Path" transform="translate(232.000000, 89.976879) scale(-1, 1) translate(-232.000000, -89.976879) "></path>
        </g>
    </g>
</svg>